  0
SECTION
  2
HEADER
  9
$ACADVER
  1
AC1015
  9
$ACADMAINTVER
 70
     6
  9
$DWGCODEPAGE
  3
ANSI_949
  9
$INSBASE
 10
0.0
 20
0.0
 30
0.0
  9
$EXTMIN
 10
0.0
 20
0.0
 30
0.0
  9
$EXTMAX
 10
1189.0
 20
841.0
 30
0.0
  9
$LIMMIN
 10
0.0
 20
0.0
  9
$LIMMAX
 10
1189.0
 20
841.0
  9
$ORTHOMODE
 70
     0
  9
$REGENMODE
 70
     1
  9
$FILLMODE
 70
     1
  9
$QTEXTMODE
 70
     0
  9
$MIRRTEXT
 70
     1
  9
$LTSCALE
 40
1.0
  9
$ATTMODE
 70
     1
  9
$TEXTSIZE
 40
3.5
  9
$TRACEWID
 40
1.0
  9
$TEXTSTYLE
  7
Standard
  9
$CLAYER
  8
0
  9
$CELTYPE
  6
ByLayer
  9
$CECOLOR
 62
   256
  9
$CELTSCALE
 40
1.0
  9
$DISPSILH
 70
     0
  9
$DIMSCALE
 40
1.0
  9
$DIMASZ
 40
3.302
  9
$DIMEXO
 40
1.0
  9
$DIMDLI
 40
3.75
  9
$DIMRND
 40
0.0
  9
$DIMDLE
 40
0.0
  9
$DIMEXE
 40
1.0
  9
$DIMTP
 40
0.0
  9
$DIMTM
 40
0.0
  9
$DIMTXT
 40
3.5
  9
$DIMCEN
 40
2.5
  9
$DIMTSZ
 40
0.0
  9
$DIMTOL
 70
     0
  9
$DIMLIM
 70
     0
  9
$DIMTIH
 70
     1
  9
$DIMTOH
 70
     1
  9
$DIMSE1
 70
     0
  9
$DIMSE2
 70
     0
  9
$DIMTAD
 70
     1
  9
$DIMZIN
 70
     0
  9
$DIMBLK
  1

  9
$DIMASO
 70
     1
  9
$DIMSHO
 70
     1
  9
$DIMPOST
  1

  9
$DIMAPOST
  1

  9
$DIMALT
 70
     0
  9
$DIMALTD
 70
     3
  9
$DIMALTF
 40
0.0393700787
  9
$DIMLFAC
 40
1.0
  9
$DIMTOFL
 70
     1
  9
$DIMTVP
 40
0.0
  9
$DIMTIX
 70
     0
  9
$DIMSOXD
 70
     0
  9
$DIMSAH
 70
     0
  9
$DIMBLK1
  1

  9
$DIMBLK2
  1

  9
$DIMSTYLE
  2
ISO-25
  9
$DIMCLRD
 70
     0
  9
$DIMCLRE
 70
     0
  9
$DIMCLRT
 70
     0
  9
$DIMTFAC
 40
1.0
  9
$DIMGAP
 40
1.524
  9
$DIMJUST
 70
     0
  9
$DIMSD1
 70
     0
  9
$DIMSD2
 70
     0
  9
$DIMTOLJ
 70
     0
  9
$DIMTZIN
 70
     0
  9
$DIMALTZ
 70
     0
  9
$DIMALTTZ
 70
     0
  9
$DIMUPT
 70
     0
  9
$DIMDEC
 70
     2
  9
$DIMTDEC
 70
     2
  9
$DIMALTU
 70
     2
  9
$DIMALTTD
 70
     3
  9
$DIMTXSTY
  7
Standard
  9
$DIMAUNIT
 70
     0
  9
$DIMADEC
 70
     2
  9
$DIMALTRND
 40
0.0
  9
$DIMAZIN
 70
     0
  9
$DIMDSEP
 70
    44
  9
$DIMATFIT
 70
     3
  9
$DIMFRAC
 70
     0
  9
$DIMLDRBLK
  1

  9
$DIMLUNIT
 70
     2
  9
$DIMLWD
 70
    -2
  9
$DIMLWE
 70
    -2
  9
$DIMTMOVE
 70
     0
  9
$LUNITS
 70
     2
  9
$LUPREC
 70
     2
  9
$SKETCHINC
 40
1.0
  9
$FILLETRAD
 40
10.0
  9
$AUNITS
 70
     0
  9
$AUPREC
 70
     2
  9
$MENU
  1
.
  9
$ELEVATION
 40
0.0
  9
$PELEVATION
 40
0.0
  9
$THICKNESS
 40
0.0
  9
$LIMCHECK
 70
     0
  9
$CHAMFERA
 40
0.0
  9
$CHAMFERB
 40
0.0
  9
$CHAMFERC
 40
0.0
  9
$CHAMFERD
 40
0.0
  9
$SKPOLY
 70
     0
  9
$TDCREATE
 40
2459730.746728831
  9
$TDUCREATE
 40
2459730.371728831
  9
$TDUPDATE
 40
2459730.746729387
  9
$TDUUPDATE
 40
2459730.371729387
  9
$TDINDWG
 40
0.0000000116
  9
$TDUSRTIMER
 40
0.0000000116
  9
$USRTIMER
 70
     1
  9
$ANGBASE
 50
0.0
  9
$ANGDIR
 70
     0
  9
$PDMODE
 70
     0
  9
$PDSIZE
 40
-1.0
  9
$PLINEWID
 40
0.0
  9
$SPLFRAME
 70
     0
  9
$SPLINETYPE
 70
     6
  9
$SPLINESEGS
 70
     8
  9
$HANDSEED
  5
35E
  9
$SURFTAB1
 70
     6
  9
$SURFTAB2
 70
     6
  9
$SURFTYPE
 70
     6
  9
$SURFU
 70
     6
  9
$SURFV
 70
     6
  9
$UCSBASE
  2

  9
$UCSNAME
  2

  9
$UCSORG
 10
0.0
 20
0.0
 30
0.0
  9
$UCSXDIR
 10
1.0
 20
0.0
 30
0.0
  9
$UCSYDIR
 10
0.0
 20
1.0
 30
0.0
  9
$UCSORTHOREF
  2

  9
$UCSORTHOVIEW
 70
     0
  9
$UCSORGTOP
 10
0.0
 20
0.0
 30
0.0
  9
$UCSORGBOTTOM
 10
0.0
 20
0.0
 30
0.0
  9
$UCSORGLEFT
 10
0.0
 20
0.0
 30
0.0
  9
$UCSORGRIGHT
 10
0.0
 20
0.0
 30
0.0
  9
$UCSORGFRONT
 10
0.0
 20
0.0
 30
0.0
  9
$UCSORGBACK
 10
0.0
 20
0.0
 30
0.0
  9
$PUCSBASE
  2

  9
$PUCSNAME
  2

  9
$PUCSORG
 10
0.0
 20
0.0
 30
0.0
  9
$PUCSXDIR
 10
1.0
 20
0.0
 30
0.0
  9
$PUCSYDIR
 10
0.0
 20
1.0
 30
0.0
  9
$PUCSORTHOREF
  2

  9
$PUCSORTHOVIEW
 70
     0
  9
$PUCSORGTOP
 10
0.0
 20
0.0
 30
0.0
  9
$PUCSORGBOTTOM
 10
0.0
 20
0.0
 30
0.0
  9
$PUCSORGLEFT
 10
0.0
 20
0.0
 30
0.0
  9
$PUCSORGRIGHT
 10
0.0
 20
0.0
 30
0.0
  9
$PUCSORGFRONT
 10
0.0
 20
0.0
 30
0.0
  9
$PUCSORGBACK
 10
0.0
 20
0.0
 30
0.0
  9
$USERI1
 70
     0
  9
$USERI2
 70
     0
  9
$USERI3
 70
     0
  9
$USERI4
 70
     0
  9
$USERI5
 70
     0
  9
$USERR1
 40
0.0
  9
$USERR2
 40
0.0
  9
$USERR3
 40
0.0
  9
$USERR4
 40
0.0
  9
$USERR5
 40
0.0
  9
$WORLDVIEW
 70
     1
  9
$SHADEDGE
 70
     3
  9
$SHADEDIF
 70
    70
  9
$TILEMODE
 70
     1
  9
$MAXACTVP
 70
    64
  9
$PINSBASE
 10
0.0
 20
0.0
 30
0.0
  9
$PLIMCHECK
 70
     0
  9
$PEXTMIN
 10
1.0000000000E+20
 20
1.0000000000E+20
 30
1.0000000000E+20
  9
$PEXTMAX
 10
-1.0000000000E+20
 20
-1.0000000000E+20
 30
-1.0000000000E+20
  9
$PLIMMIN
 10
0.0
 20
0.0
  9
$PLIMMAX
 10
420.0
 20
297.0
  9
$UNITMODE
 70
     0
  9
$VISRETAIN
 70
     1
  9
$PLINEGEN
 70
     0
  9
$PSLTSCALE
 70
     1
  9
$TREEDEPTH
 70
  3020
  9
$CMLSTYLE
  2
Standard
  9
$CMLJUST
 70
     0
  9
$CMLSCALE
 40
20.0
  9
$PROXYGRAPHICS
 70
     1
  9
$MEASUREMENT
 70
     1
  9
$CELWEIGHT
370
    -1
  9
$ENDCAPS
280
     0
  9
$JOINSTYLE
280
     0
  9
$LWDISPLAY
290
     1
  9
$INSUNITS
 70
     4
  9
$HYPERLINKBASE
  1

  9
$STYLESHEET
  1

  9
$XEDIT
290
     1
  9
$CEPSNTYPE
380
     0
  9
$PSTYLEMODE
290
     1
  9
$FINGERPRINTGUID
  2
{F272851A-81DA-4B44-A348-B2B9B6E544BE}
  9
$VERSIONGUID
  2
{FAEB1C32-E019-11D5-929B-00C0DF256EC4}
  9
$EXTNAMES
290
     1
  9
$PSVPSCALE
 40
0.0
  9
$OLESTARTUP
290
     0
  0
ENDSEC
  0
SECTION
  2
CLASSES
  0
CLASS
  1
ACDBDICTIONARYWDFLT
  2
AcDbDictionaryWithDefault
  3
ObjectDBX Classes
 90
        0
280
     0
281
     0
  0
CLASS
  1
VISUALSTYLE
  2
AcDbVisualStyle
  3
ObjectDBX Classes
 90
     4095
280
     0
281
     0
  0
CLASS
  1
MATERIAL
  2
AcDbMaterial
  3
ObjectDBX Classes
 90
     1153
280
     0
281
     0
  0
CLASS
  1
SCALE
  2
AcDbScale
  3
ObjectDBX Classes
 90
     1153
280
     0
281
     0
  0
CLASS
  1
TABLESTYLE
  2
AcDbTableStyle
  3
ObjectDBX Classes
 90
     4095
280
     0
281
     0
  0
CLASS
  1
MLEADERSTYLE
  2
AcDbMLeaderStyle
  3
ACDB_MLEADERSTYLE_CLASS
 90
     4095
280
     0
281
     0
  0
CLASS
  1
SUN
  2
AcDbSun
  3
SCENEOE
 90
     1153
280
     0
281
     0
  0
CLASS
  1
ACDBPLACEHOLDER
  2
AcDbPlaceHolder
  3
ObjectDBX Classes
 90
        0
280
     0
281
     0
  0
CLASS
  1
LAYOUT
  2
AcDbLayout
  3
ObjectDBX Classes
 90
        0
280
     0
281
     0
  0
ENDSEC
  0
SECTION
  2
TABLES
  0
TABLE
  2
VPORT
  5
8
330
0
100
AcDbSymbolTable
 70
     1
  0
VPORT
  5
29
330
8
100
AcDbSymbolTableRecord
100
AcDbViewportTableRecord
  2
*Active
 70
     0
 10
0.0
 20
0.0
 11
1.0
 21
1.0
 12
594.5
 22
420.5
 13
0.0
 23
0.0
 14
10.0
 24
10.0
 15
10.0
 25
10.0
 16
0.0
 26
0.0
 36
1.0
 17
0.0
 27
0.0
 37
0.0
 40
841.0
 41
1.4137931034
 42
50.0
 43
0.0
 44
0.0
 50
0.0
 51
0.0
 71
     0
 72
  2000
 73
     1
 74
     3
 75
     0
 76
     0
 77
     0
 78
     0
281
     0
 65
     1
110
0.0
120
0.0
130
0.0
111
1.0
121
0.0
131
0.0
112
0.0
122
1.0
132
0.0
 79
     0
146
0.0
  0
ENDTAB
  0
TABLE
  2
LTYPE
  5
5
330
0
100
AcDbSymbolTable
 70
     6
  0
LTYPE
  5
14
330
5
100
AcDbSymbolTableRecord
100
AcDbLinetypeTableRecord
  2
ByBlock
 70
     0
  3

 72
    65
 73
     0
 40
0.0
  0
LTYPE
  5
15
330
5
100
AcDbSymbolTableRecord
100
AcDbLinetypeTableRecord
  2
ByLayer
 70
     0
  3

 72
    65
 73
     0
 40
0.0
  0
LTYPE
  5
16
330
5
100
AcDbSymbolTableRecord
100
AcDbLinetypeTableRecord
  2
Continuous
 70
     0
  3
Solid line
 72
    65
 73
     0
 40
0.0
  0
LTYPE
  5
6E
330
5
100
AcDbSymbolTableRecord
100
AcDbLinetypeTableRecord
  2
HIDDEN
 70
     0
  3
Hidden __ __ __ __ __ __ __ __ __ __ __ __ __ __
 72
    65
 73
     2
 40
1.905
 49
1.27
 74
     0
 49
-0.635
 74
     0
  0
LTYPE
  5
6F
330
5
100
AcDbSymbolTableRecord
100
AcDbLinetypeTableRecord
  2
PHANTOM
 70
     0
  3
Phantom ______  __  __  ______  __  __  ______
 72
    65
 73
     6
 40
12.7
 49
6.35
 74
     0
 49
-1.27
 74
     0
 49
1.27
 74
     0
 49
-1.27
 74
     0
 49
1.27
 74
     0
 49
-1.27
 74
     0
  0
LTYPE
  5
70
330
5
100
AcDbSymbolTableRecord
100
AcDbLinetypeTableRecord
  2
CENTER
 70
     0
  3
Center ____ _ ____ _ ____ _ ____ _ ____ _ ____
 72
    65
 73
     4
 40
10.16
 49
6.35
 74
     0
 49
-1.27
 74
     0
 49
1.27
 74
     0
 49
-1.27
 74
     0
  0
LTYPE
  5
71
330
5
100
AcDbSymbolTableRecord
100
AcDbLinetypeTableRecord
  2
CENTERX2
 70
     0
  3
Center (2x) ________  __  ________  __  _____
 72
    65
 73
     4
 40
20.32
 49
12.7
 74
     0
 49
-2.54
 74
     0
 49
2.54
 74
     0
 49
-2.54
 74
     0
  0
LTYPE
  5
72
330
5
100
AcDbSymbolTableRecord
100
AcDbLinetypeTableRecord
  2
DOT2
 70
     0
  3
Dot (.5x) ........................................
 72
    65
 73
     2
 40
0.635
 49
0.0
 74
     0
 49
-0.635
 74
     0
  0
ENDTAB
  0
TABLE
  2
LAYER
  5
2
330
0
100
AcDbSymbolTable
 70
     2
  0
LAYER
  5
10
330
2
100
AcDbSymbolTableRecord
100
AcDbLayerTableRecord
  2
0
 70
     0
 62
     7
  6
Continuous
370
    -3
390
F
  0
LAYER
  5
73
330
2
100
AcDbSymbolTableRecord
100
AcDbLayerTableRecord
  2
FORMAT
 70
     0
 62
     7
  6
Continuous
370
    -3
390
F
  0
ENDTAB
  0
TABLE
  2
STYLE
  5
3
330
0
100
AcDbSymbolTable
 70
     1
  0
STYLE
  5
11
330
3
100
AcDbSymbolTableRecord
100
AcDbTextStyleTableRecord
  2
Standard
 70
     0
 40
0.0
 41
1.0
 50
0.0
 71
     0
 42
3.5
  3
txt
  4

  0
ENDTAB
  0
TABLE
  2
VIEW
  5
6
330
0
100
AcDbSymbolTable
 70
     0
  0
ENDTAB
  0
TABLE
  2
UCS
  5
7
330
0
100
AcDbSymbolTable
 70
     0
  0
ENDTAB
  0
TABLE
  2
APPID
  5
9
330
0
100
AcDbSymbolTable
 70
     1
  0
APPID
  5
12
330
9
100
AcDbSymbolTableRecord
100
AcDbRegAppTableRecord
  2
ACAD
 70
     0
  0
ENDTAB
  0
TABLE
  2
DIMSTYLE
  5
A
330
0
100
AcDbSymbolTable
 70
     1
100
AcDbDimStyleTable
  0
DIMSTYLE
105
27
330
A
100
AcDbSymbolTableRecord
100
AcDbDimStyleTableRecord
  2
ISO-25
 70
     0
 41
2.5
 42
0.625
 43
3.75
 44
1.25
 73
     0
 74
     0
 77
     1
 78
     8
140
2.5
141
2.5
143
0.0393700787
147
0.625
171
     3
172
     1
178
     0
271
     2
272
     2
274
     3
278
    44
283
     0
284
     8
340
11
  0
ENDTAB
  0
TABLE
  2
BLOCK_RECORD
  5
1
330
0
100
AcDbSymbolTable
 70
     1
  0
BLOCK_RECORD
  5
1F
330
1
100
AcDbSymbolTableRecord
100
AcDbBlockTableRecord
  2
*Model_Space
340
22
  0
BLOCK_RECORD
  5
1B
330
1
100
AcDbSymbolTableRecord
100
AcDbBlockTableRecord
  2
*Paper_Space
340
1E
  0
BLOCK_RECORD
  5
23
330
1
100
AcDbSymbolTableRecord
100
AcDbBlockTableRecord
  2
*Paper_Space0
340
26
  0
ENDTAB
  0
ENDSEC
  0
SECTION
  2
BLOCKS
  0
BLOCK
  5
20
330
1F
100
AcDbEntity
  8
0
100
AcDbBlockBegin
  2
*Model_Space
 70
     0
 10
0.0
 20
0.0
 30
0.0
  3
*Model_Space
  1

  0
ENDBLK
  5
21
330
1F
100
AcDbEntity
  8
0
100
AcDbBlockEnd
  0
BLOCK
  5
1C
330
1B
100
AcDbEntity
 67
     1
  8
0
100
AcDbBlockBegin
  2
*Paper_Space
 70
     0
 10
0.0
 20
0.0
 30
0.0
  3
*Paper_Space
  1

  0
ENDBLK
  5
1D
330
1B
100
AcDbEntity
 67
     1
  8
0
100
AcDbBlockEnd
  0
BLOCK
  5
24
330
23
100
AcDbEntity
  8
0
100
AcDbBlockBegin
  2
*Paper_Space0
 70
     0
 10
0.0
 20
0.0
 30
0.0
  3
*Paper_Space0
  1

  0
ENDBLK
  5
25
330
23
100
AcDbEntity
  8
0
100
AcDbBlockEnd
  0
ENDSEC
  0
SECTION
  2
ENTITIES
  0
LINE
  5
74
330
1F
100
AcDbEntity
  8
0
  6
Continuous
 62
     7
370
    25
100
AcDbLine
 10
1072.2758485703
 20
737.7205120332
 30
0.0
 11
1083.7758490583
 21
737.7205120332
 31
0.0
  0
LINE
  5
75
330
1F
100
AcDbEntity
  8
0
  6
Continuous
 62
     7
370
    25
100
AcDbLine
 10
1083.7758490583
 20
737.7205120332
 30
0.0
 11
1083.7758490583
 21
750.2205112882
 31
0.0
  0
LINE
  5
76
330
1F
100
AcDbEntity
  8
0
  6
Continuous
 62
     7
370
    25
100
AcDbLine
 10
1083.7758490583
 20
750.2205112882
 30
0.0
 11
1072.2758485703
 21
750.2205112882
 31
0.0
  0
LINE
  5
77
330
1F
100
AcDbEntity
  8
0
  6
Continuous
 62
     7
370
    25
100
AcDbLine
 10
1072.2758485703
 20
750.2205112882
 30
0.0
 11
1072.2758485703
 21
737.7205120332
 31
0.0
  0
LINE
  5
78
330
1F
100
AcDbEntity
  8
0
  6
Continuous
 62
     7
370
    25
100
AcDbLine
 10
1072.2758485703
 20
708.2205113887
 30
0.0
 11
1083.9758487186
 21
708.2205113887
 31
0.0
  0
LINE
  5
79
330
1F
100
AcDbEntity
  8
0
  6
Continuous
 62
     7
370
    25
100
AcDbLine
 10
1083.9758487186
 20
708.2205113887
 30
0.0
 11
1083.9758487186
 21
718.2205116309
 31
0.0
  0
LINE
  5
7A
330
1F
100
AcDbEntity
  8
0
  6
Continuous
 62
     7
370
    25
100
AcDbLine
 10
1083.9758487186
 20
718.2205116309
 30
0.0
 11
1072.2758485703
 21
718.2205116309
 31
0.0
  0
LINE
  5
7B
330
1F
100
AcDbEntity
  8
0
  6
Continuous
 62
     7
370
    25
100
AcDbLine
 10
1072.2758485703
 20
718.2205116309
 30
0.0
 11
1072.2758485703
 21
708.2205113887
 31
0.0
  0
LINE
  5
7C
330
1F
100
AcDbEntity
  8
0
  6
Continuous
 62
     7
370
    25
100
AcDbLine
 10
1146.7275386444
 20
777.7738200433
 30
0.0
 11
1149.9751275173
 21
779.6488182552
 31
0.0
  0
LINE
  5
7D
330
1F
100
AcDbEntity
  8
0
  6
Continuous
 62
     7
370
    25
100
AcDbLine
 10
1149.9751275173
 20
779.6488182552
 30
0.0
 11
1149.9751275173
 21
783.3988146789
 31
0.0
  0
LINE
  5
7E
330
1F
100
AcDbEntity
  8
0
  6
Continuous
 62
     7
370
    25
100
AcDbLine
 10
1149.9751275173
 20
783.3988146789
 30
0.0
 11
1146.7275386444
 21
785.2738203413
 31
0.0
  0
LINE
  5
7F
330
1F
100
AcDbEntity
  8
0
  6
Continuous
 62
     7
370
    25
100
AcDbLine
 10
1146.7275386444
 20
785.2738203413
 30
0.0
 11
1143.4799423209
 21
783.3988146789
 31
0.0
  0
LINE
  5
80
330
1F
100
AcDbEntity
  8
0
  6
Continuous
 62
     7
370
    25
100
AcDbLine
 10
1143.4799423209
 20
783.3988146789
 30
0.0
 11
1143.4799423209
 21
779.6488182552
 31
0.0
  0
LINE
  5
81
330
1F
100
AcDbEntity
  8
0
  6
Continuous
 62
     7
370
    25
100
AcDbLine
 10
1143.4799423209
 20
779.6488182552
 30
0.0
 11
1146.7275386444
 21
777.7738200433
 31
0.0
  0
LINE
  5
82
330
1F
100
AcDbEntity
  8
0
  6
Continuous
 62
     7
370
    25
100
AcDbLine
 10
1161.7275392404
 20
777.7738200433
 30
0.0
 11
1164.9751281133
 21
779.6488182552
 31
0.0
  0
LINE
  5
83
330
1F
100
AcDbEntity
  8
0
  6
Continuous
 62
     7
370
    25
100
AcDbLine
 10
1164.9751281133
 20
779.6488182552
 30
0.0
 11
1164.9751281133
 21
783.3988146789
 31
0.0
  0
LINE
  5
84
330
1F
100
AcDbEntity
  8
0
  6
Continuous
 62
     7
370
    25
100
AcDbLine
 10
1164.9751281133
 20
783.3988146789
 30
0.0
 11
1161.7275392404
 21
785.2738203413
 31
0.0
  0
LINE
  5
85
330
1F
100
AcDbEntity
  8
0
  6
Continuous
 62
     7
370
    25
100
AcDbLine
 10
1161.7275392404
 20
785.2738203413
 30
0.0
 11
1158.4799429169
 21
783.3988146789
 31
0.0
  0
LINE
  5
86
330
1F
100
AcDbEntity
  8
0
  6
Continuous
 62
     7
370
    25
100
AcDbLine
 10
1158.4799429169
 20
783.3988146789
 30
0.0
 11
1158.4799429169
 21
779.6488182552
 31
0.0
  0
LINE
  5
87
330
1F
100
AcDbEntity
  8
0
  6
Continuous
 62
     7
370
    25
100
AcDbLine
 10
1158.4799429169
 20
779.6488182552
 30
0.0
 11
1161.7275392404
 21
777.7738200433
 31
0.0
  0
LINE
  5
88
330
1F
100
AcDbEntity
  8
0
  6
Continuous
 62
     7
370
    25
100
AcDbLine
 10
1131.4758499852
 20
750.9416529841
 30
0.0
 11
1135.5894719949
 21
753.3166559346
 31
0.0
  0
LINE
  5
89
330
1F
100
AcDbEntity
  8
0
  6
Continuous
 62
     7
370
    25
100
AcDbLine
 10
1135.5894719949
 20
753.3166559346
 30
0.0
 11
1135.5894719949
 21
758.0666543848
 31
0.0
  0
LINE
  5
8A
330
1F
100
AcDbEntity
  8
0
  6
Continuous
 62
     7
370
    25
100
AcDbLine
 10
1135.5894719949
 20
758.0666543848
 30
0.0
 11
1131.4758499852
 21
760.44165361
 31
0.0
  0
LINE
  5
8B
330
1F
100
AcDbEntity
  8
0
  6
Continuous
 62
     7
370
    25
100
AcDbLine
 10
1131.4758499852
 20
760.44165361
 30
0.0
 11
1127.3622279754
 21
758.0666543848
 31
0.0
  0
LINE
  5
8C
330
1F
100
AcDbEntity
  8
0
  6
Continuous
 62
     7
370
    25
100
AcDbLine
 10
1127.3622279754
 20
758.0666543848
 30
0.0
 11
1127.3622279754
 21
753.3166559346
 31
0.0
  0
LINE
  5
8D
330
1F
100
AcDbEntity
  8
0
  6
Continuous
 62
     7
370
    25
100
AcDbLine
 10
1127.3622279754
 20
753.3166559346
 30
0.0
 11
1131.4758499852
 21
750.9416529841
 31
0.0
  0
LINE
  5
8E
330
1F
100
AcDbEntity
  8
0
  6
Continuous
 62
     7
370
    25
100
AcDbLine
 10
1116.4758493891
 20
750.9416529841
 30
0.0
 11
1120.5894676736
 21
753.3166559346
 31
0.0
  0
LINE
  5
8F
330
1F
100
AcDbEntity
  8
0
  6
Continuous
 62
     7
370
    25
100
AcDbLine
 10
1120.5894676736
 20
753.3166559346
 30
0.0
 11
1120.5894676736
 21
758.0666543848
 31
0.0
  0
LINE
  5
90
330
1F
100
AcDbEntity
  8
0
  6
Continuous
 62
     7
370
    25
100
AcDbLine
 10
1120.5894676736
 20
758.0666543848
 30
0.0
 11
1116.4758493891
 21
760.44165361
 31
0.0
  0
LINE
  5
91
330
1F
100
AcDbEntity
  8
0
  6
Continuous
 62
     7
370
    25
100
AcDbLine
 10
1116.4758493891
 20
760.44165361
 30
0.0
 11
1112.3622273794
 21
758.0666543848
 31
0.0
  0
LINE
  5
92
330
1F
100
AcDbEntity
  8
0
  6
Continuous
 62
     7
370
    25
100
AcDbLine
 10
1112.3622273794
 20
758.0666543848
 30
0.0
 11
1112.3622273794
 21
753.3166559346
 31
0.0
  0
LINE
  5
93
330
1F
100
AcDbEntity
  8
0
  6
Continuous
 62
     7
370
    25
100
AcDbLine
 10
1112.3622273794
 20
753.3166559346
 30
0.0
 11
1116.4758493891
 21
750.9416529841
 31
0.0
  0
LINE
  5
94
330
1F
100
AcDbEntity
  8
0
  6
Continuous
 62
     7
370
    25
100
AcDbLine
 10
1101.4758487931
 20
750.9416529841
 30
0.0
 11
1105.5894708028
 21
753.3166559346
 31
0.0
  0
LINE
  5
95
330
1F
100
AcDbEntity
  8
0
  6
Continuous
 62
     7
370
    25
100
AcDbLine
 10
1105.5894708028
 20
753.3166559346
 30
0.0
 11
1105.5894708028
 21
758.0666543848
 31
0.0
  0
LINE
  5
96
330
1F
100
AcDbEntity
  8
0
  6
Continuous
 62
     7
370
    25
100
AcDbLine
 10
1105.5894708028
 20
758.0666543848
 30
0.0
 11
1101.4758487931
 21
760.44165361
 31
0.0
  0
LINE
  5
97
330
1F
100
AcDbEntity
  8
0
  6
Continuous
 62
     7
370
    25
100
AcDbLine
 10
1101.4758487931
 20
760.44165361
 30
0.0
 11
1097.3622267833
 21
758.0666543848
 31
0.0
  0
LINE
  5
98
330
1F
100
AcDbEntity
  8
0
  6
Continuous
 62
     7
370
    25
100
AcDbLine
 10
1097.3622267833
 20
758.0666543848
 30
0.0
 11
1097.3622267833
 21
753.3166559346
 31
0.0
  0
LINE
  5
99
330
1F
100
AcDbEntity
  8
0
  6
Continuous
 62
     7
370
    25
100
AcDbLine
 10
1097.3622267833
 20
753.3166559346
 30
0.0
 11
1101.4758487931
 21
750.9416529841
 31
0.0
  0
LINE
  5
9A
330
1F
100
AcDbEntity
  8
0
  6
Continuous
 62
     7
370
    25
100
AcDbLine
 10
1153.9758508793
 20
764.4320355661
 30
0.0
 11
1157.6564600459
 21
766.5570342846
 31
0.0
  0
LINE
  5
9B
330
1F
100
AcDbEntity
  8
0
  6
Continuous
 62
     7
370
    25
100
AcDbLine
 10
1157.6564600459
 20
766.5570342846
 30
0.0
 11
1157.6564600459
 21
770.8070354469
 31
0.0
  0
LINE
  5
9C
330
1F
100
AcDbEntity
  8
0
  6
Continuous
 62
     7
370
    25
100
AcDbLine
 10
1157.6564600459
 20
770.8070354469
 30
0.0
 11
1153.9758508793
 21
772.9320378907
 31
0.0
  0
LINE
  5
9D
330
1F
100
AcDbEntity
  8
0
  6
Continuous
 62
     7
370
    25
100
AcDbLine
 10
1153.9758508793
 20
772.9320378907
 30
0.0
 11
1150.2952417126
 21
770.8070354469
 31
0.0
  0
LINE
  5
9E
330
1F
100
AcDbEntity
  8
0
  6
Continuous
 62
     7
370
    25
100
AcDbLine
 10
1150.2952417126
 20
770.8070354469
 30
0.0
 11
1150.2952417126
 21
766.5570342846
 31
0.0
  0
LINE
  5
9F
330
1F
100
AcDbEntity
  8
0
  6
Continuous
 62
     7
370
    25
100
AcDbLine
 10
1150.2952417126
 20
766.5570342846
 30
0.0
 11
1153.9758508793
 21
764.4320355661
 31
0.0
  0
LINE
  5
A0
330
1F
100
AcDbEntity
  8
0
  6
Continuous
 62
     7
370
    25
100
AcDbLine
 10
1168.9758514753
 20
710.4705112919
 30
0.0
 11
1174.3885045639
 21
713.5955115713
 31
0.0
  0
LINE
  5
A1
330
1F
100
AcDbEntity
  8
0
  6
Continuous
 62
     7
370
    25
100
AcDbLine
 10
1174.3885045639
 20
713.5955115713
 30
0.0
 11
1174.3885045639
 21
719.8455111988
 31
0.0
  0
LINE
  5
A2
330
1F
100
AcDbEntity
  8
0
  6
Continuous
 62
     7
370
    25
100
AcDbLine
 10
1174.3885045639
 20
719.8455111988
 30
0.0
 11
1168.9758514753
 21
722.9705119438
 31
0.0
  0
LINE
  5
A3
330
1F
100
AcDbEntity
  8
0
  6
Continuous
 62
     7
370
    25
100
AcDbLine
 10
1168.9758514753
 20
722.9705119438
 30
0.0
 11
1163.5631909361
 21
719.8455111988
 31
0.0
  0
LINE
  5
A4
330
1F
100
AcDbEntity
  8
0
  6
Continuous
 62
     7
370
    25
100
AcDbLine
 10
1163.5631909361
 20
719.8455111988
 30
0.0
 11
1163.5631909361
 21
713.5955115713
 31
0.0
  0
LINE
  5
A5
330
1F
100
AcDbEntity
  8
0
  6
Continuous
 62
     7
370
    25
100
AcDbLine
 10
1163.5631909361
 20
713.5955115713
 30
0.0
 11
1168.9758514753
 21
710.4705112919
 31
0.0
  0
LINE
  5
A6
330
1F
100
AcDbEntity
  8
0
  6
Continuous
 62
     7
370
    25
100
AcDbLine
 10
1123.9758496872
 20
764.4320355661
 30
0.0
 11
1127.6564551285
 21
766.5570342846
 31
0.0
  0
LINE
  5
A7
330
1F
100
AcDbEntity
  8
0
  6
Continuous
 62
     7
370
    25
100
AcDbLine
 10
1127.6564551285
 20
766.5570342846
 30
0.0
 11
1127.6564551285
 21
770.8070354469
 31
0.0
  0
LINE
  5
A8
330
1F
100
AcDbEntity
  8
0
  6
Continuous
 62
     7
370
    25
100
AcDbLine
 10
1127.6564551285
 20
770.8070354469
 30
0.0
 11
1123.9758496872
 21
772.9320378907
 31
0.0
  0
LINE
  5
A9
330
1F
100
AcDbEntity
  8
0
  6
Continuous
 62
     7
370
    25
100
AcDbLine
 10
1123.9758496872
 20
772.9320378907
 30
0.0
 11
1120.2952405205
 21
770.8070354469
 31
0.0
  0
LINE
  5
AA
330
1F
100
AcDbEntity
  8
0
  6
Continuous
 62
     7
370
    25
100
AcDbLine
 10
1120.2952405205
 20
770.8070354469
 30
0.0
 11
1120.2952405205
 21
766.5570342846
 31
0.0
  0
LINE
  5
AB
330
1F
100
AcDbEntity
  8
0
  6
Continuous
 62
     7
370
    25
100
AcDbLine
 10
1120.2952405205
 20
766.5570342846
 30
0.0
 11
1123.9758496872
 21
764.4320355661
 31
0.0
  0
LINE
  5
AC
330
1F
100
AcDbEntity
  8
0
  6
Continuous
 62
     7
370
    25
100
AcDbLine
 10
1146.4758505812
 20
723.9608915455
 30
0.0
 11
1151.4554982772
 21
726.8358917839
 31
0.0
  0
LINE
  5
AD
330
1F
100
AcDbEntity
  8
0
  6
Continuous
 62
     7
370
    25
100
AcDbLine
 10
1151.4554982772
 20
726.8358917839
 30
0.0
 11
1151.4554982772
 21
732.5858922608
 31
0.0
  0
LINE
  5
AE
330
1F
100
AcDbEntity
  8
0
  6
Continuous
 62
     7
370
    25
100
AcDbLine
 10
1151.4554982772
 20
732.5858922608
 30
0.0
 11
1146.4758505812
 21
735.4608924992
 31
0.0
  0
LINE
  5
AF
330
1F
100
AcDbEntity
  8
0
  6
Continuous
 62
     7
370
    25
100
AcDbLine
 10
1146.4758505812
 20
735.4608924992
 30
0.0
 11
1141.4962028852
 21
732.5858922608
 31
0.0
  0
LINE
  5
B0
330
1F
100
AcDbEntity
  8
0
  6
Continuous
 62
     7
370
    25
100
AcDbLine
 10
1141.4962028852
 20
732.5858922608
 30
0.0
 11
1141.4962028852
 21
726.8358917839
 31
0.0
  0
LINE
  5
B1
330
1F
100
AcDbEntity
  8
0
  6
Continuous
 62
     7
370
    25
100
AcDbLine
 10
1141.4962028852
 20
726.8358917839
 30
0.0
 11
1146.4758505812
 21
723.9608915455
 31
0.0
  0
LINE
  5
B2
330
1F
100
AcDbEntity
  8
0
  6
Continuous
 62
     7
370
    25
100
AcDbLine
 10
1131.4758499852
 20
723.9608915455
 30
0.0
 11
1136.4554976812
 21
726.8358917839
 31
0.0
  0
LINE
  5
B3
330
1F
100
AcDbEntity
  8
0
  6
Continuous
 62
     7
370
    25
100
AcDbLine
 10
1136.4554976812
 20
726.8358917839
 30
0.0
 11
1136.4554976812
 21
732.5858922608
 31
0.0
  0
LINE
  5
B4
330
1F
100
AcDbEntity
  8
0
  6
Continuous
 62
     7
370
    25
100
AcDbLine
 10
1136.4554976812
 20
732.5858922608
 30
0.0
 11
1131.4758499852
 21
735.4608924992
 31
0.0
  0
LINE
  5
B5
330
1F
100
AcDbEntity
  8
0
  6
Continuous
 62
     7
370
    25
100
AcDbLine
 10
1131.4758499852
 20
735.4608924992
 30
0.0
 11
1126.4962022892
 21
732.5858922608
 31
0.0
  0
LINE
  5
B6
330
1F
100
AcDbEntity
  8
0
  6
Continuous
 62
     7
370
    25
100
AcDbLine
 10
1126.4962022892
 20
732.5858922608
 30
0.0
 11
1126.4962022892
 21
726.8358917839
 31
0.0
  0
LINE
  5
B7
330
1F
100
AcDbEntity
  8
0
  6
Continuous
 62
     7
370
    25
100
AcDbLine
 10
1126.4962022892
 20
726.8358917839
 30
0.0
 11
1131.4758499852
 21
723.9608915455
 31
0.0
  0
LINE
  5
B8
330
1F
100
AcDbEntity
  8
0
  6
Continuous
 62
     7
370
    25
100
AcDbLine
 10
1154.2275389424
 20
791.2641989
 30
0.0
 11
1157.0421149722
 21
792.8892003305
 31
0.0
  0
LINE
  5
B9
330
1F
100
AcDbEntity
  8
0
  6
Continuous
 62
     7
370
    25
100
AcDbLine
 10
1157.0421149722
 20
792.8892003305
 30
0.0
 11
1157.0421149722
 21
796.1391957409
 31
0.0
  0
LINE
  5
BA
330
1F
100
AcDbEntity
  8
0
  6
Continuous
 62
     7
370
    25
100
AcDbLine
 10
1157.0421149722
 20
796.1391957409
 30
0.0
 11
1154.2275389424
 21
797.7641971714
 31
0.0
  0
LINE
  5
BB
330
1F
100
AcDbEntity
  8
0
  6
Continuous
 62
     7
370
    25
100
AcDbLine
 10
1154.2275389424
 20
797.7641971714
 30
0.0
 11
1151.412955462
 21
796.1391957409
 31
0.0
  0
LINE
  5
BC
330
1F
100
AcDbEntity
  8
0
  6
Continuous
 62
     7
370
    25
100
AcDbLine
 10
1151.412955462
 20
796.1391957409
 30
0.0
 11
1151.412955462
 21
792.8892003305
 31
0.0
  0
LINE
  5
BD
330
1F
100
AcDbEntity
  8
0
  6
Continuous
 62
     7
370
    25
100
AcDbLine
 10
1151.412955462
 20
792.8892003305
 30
0.0
 11
1154.2275389424
 21
791.2641989
 31
0.0
  0
LINE
  5
BE
330
1F
100
AcDbEntity
  8
0
  6
Continuous
 62
     7
370
    25
100
AcDbLine
 10
1108.9758490911
 20
710.4705112919
 30
0.0
 11
1114.388505905
 21
713.5955115713
 31
0.0
  0
LINE
  5
BF
330
1F
100
AcDbEntity
  8
0
  6
Continuous
 62
     7
370
    25
100
AcDbLine
 10
1114.388505905
 20
713.5955115713
 30
0.0
 11
1114.388505905
 21
719.8455111988
 31
0.0
  0
LINE
  5
C0
330
1F
100
AcDbEntity
  8
0
  6
Continuous
 62
     7
370
    25
100
AcDbLine
 10
1114.388505905
 20
719.8455111988
 30
0.0
 11
1108.9758490911
 21
722.9705119438
 31
0.0
  0
LINE
  5
C1
330
1F
100
AcDbEntity
  8
0
  6
Continuous
 62
     7
370
    25
100
AcDbLine
 10
1108.9758490911
 20
722.9705119438
 30
0.0
 11
1103.563188552
 21
719.8455111988
 31
0.0
  0
LINE
  5
C2
330
1F
100
AcDbEntity
  8
0
  6
Continuous
 62
     7
370
    25
100
AcDbLine
 10
1103.563188552
 20
719.8455111988
 30
0.0
 11
1103.563188552
 21
713.5955115713
 31
0.0
  0
LINE
  5
C3
330
1F
100
AcDbEntity
  8
0
  6
Continuous
 62
     7
370
    25
100
AcDbLine
 10
1103.563188552
 20
713.5955115713
 30
0.0
 11
1108.9758490911
 21
710.4705112919
 31
0.0
  0
LINE
  5
C4
330
1F
100
AcDbEntity
  8
0
  6
Continuous
 62
     7
370
    25
100
AcDbLine
 10
1138.9758502832
 20
710.4705112919
 30
0.0
 11
1144.3885108224
 21
713.5955115713
 31
0.0
  0
LINE
  5
C5
330
1F
100
AcDbEntity
  8
0
  6
Continuous
 62
     7
370
    25
100
AcDbLine
 10
1144.3885108224
 20
713.5955115713
 30
0.0
 11
1144.3885108224
 21
719.8455111988
 31
0.0
  0
LINE
  5
C6
330
1F
100
AcDbEntity
  8
0
  6
Continuous
 62
     7
370
    25
100
AcDbLine
 10
1144.3885108224
 20
719.8455111988
 30
0.0
 11
1138.9758502832
 21
722.9705119438
 31
0.0
  0
LINE
  5
C7
330
1F
100
AcDbEntity
  8
0
  6
Continuous
 62
     7
370
    25
100
AcDbLine
 10
1138.9758502832
 20
722.9705119438
 30
0.0
 11
1133.5631897441
 21
719.8455111988
 31
0.0
  0
LINE
  5
C8
330
1F
100
AcDbEntity
  8
0
  6
Continuous
 62
     7
370
    25
100
AcDbLine
 10
1133.5631897441
 20
719.8455111988
 30
0.0
 11
1133.5631897441
 21
713.5955115713
 31
0.0
  0
LINE
  5
C9
330
1F
100
AcDbEntity
  8
0
  6
Continuous
 62
     7
370
    25
100
AcDbLine
 10
1133.5631897441
 20
713.5955115713
 30
0.0
 11
1138.9758502832
 21
710.4705112919
 31
0.0
  0
LINE
  5
CA
330
1F
100
AcDbEntity
  8
0
  6
Continuous
 62
     7
370
    25
100
AcDbLine
 10
1153.9758508793
 20
710.4705112919
 30
0.0
 11
1159.3885039678
 21
713.5955115713
 31
0.0
  0
LINE
  5
CB
330
1F
100
AcDbEntity
  8
0
  6
Continuous
 62
     7
370
    25
100
AcDbLine
 10
1159.3885039678
 20
713.5955115713
 30
0.0
 11
1159.3885039678
 21
719.8455111988
 31
0.0
  0
LINE
  5
CC
330
1F
100
AcDbEntity
  8
0
  6
Continuous
 62
     7
370
    25
100
AcDbLine
 10
1159.3885039678
 20
719.8455111988
 30
0.0
 11
1153.9758508793
 21
722.9705119438
 31
0.0
  0
LINE
  5
CD
330
1F
100
AcDbEntity
  8
0
  6
Continuous
 62
     7
370
    25
100
AcDbLine
 10
1153.9758508793
 20
722.9705119438
 30
0.0
 11
1148.5631903401
 21
719.8455111988
 31
0.0
  0
LINE
  5
CE
330
1F
100
AcDbEntity
  8
0
  6
Continuous
 62
     7
370
    25
100
AcDbLine
 10
1148.5631903401
 20
719.8455111988
 30
0.0
 11
1148.5631903401
 21
713.5955115713
 31
0.0
  0
LINE
  5
CF
330
1F
100
AcDbEntity
  8
0
  6
Continuous
 62
     7
370
    25
100
AcDbLine
 10
1148.5631903401
 20
713.5955115713
 30
0.0
 11
1153.9758508793
 21
710.4705112919
 31
0.0
  0
LINE
  5
D0
330
1F
100
AcDbEntity
  8
0
  6
Continuous
 62
     7
370
    25
100
AcDbLine
 10
1146.4758505812
 20
750.9416529841
 30
0.0
 11
1150.589472591
 21
753.3166559346
 31
0.0
  0
LINE
  5
D1
330
1F
100
AcDbEntity
  8
0
  6
Continuous
 62
     7
370
    25
100
AcDbLine
 10
1150.589472591
 20
753.3166559346
 30
0.0
 11
1150.589472591
 21
758.0666543848
 31
0.0
  0
LINE
  5
D2
330
1F
100
AcDbEntity
  8
0
  6
Continuous
 62
     7
370
    25
100
AcDbLine
 10
1150.589472591
 20
758.0666543848
 30
0.0
 11
1146.4758505812
 21
760.44165361
 31
0.0
  0
LINE
  5
D3
330
1F
100
AcDbEntity
  8
0
  6
Continuous
 62
     7
370
    25
100
AcDbLine
 10
1146.4758505812
 20
760.44165361
 30
0.0
 11
1142.3622285715
 21
758.0666543848
 31
0.0
  0
LINE
  5
D4
330
1F
100
AcDbEntity
  8
0
  6
Continuous
 62
     7
370
    25
100
AcDbLine
 10
1142.3622285715
 20
758.0666543848
 30
0.0
 11
1142.3622285715
 21
753.3166559346
 31
0.0
  0
LINE
  5
D5
330
1F
100
AcDbEntity
  8
0
  6
Continuous
 62
     7
370
    25
100
AcDbLine
 10
1142.3622285715
 20
753.3166559346
 30
0.0
 11
1146.4758505812
 21
750.9416529841
 31
0.0
  0
LINE
  5
D6
330
1F
100
AcDbEntity
  8
0
  6
Continuous
 62
     7
370
    25
100
AcDbLine
 10
1161.4758511773
 20
750.9416529841
 30
0.0
 11
1165.5894657364
 21
753.3166559346
 31
0.0
  0
LINE
  5
D7
330
1F
100
AcDbEntity
  8
0
  6
Continuous
 62
     7
370
    25
100
AcDbLine
 10
1165.5894657364
 20
753.3166559346
 30
0.0
 11
1165.5894657364
 21
758.0666543848
 31
0.0
  0
LINE
  5
D8
330
1F
100
AcDbEntity
  8
0
  6
Continuous
 62
     7
370
    25
100
AcDbLine
 10
1165.5894657364
 20
758.0666543848
 30
0.0
 11
1161.4758511773
 21
760.44165361
 31
0.0
  0
LINE
  5
D9
330
1F
100
AcDbEntity
  8
0
  6
Continuous
 62
     7
370
    25
100
AcDbLine
 10
1161.4758511773
 20
760.44165361
 30
0.0
 11
1157.3622291675
 21
758.0666543848
 31
0.0
  0
LINE
  5
DA
330
1F
100
AcDbEntity
  8
0
  6
Continuous
 62
     7
370
    25
100
AcDbLine
 10
1157.3622291675
 20
758.0666543848
 30
0.0
 11
1157.3622291675
 21
753.3166559346
 31
0.0
  0
LINE
  5
DB
330
1F
100
AcDbEntity
  8
0
  6
Continuous
 62
     7
370
    25
100
AcDbLine
 10
1157.3622291675
 20
753.3166559346
 30
0.0
 11
1161.4758511773
 21
750.9416529841
 31
0.0
  0
LINE
  5
DC
330
1F
100
AcDbEntity
  8
0
  6
Continuous
 62
     7
370
    25
100
AcDbLine
 10
1108.9758490911
 20
737.4512741275
 30
0.0
 11
1113.5224802187
 21
740.0762738593
 31
0.0
  0
LINE
  5
DD
330
1F
100
AcDbEntity
  8
0
  6
Continuous
 62
     7
370
    25
100
AcDbLine
 10
1113.5224802187
 20
740.0762738593
 30
0.0
 11
1113.5224802187
 21
745.3262733228
 31
0.0
  0
LINE
  5
DE
330
1F
100
AcDbEntity
  8
0
  6
Continuous
 62
     7
370
    25
100
AcDbLine
 10
1113.5224802187
 20
745.3262733228
 30
0.0
 11
1108.9758490911
 21
747.9512730546
 31
0.0
  0
LINE
  5
DF
330
1F
100
AcDbEntity
  8
0
  6
Continuous
 62
     7
370
    25
100
AcDbLine
 10
1108.9758490911
 20
747.9512730546
 30
0.0
 11
1104.4292142382
 21
745.3262733228
 31
0.0
  0
LINE
  5
E0
330
1F
100
AcDbEntity
  8
0
  6
Continuous
 62
     7
370
    25
100
AcDbLine
 10
1104.4292142382
 20
745.3262733228
 30
0.0
 11
1104.4292142382
 21
740.0762738593
 31
0.0
  0
LINE
  5
E1
330
1F
100
AcDbEntity
  8
0
  6
Continuous
 62
     7
370
    25
100
AcDbLine
 10
1104.4292142382
 20
740.0762738593
 30
0.0
 11
1108.9758490911
 21
737.4512741275
 31
0.0
  0
LINE
  5
E2
330
1F
100
AcDbEntity
  8
0
  6
Continuous
 62
     7
370
    25
100
AcDbLine
 10
1138.9758502832
 20
737.4512741275
 30
0.0
 11
1143.5224851361
 21
740.0762738593
 31
0.0
  0
LINE
  5
E3
330
1F
100
AcDbEntity
  8
0
  6
Continuous
 62
     7
370
    25
100
AcDbLine
 10
1143.5224851361
 20
740.0762738593
 30
0.0
 11
1143.5224851361
 21
745.3262733228
 31
0.0
  0
LINE
  5
E4
330
1F
100
AcDbEntity
  8
0
  6
Continuous
 62
     7
370
    25
100
AcDbLine
 10
1143.5224851361
 20
745.3262733228
 30
0.0
 11
1138.9758502832
 21
747.9512730546
 31
0.0
  0
LINE
  5
E5
330
1F
100
AcDbEntity
  8
0
  6
Continuous
 62
     7
370
    25
100
AcDbLine
 10
1138.9758502832
 20
747.9512730546
 30
0.0
 11
1134.4292154303
 21
745.3262733228
 31
0.0
  0
LINE
  5
E6
330
1F
100
AcDbEntity
  8
0
  6
Continuous
 62
     7
370
    25
100
AcDbLine
 10
1134.4292154303
 20
745.3262733228
 30
0.0
 11
1134.4292154303
 21
740.0762738593
 31
0.0
  0
LINE
  5
E7
330
1F
100
AcDbEntity
  8
0
  6
Continuous
 62
     7
370
    25
100
AcDbLine
 10
1134.4292154303
 20
740.0762738593
 30
0.0
 11
1138.9758502832
 21
737.4512741275
 31
0.0
  0
LINE
  5
E8
330
1F
100
AcDbEntity
  8
0
  6
Continuous
 62
     7
370
    25
100
AcDbLine
 10
1153.9758508793
 20
737.4512741275
 30
0.0
 11
1158.5224857321
 21
740.0762738593
 31
0.0
  0
LINE
  5
E9
330
1F
100
AcDbEntity
  8
0
  6
Continuous
 62
     7
370
    25
100
AcDbLine
 10
1158.5224857321
 20
740.0762738593
 30
0.0
 11
1158.5224857321
 21
745.3262733228
 31
0.0
  0
LINE
  5
EA
330
1F
100
AcDbEntity
  8
0
  6
Continuous
 62
     7
370
    25
100
AcDbLine
 10
1158.5224857321
 20
745.3262733228
 30
0.0
 11
1153.9758508793
 21
747.9512730546
 31
0.0
  0
LINE
  5
EB
330
1F
100
AcDbEntity
  8
0
  6
Continuous
 62
     7
370
    25
100
AcDbLine
 10
1153.9758508793
 20
747.9512730546
 30
0.0
 11
1149.4292160264
 21
745.3262733228
 31
0.0
  0
LINE
  5
EC
330
1F
100
AcDbEntity
  8
0
  6
Continuous
 62
     7
370
    25
100
AcDbLine
 10
1149.4292160264
 20
745.3262733228
 30
0.0
 11
1149.4292160264
 21
740.0762738593
 31
0.0
  0
LINE
  5
ED
330
1F
100
AcDbEntity
  8
0
  6
Continuous
 62
     7
370
    25
100
AcDbLine
 10
1149.4292160264
 20
740.0762738593
 30
0.0
 11
1153.9758508793
 21
737.4512741275
 31
0.0
  0
LINE
  5
EE
330
1F
100
AcDbEntity
  8
0
  6
Continuous
 62
     7
370
    25
100
AcDbLine
 10
1168.9758514753
 20
737.4512741275
 30
0.0
 11
1173.5224788776
 21
740.0762738593
 31
0.0
  0
LINE
  5
EF
330
1F
100
AcDbEntity
  8
0
  6
Continuous
 62
     7
370
    25
100
AcDbLine
 10
1173.5224788776
 20
740.0762738593
 30
0.0
 11
1173.5224788776
 21
745.3262733228
 31
0.0
  0
LINE
  5
F0
330
1F
100
AcDbEntity
  8
0
  6
Continuous
 62
     7
370
    25
100
AcDbLine
 10
1173.5224788776
 20
745.3262733228
 30
0.0
 11
1168.9758514753
 21
747.9512730546
 31
0.0
  0
LINE
  5
F1
330
1F
100
AcDbEntity
  8
0
  6
Continuous
 62
     7
370
    25
100
AcDbLine
 10
1168.9758514753
 20
747.9512730546
 30
0.0
 11
1164.4292166224
 21
745.3262733228
 31
0.0
  0
LINE
  5
F2
330
1F
100
AcDbEntity
  8
0
  6
Continuous
 62
     7
370
    25
100
AcDbLine
 10
1164.4292166224
 20
745.3262733228
 30
0.0
 11
1164.4292166224
 21
740.0762738593
 31
0.0
  0
LINE
  5
F3
330
1F
100
AcDbEntity
  8
0
  6
Continuous
 62
     7
370
    25
100
AcDbLine
 10
1164.4292166224
 20
740.0762738593
 30
0.0
 11
1168.9758514753
 21
737.4512741275
 31
0.0
  0
LINE
  5
F4
330
1F
100
AcDbEntity
  8
0
  6
Continuous
 62
     7
370
    25
100
AcDbLine
 10
1101.4758487931
 20
723.9608915455
 30
0.0
 11
1106.4554964891
 21
726.8358917839
 31
0.0
  0
LINE
  5
F5
330
1F
100
AcDbEntity
  8
0
  6
Continuous
 62
     7
370
    25
100
AcDbLine
 10
1106.4554964891
 20
726.8358917839
 30
0.0
 11
1106.4554964891
 21
732.5858922608
 31
0.0
  0
LINE
  5
F6
330
1F
100
AcDbEntity
  8
0
  6
Continuous
 62
     7
370
    25
100
AcDbLine
 10
1106.4554964891
 20
732.5858922608
 30
0.0
 11
1101.4758487931
 21
735.4608924992
 31
0.0
  0
LINE
  5
F7
330
1F
100
AcDbEntity
  8
0
  6
Continuous
 62
     7
370
    25
100
AcDbLine
 10
1101.4758487931
 20
735.4608924992
 30
0.0
 11
1096.4962029597
 21
732.5858922608
 31
0.0
  0
LINE
  5
F8
330
1F
100
AcDbEntity
  8
0
  6
Continuous
 62
     7
370
    25
100
AcDbLine
 10
1096.4962029597
 20
732.5858922608
 30
0.0
 11
1096.4962029597
 21
726.8358917839
 31
0.0
  0
LINE
  5
F9
330
1F
100
AcDbEntity
  8
0
  6
Continuous
 62
     7
370
    25
100
AcDbLine
 10
1096.4962029597
 20
726.8358917839
 30
0.0
 11
1101.4758487931
 21
723.9608915455
 31
0.0
  0
LINE
  5
FA
330
1F
100
AcDbEntity
  8
0
  6
Continuous
 62
     7
370
    25
100
AcDbLine
 10
1116.4758493891
 20
723.9608915455
 30
0.0
 11
1121.4554933599
 21
726.8358917839
 31
0.0
  0
LINE
  5
FB
330
1F
100
AcDbEntity
  8
0
  6
Continuous
 62
     7
370
    25
100
AcDbLine
 10
1121.4554933599
 20
726.8358917839
 30
0.0
 11
1121.4554933599
 21
732.5858922608
 31
0.0
  0
LINE
  5
FC
330
1F
100
AcDbEntity
  8
0
  6
Continuous
 62
     7
370
    25
100
AcDbLine
 10
1121.4554933599
 20
732.5858922608
 30
0.0
 11
1116.4758493891
 21
735.4608924992
 31
0.0
  0
LINE
  5
FD
330
1F
100
AcDbEntity
  8
0
  6
Continuous
 62
     7
370
    25
100
AcDbLine
 10
1116.4758493891
 20
735.4608924992
 30
0.0
 11
1111.4962016931
 21
732.5858922608
 31
0.0
  0
LINE
  5
FE
330
1F
100
AcDbEntity
  8
0
  6
Continuous
 62
     7
370
    25
100
AcDbLine
 10
1111.4962016931
 20
732.5858922608
 30
0.0
 11
1111.4962016931
 21
726.8358917839
 31
0.0
  0
LINE
  5
FF
330
1F
100
AcDbEntity
  8
0
  6
Continuous
 62
     7
370
    25
100
AcDbLine
 10
1111.4962016931
 20
726.8358917839
 30
0.0
 11
1116.4758493891
 21
723.9608915455
 31
0.0
  0
LINE
  5
100
330
1F
100
AcDbEntity
  8
0
  6
Continuous
 62
     7
370
    25
100
AcDbLine
 10
1068.3758486761
 20
830.8990823038
 30
0.0
 11
1178.3758466831
 21
830.8990823038
 31
0.0
  0
LINE
  5
101
330
1F
100
AcDbEntity
  8
0
  6
Continuous
 62
     7
370
    25
100
AcDbLine
 10
1178.3758466831
 20
798.5062228448
 30
0.0
 11
1178.3758466831
 21
777.0776526935
 31
0.0
  0
LINE
  5
102
330
1F
100
AcDbEntity
  8
0
  6
Continuous
 62
     7
370
    25
100
AcDbLine
 10
1181.3758453122
 20
777.0776526935
 30
0.0
 11
1178.3758466831
 21
777.0776526935
 31
0.0
  0
LINE
  5
103
330
1F
100
AcDbEntity
  8
0
  6
Continuous
 62
     7
370
    25
100
AcDbLine
 10
1181.3758453122
 20
755.6490825422
 30
0.0
 11
1181.3758453122
 21
777.0776526935
 31
0.0
  0
LINE
  5
104
330
1F
100
AcDbEntity
  8
0
  6
Continuous
 62
     7
370
    25
100
AcDbLine
 10
1181.3758453122
 20
755.6490825422
 30
0.0
 11
1178.3758466831
 21
755.6490825422
 31
0.0
  0
LINE
  5
105
330
1F
100
AcDbEntity
  8
0
  6
Continuous
 62
     7
370
    25
100
AcDbLine
 10
1178.3758466831
 20
755.6490825422
 30
0.0
 11
1178.3758466831
 21
734.2205105282
 31
0.0
  0
LINE
  5
106
330
1F
100
AcDbEntity
  8
0
  6
Continuous
 62
     7
370
    25
100
AcDbLine
 10
1181.3758453122
 20
734.2205105282
 30
0.0
 11
1178.3758466831
 21
734.2205105282
 31
0.0
  0
LINE
  5
107
330
1F
100
AcDbEntity
  8
0
  6
Continuous
 62
     7
370
    25
100
AcDbLine
 10
1181.3758453122
 20
704.2205111988
 30
0.0
 11
1181.3758453122
 21
734.2205105282
 31
0.0
  0
LINE
  5
108
330
1F
100
AcDbEntity
  8
0
  6
Continuous
 62
     7
370
    25
100
AcDbLine
 10
1166.9529890409
 20
704.2205111988
 30
0.0
 11
1181.3758453122
 21
704.2205111988
 31
0.0
  0
LINE
  5
109
330
1F
100
AcDbEntity
  8
0
  6
Continuous
 62
     7
370
    25
100
AcDbLine
 10
1166.9529890409
 20
704.2205111988
 30
0.0
 11
1166.9529890409
 21
701.2205111727
 31
0.0
  0
LINE
  5
10A
330
1F
100
AcDbEntity
  8
0
  6
Continuous
 62
     7
370
    25
100
AcDbLine
 10
1149.5244195452
 20
701.2205111727
 30
0.0
 11
1166.9529890409
 21
701.2205111727
 31
0.0
  0
LINE
  5
10B
330
1F
100
AcDbEntity
  8
0
  6
Continuous
 62
     7
370
    25
100
AcDbLine
 10
1149.5244195452
 20
704.2205111988
 30
0.0
 11
1149.5244195452
 21
701.2205111727
 31
0.0
  0
LINE
  5
10C
330
1F
100
AcDbEntity
  8
0
  6
Continuous
 62
     7
370
    25
100
AcDbLine
 10
1132.0929890266
 20
704.2205111988
 30
0.0
 11
1149.5244195452
 21
704.2205111988
 31
0.0
  0
LINE
  5
10D
330
1F
100
AcDbEntity
  8
0
  6
Continuous
 62
     7
370
    25
100
AcDbLine
 10
1132.0929890266
 20
704.2205111988
 30
0.0
 11
1132.0929890266
 21
701.2205111727
 31
0.0
  0
LINE
  5
10E
330
1F
100
AcDbEntity
  8
0
  6
Continuous
 62
     7
370
    25
100
AcDbLine
 10
1114.6644195309
 20
701.2205111727
 30
0.0
 11
1132.0929890266
 21
701.2205111727
 31
0.0
  0
LINE
  5
10F
330
1F
100
AcDbEntity
  8
0
  6
Continuous
 62
     7
370
    25
100
AcDbLine
 10
1114.6644195309
 20
704.2205111988
 30
0.0
 11
1114.6644195309
 21
701.2205111727
 31
0.0
  0
LINE
  5
110
330
1F
100
AcDbEntity
  8
0
  6
Continuous
 62
     7
370
    25
100
AcDbLine
 10
1097.2329927376
 20
704.2205111988
 30
0.0
 11
1114.6644195309
 21
704.2205111988
 31
0.0
  0
LINE
  5
111
330
1F
100
AcDbEntity
  8
0
  6
Continuous
 62
     7
370
    25
100
AcDbLine
 10
1097.2329927376
 20
704.2205111988
 30
0.0
 11
1097.2329927376
 21
701.2205111727
 31
0.0
  0
LINE
  5
112
330
1F
100
AcDbEntity
  8
0
  6
Continuous
 62
     7
370
    25
100
AcDbLine
 10
1079.8044204479
 20
701.2205111727
 30
0.0
 11
1097.2329927376
 21
701.2205111727
 31
0.0
  0
LINE
  5
113
330
1F
100
AcDbEntity
  8
0
  6
Continuous
 62
     7
370
    25
100
AcDbLine
 10
1079.8044204479
 20
704.2205111988
 30
0.0
 11
1079.8044204479
 21
701.2205111727
 31
0.0
  0
LINE
  5
114
330
1F
100
AcDbEntity
  8
0
  6
Continuous
 62
     7
370
    25
100
AcDbLine
 10
1065.37584865
 20
704.2205111988
 30
0.0
 11
1079.8044204479
 21
704.2205111988
 31
0.0
  0
LINE
  5
115
330
1F
100
AcDbEntity
  8
0
  6
Continuous
 62
     7
370
    25
100
AcDbLine
 10
1065.37584865
 20
704.2205111988
 30
0.0
 11
1065.37584865
 21
734.2205105282
 31
0.0
  0
LINE
  5
116
330
1F
100
AcDbEntity
  8
0
  6
Continuous
 62
     7
370
    25
100
AcDbLine
 10
1065.37584865
 20
734.2205105282
 30
0.0
 11
1068.3758486761
 21
734.2205105282
 31
0.0
  0
LINE
  5
117
330
1F
100
AcDbEntity
  8
0
  6
Continuous
 62
     7
370
    25
100
AcDbLine
 10
1068.3758486761
 20
755.6490825422
 30
0.0
 11
1068.3758486761
 21
734.2205105282
 31
0.0
  0
LINE
  5
118
330
1F
100
AcDbEntity
  8
0
  6
Continuous
 62
     7
370
    25
100
AcDbLine
 10
1065.37584865
 20
755.6490825422
 30
0.0
 11
1068.3758486761
 21
755.6490825422
 31
0.0
  0
LINE
  5
119
330
1F
100
AcDbEntity
  8
0
  6
Continuous
 62
     7
370
    25
100
AcDbLine
 10
1065.37584865
 20
755.6490825422
 30
0.0
 11
1065.37584865
 21
777.0776526935
 31
0.0
  0
LINE
  5
11A
330
1F
100
AcDbEntity
  8
0
  6
Continuous
 62
     7
370
    25
100
AcDbLine
 10
1065.37584865
 20
777.0776526935
 30
0.0
 11
1068.3758486761
 21
777.0776526935
 31
0.0
  0
LINE
  5
11B
330
1F
100
AcDbEntity
  8
0
  6
Continuous
 62
     7
370
    25
100
AcDbLine
 10
1068.3758486761
 20
798.5062228448
 30
0.0
 11
1068.3758486761
 21
777.0776526935
 31
0.0
  0
LINE
  5
11C
330
1F
100
AcDbEntity
  8
0
  6
Continuous
 62
     7
370
    25
100
AcDbLine
 10
1065.37584865
 20
798.5062228448
 30
0.0
 11
1068.3758486761
 21
798.5062228448
 31
0.0
  0
LINE
  5
11D
330
1F
100
AcDbEntity
  8
0
  6
Continuous
 62
     7
370
    25
100
AcDbLine
 10
1065.37584865
 20
798.5062228448
 30
0.0
 11
1065.37584865
 21
819.9348004467
 31
0.0
  0
LINE
  5
11E
330
1F
100
AcDbEntity
  8
0
  6
Continuous
 62
     7
370
    25
100
AcDbLine
 10
1065.37584865
 20
819.9348004467
 30
0.0
 11
1068.3758486761
 21
819.9348004467
 31
0.0
  0
LINE
  5
11F
330
1F
100
AcDbEntity
  8
0
  6
Continuous
 62
     7
370
    25
100
AcDbLine
 10
1068.3758486761
 20
830.8990823038
 30
0.0
 11
1068.3758486761
 21
819.9348004467
 31
0.0
  0
LINE
  5
120
330
1F
100
AcDbEntity
  8
0
  6
Continuous
 62
     7
370
    25
100
AcDbLine
 10
1178.3758466831
 20
830.8990823038
 30
0.0
 11
1178.3758466831
 21
819.9348004467
 31
0.0
  0
LINE
  5
121
330
1F
100
AcDbEntity
  8
0
  6
Continuous
 62
     7
370
    25
100
AcDbLine
 10
1181.3758453122
 20
819.9348004467
 30
0.0
 11
1178.3758466831
 21
819.9348004467
 31
0.0
  0
LINE
  5
122
330
1F
100
AcDbEntity
  8
0
  6
Continuous
 62
     7
370
    25
100
AcDbLine
 10
1181.3758453122
 20
798.5062228448
 30
0.0
 11
1181.3758453122
 21
819.9348004467
 31
0.0
  0
LINE
  5
123
330
1F
100
AcDbEntity
  8
0
  6
Continuous
 62
     7
370
    25
100
AcDbLine
 10
1181.3758453122
 20
798.5062228448
 30
0.0
 11
1178.3758466831
 21
798.5062228448
 31
0.0
  0
LINE
  5
124
330
1F
100
AcDbEntity
  8
0
  6
Continuous
 62
     7
370
    25
100
AcDbLine
 10
733.626759357
 20
588.7119322752
 30
0.0
 11
733.626759357
 21
591.7119323013
 31
0.0
  0
LINE
  5
125
330
1F
100
AcDbEntity
  8
0
  6
Continuous
 62
     7
370
    25
100
AcDbLine
 10
722.9124742813
 20
591.7119323013
 30
0.0
 11
733.626759357
 21
591.7119323013
 31
0.0
  0
LINE
  5
126
330
1F
100
AcDbEntity
  8
0
  6
Continuous
 62
     7
370
    25
100
AcDbLine
 10
722.9124742813
 20
591.7119323013
 30
0.0
 11
722.9124742813
 21
701.7119303083
 31
0.0
  0
LINE
  5
127
330
1F
100
AcDbEntity
  8
0
  6
Continuous
 62
     7
370
    25
100
AcDbLine
 10
722.9124742813
 20
701.7119303083
 30
0.0
 11
733.626759357
 21
701.7119303083
 31
0.0
  0
LINE
  5
128
330
1F
100
AcDbEntity
  8
0
  6
Continuous
 62
     7
370
    25
100
AcDbLine
 10
733.626759357
 20
704.7119289374
 30
0.0
 11
733.626759357
 21
701.7119303083
 31
0.0
  0
LINE
  5
129
330
1F
100
AcDbEntity
  8
0
  6
Continuous
 62
     7
370
    25
100
AcDbLine
 10
750.9024727411
 20
588.7119322752
 30
0.0
 11
750.9024727411
 21
704.7119289374
 31
0.0
  0
LINE
  5
12A
330
1F
100
AcDbEntity
  8
0
  6
Continuous
 62
     7
370
    25
100
AcDbLine
 10
750.9024727411
 20
588.7119322752
 30
0.0
 11
733.626759357
 21
588.7119322752
 31
0.0
  0
LINE
  5
12B
330
1F
100
AcDbEntity
  8
0
  6
Continuous
 62
     7
370
    25
100
AcDbLine
 10
750.9024727411
 20
704.7119289374
 30
0.0
 11
733.626759357
 21
704.7119289374
 31
0.0
  0
SPLINE
  5
12C
330
1F
100
AcDbEntity
  8
0
  6
Continuous
 62
     7
370
    25
100
AcDbSpline
210
0.0
220
0.0
230
1.0
 70
     8
 71
     3
 72
    19
 73
    15
 74
     0
 42
0.000000001
 43
0.00000001
 40
0.0
 40
0.0
 40
0.0
 40
0.0
 40
0.0602873979279713
 40
0.1196023547075218
 40
0.1775033710185412
 40
0.2351426637323305
 40
0.292132593226934
 40
0.3508712086415661
 40
0.4100978625665943
 40
0.4707315215304501
 40
0.5948287040804157
 40
0.7225788240942908
 40
0.8566913895440167
 40
1.0
 40
1.0
 40
1.0
 40
1.0
 10
865.964120315247
 20
607.0491703672961
 30
0.0
 10
865.9361601456586
 20
607.0487529238335
 30
0.0
 10
865.8806908065313
 20
607.0479247703091
 30
0.0
 10
865.7991752227591
 20
607.0354355072698
 30
0.0
 10
865.7202146762082
 20
607.0172716803197
 30
0.0
 10
865.6435947590467
 20
606.9937896314734
 30
0.0
 10
865.5707007257589
 20
606.9595911514667
 30
0.0
 10
865.5000909036021
 20
606.9196669703099
 30
0.0
 10
865.4316719525685
 20
606.8728562797281
 30
0.0
 10
865.3451724741392
 20
606.7999156956188
 30
0.0
 10
865.2455122284399
 20
606.6938223380707
 30
0.0
 10
865.1479376714416
 20
606.5430751894844
 30
0.0
 10
865.0692463440594
 20
606.3716670723165
 30
0.0
 10
865.0358340405476
 20
606.2473469342475
 30
0.0
 10
865.018574107982
 20
606.1831263635568
 30
0.0
  0
SPLINE
  5
12D
330
1F
100
AcDbEntity
  8
0
  6
Continuous
 62
     7
370
    25
100
AcDbSpline
210
0.0
220
0.0
230
1.0
 70
     8
 71
     3
 72
    23
 73
    19
 74
     0
 42
0.000000001
 43
0.00000001
 40
0.0
 40
0.0
 40
0.0
 40
0.0
 40
0.0725024889330341
 40
0.1397389892678942
 40
0.2017951348259223
 40
0.2598219344148624
 40
0.3122059893845971
 40
0.3607734341243381
 40
0.4045403426007491
 40
0.443698098552763
 40
0.5168407942439696
 40
0.5878743359442812
 40
0.6579654175616308
 40
0.7289693886473118
 40
0.7993077199548836
 40
0.8666357778344713
 40
0.9331163290572742
 40
1.0
 40
1.0
 40
1.0
 40
1.0
 10
866.9234469044563
 20
605.554528941014
 30
0.0
 10
866.9228667149399
 20
605.602938507573
 30
0.0
 10
866.9217484761343
 20
605.6962415651838
 30
0.0
 10
866.918097899596
 20
605.8309541392953
 30
0.0
 10
866.9097941018128
 20
605.955811927185
 30
0.0
 10
866.8967224005355
 20
606.0702451800139
 30
0.0
 10
866.8825430785729
 20
606.1754895548247
 30
0.0
 10
866.8634760228937
 20
606.2702825105946
 30
0.0
 10
866.8416305706706
 20
606.3553924578517
 30
0.0
 10
866.8078634293154
 20
606.454080994553
 30
0.0
 10
866.7554056697143
 20
606.5652112987397
 30
0.0
 10
866.6763115416771
 20
606.6849705697036
 30
0.0
 10
866.5820846358777
 20
606.7914483042784
 30
0.0
 10
866.4730295632581
 20
606.8818681604599
 30
0.0
 10
866.3544488665927
 20
606.9559711312378
 30
0.0
 10
866.2287410160691
 20
607.0098787835665
 30
0.0
 10
866.0979831353293
 20
607.0431268645585
 30
0.0
 10
866.0088310818417
 20
607.0471518109849
 30
0.0
 10
865.964120315247
 20
607.0491703672961
 30
0.0
  0
LINE
  5
12E
330
1F
100
AcDbEntity
  8
0
  6
Continuous
 62
     7
370
    25
100
AcDbLine
 10
866.9234469483
 20
604.8782301732
 30
0.0
 11
866.9234469483
 21
605.5545289201
 31
0.0
  0
LINE
  5
12F
330
1F
100
AcDbEntity
  8
0
  6
Continuous
 62
     7
370
    25
100
AcDbLine
 10
864.956032375
 20
604.8782301732
 30
0.0
 11
866.9234469483
 21
604.8782301732
 31
0.0
  0
LINE
  5
130
330
1F
100
AcDbEntity
  8
0
  6
Continuous
 62
     7
370
    25
100
AcDbLine
 10
864.956032375
 20
605.1930588801
 30
0.0
 11
864.956032375
 21
604.8782301732
 31
0.0
  0
SPLINE
  5
131
330
1F
100
AcDbEntity
  8
0
  6
Continuous
 62
     7
370
    25
100
AcDbSpline
210
0.0
220
0.0
230
1.0
 70
     8
 71
     3
 72
    15
 73
    11
 74
     0
 42
0.000000001
 43
0.00000001
 40
0.0
 40
0.0
 40
0.0
 40
0.0
 40
0.0793064855229993
 40
0.1719528189279321
 40
0.2770565073915902
 40
0.3947305758644759
 40
0.5261773212767586
 40
0.6713447665976123
 40
0.8292852571892514
 40
1.0
 40
1.0
 40
1.0
 40
1.0
 10
865.018574107982
 20
606.1831263635568
 30
0.0
 10
865.0133503500971
 20
606.1573799924467
 30
0.0
 10
865.0020241655133
 20
606.1015565492525
 30
0.0
 10
864.9900684711032
 20
606.0105284216994
 30
0.0
 10
864.9794170115044
 20
605.9066063341924
 30
0.0
 10
864.9715382374176
 20
605.789550317434
 30
0.0
 10
864.9633942965771
 20
605.6592122719406
 30
0.0
 10
864.960227126547
 20
605.5153138353564
 30
0.0
 10
864.9564484833104
 20
605.3584426572407
 30
0.0
 10
864.9561746255878
 20
605.2495970465887
 30
0.0
 10
864.9560323745419
 20
605.1930589223175
 30
0.0
  0
SPLINE
  5
132
330
1F
100
AcDbEntity
  8
0
  6
Continuous
 62
     7
370
    25
100
AcDbSpline
210
0.0
220
0.0
230
1.0
 70
     8
 71
     3
 72
    23
 73
    19
 74
     0
 42
0.000000001
 43
0.00000001
 40
0.0
 40
0.0
 40
0.0
 40
0.0
 40
0.072301033995505
 40
0.1397003317393858
 40
0.2022885114847729
 40
0.2605995332222008
 40
0.3131903291553325
 40
0.3617389329854281
 40
0.4057064756322231
 40
0.4455399848948716
 40
0.5188319558616074
 40
0.5897782395835766
 40
0.6588674786561457
 40
0.7284304780610639
 40
0.7972827036080995
 40
0.8648153774014451
 40
0.9313637528792689
 40
1.0
 40
1.0
 40
1.0
 40
1.0
 10
864.4132973318068
 20
605.1972990398388
 30
0.0
 10
864.4126926863089
 20
605.2439394804524
 30
0.0
 10
864.4115243879876
 20
605.3340583164651
 30
0.0
 10
864.4081777610011
 20
605.4645657791193
 30
0.0
 10
864.3988069096445
 20
605.5857071756778
 30
0.0
 10
864.389438751538
 20
605.6972733994921
 30
0.0
 10
864.3742069344748
 20
605.7990887612035
 30
0.0
 10
864.3560759867383
 20
605.8909276946652
 30
0.0
 10
864.3369006421282
 20
605.9742315257507
 30
0.0
 10
864.3042896321717
 20
606.0702972672165
 30
0.0
 10
864.2560936232627
 20
606.1792647011947
 30
0.0
 10
864.1812969186527
 20
606.2954290372378
 30
0.0
 10
864.0922089084588
 20
606.3978371043543
 30
0.0
 10
863.989413049615
 20
606.4843138048345
 30
0.0
 10
863.8762225067105
 20
606.5550882900386
 30
0.0
 10
863.7544432946246
 20
606.6042459308076
 30
0.0
 10
863.6271104759518
 20
606.6375793247503
 30
0.0
 10
863.5396947842339
 20
606.6405903304926
 30
0.0
 10
863.4953118884307
 20
606.6421190852448
 30
0.0
  0
LINE
  5
133
330
1F
100
AcDbEntity
  8
0
  6
Continuous
 62
     7
370
    25
100
AcDbLine
 10
864.4132973316
 20
604.8782301732
 30
0.0
 11
864.4132973316
 21
605.197298959
 31
0.0
  0
LINE
  5
134
330
1F
100
AcDbEntity
  8
0
  6
Continuous
 62
     7
370
    25
100
AcDbLine
 10
862.7172503104
 20
604.8782301732
 30
0.0
 11
864.4132973316
 21
604.8782301732
 31
0.0
  0
LINE
  5
135
330
1F
100
AcDbEntity
  8
0
  6
Continuous
 62
     7
370
    25
100
AcDbLine
 10
862.7172503104
 20
605.5227280959
 30
0.0
 11
862.7172503104
 21
604.8782301732
 31
0.0
  0
SPLINE
  5
136
330
1F
100
AcDbEntity
  8
0
  6
Continuous
 62
     7
370
    25
100
AcDbSpline
210
0.0
220
0.0
230
1.0
 70
     8
 71
     3
 72
    23
 73
    19
 74
     0
 42
0.000000001
 43
0.00000001
 40
0.0
 40
0.0
 40
0.0
 40
0.0
 40
0.0570031325129244
 40
0.1118178691207245
 40
0.1644023722182112
 40
0.2158698048987955
 40
0.2668411100818681
 40
0.3174789632053581
 40
0.3699021362727601
 40
0.4234004494436358
 40
0.4797183982994511
 40
0.5392414966442969
 40
0.6024306889434224
 40
0.6710295461473351
 40
0.7444847975608476
 40
0.8234539713786845
 40
0.908740312730666
 40
1.0
 40
1.0
 40
1.0
 40
1.0
 10
863.4953118884307
 20
606.6421190852448
 30
0.0
 10
863.4659419719757
 20
606.6413235509193
 30
0.0
 10
863.4083296736777
 20
606.6397630234682
 30
0.0
 10
863.3243443406079
 20
606.6269824350059
 30
0.0
 10
863.245356762405
 20
606.6052600307997
 30
0.0
 10
863.1702844765576
 20
606.5773588969724
 30
0.0
 10
863.1014748934864
 20
606.5383688556988
 30
0.0
 10
863.036548871424
 20
606.4924621909447
 30
0.0
 10
862.9777174541728
 20
606.4369969211019
 30
0.0
 10
862.9227302364818
 20
606.373863841253
 30
0.0
 10
862.8739795813585
 20
606.3012793757408
 30
0.0
 10
862.8312822370366
 20
606.219286827395
 30
0.0
 10
862.7969003484849
 20
606.1267768870679
 30
0.0
 10
862.7667890227152
 20
606.0253086420364
 30
0.0
 10
862.7456400546805
 20
605.9133202121277
 30
0.0
 10
862.7280212423893
 20
605.7921039230457
 30
0.0
 10
862.7190515015016
 20
605.660666907374
 30
0.0
 10
862.7178641076314
 20
605.5697332404601
 30
0.0
 10
862.7172503232597
 20
605.5227280596039
 30
0.0
  0
SPLINE
  5
137
330
1F
100
AcDbEntity
  8
0
  6
Continuous
 62
     7
370
    25
100
AcDbSpline
210
0.0
220
0.0
230
1.0
 70
     8
 71
     3
 72
    23
 73
    19
 74
     0
 42
0.000000001
 43
0.00000001
 40
0.0
 40
0.0
 40
0.0
 40
0.0
 40
0.0611602766365174
 40
0.1203345577262022
 40
0.1781802550631247
 40
0.2352351259863639
 40
0.2926829614441803
 40
0.3511862482150794
 40
0.4104566095096935
 40
0.4717198544629955
 40
0.5337612027725886
 40
0.5957390238870943
 40
0.6578875151248844
 40
0.7212951802914611
 40
0.7868225145418892
 40
0.8546861538286837
 40
0.925477986269996
 40
1.0
 40
1.0
 40
1.0
 40
1.0
 10
865.964120315247
 20
607.5240635296892
 30
0.0
 10
866.0157773719075
 20
607.5225866315349
 30
0.0
 10
866.1174140780921
 20
607.51968079304
 30
0.0
 10
866.2667224362815
 20
607.4982420261568
 30
0.0
 10
866.40940836747
 20
607.4619425429682
 30
0.0
 10
866.5463947746537
 20
607.4119421192978
 30
0.0
 10
866.6774166446272
 20
607.3466848103218
 30
0.0
 10
866.8026224127973
 20
607.267267530916
 30
0.0
 10
866.9207540793194
 20
607.172574571629
 30
0.0
 10
867.0331243190109
 20
607.0666461864279
 30
0.0
 10
867.1341615689174
 20
606.9468093712248
 30
0.0
 10
867.224143649257
 20
606.8175176941395
 30
0.0
 10
867.2981454336459
 20
606.6771429009669
 30
0.0
 10
867.3603089423466
 20
606.5279904814421
 30
0.0
 10
867.4077936352639
 20
606.3683872892217
 30
0.0
 10
867.4410140743737
 20
606.1990500138087
 30
0.0
 10
867.463397880312
 20
606.02012470032
 30
0.0
 10
867.4652381781889
 20
605.8973432909015
 30
0.0
 10
867.4661819471913
 20
605.8343766974242
 30
0.0
  0
SPLINE
  5
138
330
1F
100
AcDbEntity
  8
0
  6
Continuous
 62
     7
370
    25
100
AcDbSpline
210
0.0
220
0.0
230
1.0
 70
     8
 71
     3
 72
    19
 73
    15
 74
     0
 42
0.000000001
 43
0.00000001
 40
0.0
 40
0.0
 40
0.0
 40
0.0
 40
0.1060574933033962
 40
0.2029142570846098
 40
0.2903001653958372
 40
0.37022256562504
 40
0.4463837207709699
 40
0.5213968999648273
 40
0.5982910828464563
 40
0.6761424688569274
 40
0.755528699556022
 40
0.8348871724576572
 40
0.9166460487466412
 40
1.0
 40
1.0
 40
1.0
 40
1.0
 10
864.6115228259308
 20
606.5053752951807
 30
0.0
 10
864.6346020505196
 20
606.5654892749966
 30
0.0
 10
864.6787583243071
 20
606.6805022097249
 30
0.0
 10
864.7568262282074
 20
606.8387774904256
 30
0.0
 10
864.8417379903467
 20
606.9751435060745
 30
0.0
 10
864.9344659066354
 20
607.0906487148854
 30
0.0
 10
865.0344161324729
 20
607.1894330264856
 30
0.0
 10
865.1430542218721
 20
607.2756916405305
 30
0.0
 10
865.2617973439011
 20
607.3492932419404
 30
0.0
 10
865.389407450937
 20
607.412359209712
 30
0.0
 10
865.5245815161909
 20
607.4615698289422
 30
0.0
 10
865.6660516181477
 20
607.4984238748345
 30
0.0
 10
865.8133104694534
 20
607.5195413276946
 30
0.0
 10
865.9135276501199
 20
607.5225464520081
 30
0.0
 10
865.964120315247
 20
607.5240635296892
 30
0.0
  0
SPLINE
  5
139
330
1F
100
AcDbEntity
  8
0
  6
Continuous
 62
     7
370
    25
100
AcDbSpline
210
0.0
220
0.0
230
1.0
 70
     8
 71
     3
 72
    23
 73
    19
 74
     0
 42
0.000000001
 43
0.00000001
 40
0.0
 40
0.0
 40
0.0
 40
0.0
 40
0.0625940971873317
 40
0.1213229386347495
 40
0.1766801421977656
 40
0.2283650957096754
 40
0.2768684458368074
 40
0.3218791276660458
 40
0.364098625109892
 40
0.4033556962427017
 40
0.477967948163371
 40
0.5505354613647758
 40
0.6235844567403235
 40
0.6981748822642039
 40
0.7733536703408753
 40
0.8472811254977334
 40
0.9228183395566694
 40
1.0
 40
1.0
 40
1.0
 40
1.0
 10
862.1745152805248
 20
605.4358056504158
 30
0.0
 10
862.1747809983941
 20
605.4863463257711
 30
0.0
 10
862.1752960257562
 20
605.5843067330655
 30
0.0
 10
862.183283616895
 20
605.7267575558304
 30
0.0
 10
862.1941748796877
 20
605.8601813528702
 30
0.0
 10
862.2114560911856
 20
605.9846168182097
 30
0.0
 10
862.2323079447267
 20
606.1000064515866
 30
0.0
 10
862.2575595000062
 20
606.2066979983629
 30
0.0
 10
862.287837832562
 20
606.3043521873876
 30
0.0
 10
862.3359863768063
 20
606.4209393007636
 30
0.0
 10
862.4075345003827
 20
606.5538669666162
 30
0.0
 10
862.5132598310247
 20
606.6977978698694
 30
0.0
 10
862.6425767693138
 20
606.8208733269961
 30
0.0
 10
862.788449355491
 20
606.9269883542531
 30
0.0
 10
862.9489165342098
 20
607.011354332713
 30
0.0
 10
863.120153641052
 20
607.0723888655593
 30
0.0
 10
863.2999519889541
 20
607.1110299390183
 30
0.0
 10
863.4233886983665
 20
607.1150038812257
 30
0.0
 10
863.4857716240076
 20
607.117012247638
 30
0.0
  0
LINE
  5
13A
330
1F
100
AcDbEntity
  8
0
  6
Continuous
 62
     7
370
    25
100
AcDbLine
 10
862.174515328
 20
604.4033369181
 30
0.0
 11
862.174515328
 21
605.4358056645
 31
0.0
  0
LINE
  5
13B
330
1F
100
AcDbEntity
  8
0
  6
Continuous
 62
     7
370
    25
100
AcDbLine
 10
867.4661819307
 20
604.4033369181
 30
0.0
 11
862.174515328
 21
604.4033369181
 31
0.0
  0
LINE
  5
13C
330
1F
100
AcDbEntity
  8
0
  6
Continuous
 62
     7
370
    25
100
AcDbLine
 10
867.4661819307
 20
605.8343766854
 30
0.0
 11
867.4661819307
 21
604.4033369181
 31
0.0
  0
LINE
  5
13D
330
1F
100
AcDbEntity
  8
0
  6
Continuous
 62
     7
370
    25
100
AcDbLine
 10
774.8280851586
 20
598.1692014393
 30
0.0
 11
792.2566621048
 21
598.1692014393
 31
0.0
  0
LINE
  5
13E
330
1F
100
AcDbEntity
  8
0
  6
Continuous
 62
     7
370
    25
100
AcDbLine
 10
774.8280851586
 20
595.1692009476
 30
0.0
 11
774.8280851586
 21
598.1692014393
 31
0.0
  0
LINE
  5
13F
330
1F
100
AcDbEntity
  8
0
  6
Continuous
 62
     7
370
    25
100
AcDbLine
 10
774.8280851586
 20
595.1692009476
 30
0.0
 11
792.2566621048
 21
595.1692009476
 31
0.0
  0
LINE
  5
140
330
1F
100
AcDbEntity
  8
0
  6
Continuous
 62
     7
370
    25
100
AcDbLine
 10
792.2566621048
 20
595.1692009476
 30
0.0
 11
792.2566621048
 21
598.1692014393
 31
0.0
  0
LINE
  5
141
330
1F
100
AcDbEntity
  8
0
  6
Continuous
 62
     7
370
    25
100
AcDbLine
 10
809.6880888982
 20
598.1692014393
 30
0.0
 11
827.1166583938
 21
598.1692014393
 31
0.0
  0
LINE
  5
142
330
1F
100
AcDbEntity
  8
0
  6
Continuous
 62
     7
370
    25
100
AcDbLine
 10
809.6880888982
 20
595.1692009476
 30
0.0
 11
809.6880888982
 21
598.1692014393
 31
0.0
  0
LINE
  5
143
330
1F
100
AcDbEntity
  8
0
  6
Continuous
 62
     7
370
    25
100
AcDbLine
 10
809.6880888982
 20
595.1692009476
 30
0.0
 11
827.1166583938
 21
595.1692009476
 31
0.0
  0
LINE
  5
144
330
1F
100
AcDbEntity
  8
0
  6
Continuous
 62
     7
370
    25
100
AcDbLine
 10
827.1166583938
 20
595.1692009476
 30
0.0
 11
827.1166583938
 21
598.1692014393
 31
0.0
  0
LINE
  5
145
330
1F
100
AcDbEntity
  8
0
  6
Continuous
 62
     7
370
    25
100
AcDbLine
 10
763.4052275164
 20
623.5977722463
 30
0.0
 11
763.4052275164
 21
607.8834867585
 31
0.0
  0
LINE
  5
146
330
1F
100
AcDbEntity
  8
0
  6
Continuous
 62
     7
370
    25
100
AcDbLine
 10
760.4052288873
 20
623.5977722463
 30
0.0
 11
763.4052275164
 21
623.5977722463
 31
0.0
  0
LINE
  5
147
330
1F
100
AcDbEntity
  8
0
  6
Continuous
 62
     7
370
    25
100
AcDbLine
 10
760.4052288873
 20
623.5977722463
 30
0.0
 11
760.4052288873
 21
607.8834867585
 31
0.0
  0
LINE
  5
148
330
1F
100
AcDbEntity
  8
0
  6
Continuous
 62
     7
370
    25
100
AcDbLine
 10
760.4052288873
 20
607.8834867585
 30
0.0
 11
763.4052275164
 21
607.8834867585
 31
0.0
  0
LINE
  5
149
330
1F
100
AcDbEntity
  8
0
  6
Continuous
 62
     7
370
    25
100
AcDbLine
 10
763.4052275164
 20
655.0263440368
 30
0.0
 11
763.4052275164
 21
639.3120600042
 31
0.0
  0
LINE
  5
14A
330
1F
100
AcDbEntity
  8
0
  6
Continuous
 62
     7
370
    25
100
AcDbLine
 10
760.4052288873
 20
655.0263440368
 30
0.0
 11
763.4052275164
 21
655.0263440368
 31
0.0
  0
LINE
  5
14B
330
1F
100
AcDbEntity
  8
0
  6
Continuous
 62
     7
370
    25
100
AcDbLine
 10
760.4052288873
 20
655.0263440368
 30
0.0
 11
760.4052288873
 21
639.3120600042
 31
0.0
  0
LINE
  5
14C
330
1F
100
AcDbEntity
  8
0
  6
Continuous
 62
     7
370
    25
100
AcDbLine
 10
760.4052288873
 20
639.3120600042
 30
0.0
 11
763.4052275164
 21
639.3120600042
 31
0.0
  0
LINE
  5
14D
330
1F
100
AcDbEntity
  8
0
  6
Continuous
 62
     7
370
    25
100
AcDbLine
 10
763.4052275164
 20
686.4549121019
 30
0.0
 11
763.4052275164
 21
670.7406317947
 31
0.0
  0
LINE
  5
14E
330
1F
100
AcDbEntity
  8
0
  6
Continuous
 62
     7
370
    25
100
AcDbLine
 10
760.4052288873
 20
686.4549121019
 30
0.0
 11
763.4052275164
 21
686.4549121019
 31
0.0
  0
LINE
  5
14F
330
1F
100
AcDbEntity
  8
0
  6
Continuous
 62
     7
370
    25
100
AcDbLine
 10
760.4052288873
 20
686.4549121019
 30
0.0
 11
760.4052288873
 21
670.7406317947
 31
0.0
  0
LINE
  5
150
330
1F
100
AcDbEntity
  8
0
  6
Continuous
 62
     7
370
    25
100
AcDbLine
 10
760.4052288873
 20
670.7406317947
 30
0.0
 11
763.4052275164
 21
670.7406317947
 31
0.0
  0
LINE
  5
151
330
1F
100
AcDbEntity
  8
0
  6
Continuous
 62
     7
370
    25
100
AcDbLine
 10
844.5480889125
 20
598.1692014393
 30
0.0
 11
861.9766595723
 21
598.1692014393
 31
0.0
  0
LINE
  5
152
330
1F
100
AcDbEntity
  8
0
  6
Continuous
 62
     7
370
    25
100
AcDbLine
 10
844.5480889125
 20
595.1692009476
 30
0.0
 11
844.5480889125
 21
598.1692014393
 31
0.0
  0
LINE
  5
153
330
1F
100
AcDbEntity
  8
0
  6
Continuous
 62
     7
370
    25
100
AcDbLine
 10
844.5480889125
 20
595.1692009476
 30
0.0
 11
861.9766595723
 21
595.1692009476
 31
0.0
  0
LINE
  5
154
330
1F
100
AcDbEntity
  8
0
  6
Continuous
 62
     7
370
    25
100
AcDbLine
 10
861.9766595723
 20
595.1692009476
 30
0.0
 11
861.9766595723
 21
598.1692014393
 31
0.0
  0
LINE
  5
155
330
1F
100
AcDbEntity
  8
0
  6
Continuous
 62
     7
370
    25
100
AcDbLine
 10
873.4052306456
 20
670.7406317947
 30
0.0
 11
873.4052306456
 21
686.4549121019
 31
0.0
  0
LINE
  5
156
330
1F
100
AcDbEntity
  8
0
  6
Continuous
 62
     7
370
    25
100
AcDbLine
 10
876.4052311374
 20
670.7406317947
 30
0.0
 11
873.4052306456
 21
670.7406317947
 31
0.0
  0
LINE
  5
157
330
1F
100
AcDbEntity
  8
0
  6
Continuous
 62
     7
370
    25
100
AcDbLine
 10
876.4052311374
 20
670.7406317947
 30
0.0
 11
876.4052311374
 21
686.4549121019
 31
0.0
  0
LINE
  5
158
330
1F
100
AcDbEntity
  8
0
  6
Continuous
 62
     7
370
    25
100
AcDbLine
 10
876.4052311374
 20
686.4549121019
 30
0.0
 11
873.4052306456
 21
686.4549121019
 31
0.0
  0
LINE
  5
159
330
1F
100
AcDbEntity
  8
0
  6
Continuous
 62
     7
370
    25
100
AcDbLine
 10
873.4052306456
 20
639.3120600042
 30
0.0
 11
873.4052306456
 21
655.0263440368
 31
0.0
  0
LINE
  5
15A
330
1F
100
AcDbEntity
  8
0
  6
Continuous
 62
     7
370
    25
100
AcDbLine
 10
876.4052311374
 20
639.3120600042
 30
0.0
 11
873.4052306456
 21
639.3120600042
 31
0.0
  0
LINE
  5
15B
330
1F
100
AcDbEntity
  8
0
  6
Continuous
 62
     7
370
    25
100
AcDbLine
 10
876.4052311374
 20
639.3120600042
 30
0.0
 11
876.4052311374
 21
655.0263440368
 31
0.0
  0
LINE
  5
15C
330
1F
100
AcDbEntity
  8
0
  6
Continuous
 62
     7
370
    25
100
AcDbLine
 10
876.4052311374
 20
655.0263440368
 30
0.0
 11
873.4052306456
 21
655.0263440368
 31
0.0
  0
LINE
  5
15D
330
1F
100
AcDbEntity
  8
0
  6
Continuous
 62
     7
370
    25
100
AcDbLine
 10
873.4052306456
 20
607.8834867585
 30
0.0
 11
873.4052306456
 21
623.5977722463
 31
0.0
  0
LINE
  5
15E
330
1F
100
AcDbEntity
  8
0
  6
Continuous
 62
     7
370
    25
100
AcDbLine
 10
876.4052311374
 20
607.8834867585
 30
0.0
 11
873.4052306456
 21
607.8834867585
 31
0.0
  0
LINE
  5
15F
330
1F
100
AcDbEntity
  8
0
  6
Continuous
 62
     7
370
    25
100
AcDbLine
 10
876.4052311374
 20
607.8834867585
 30
0.0
 11
876.4052311374
 21
623.5977722463
 31
0.0
  0
LINE
  5
160
330
1F
100
AcDbEntity
  8
0
  6
Continuous
 62
     7
370
    25
100
AcDbLine
 10
876.4052311374
 20
623.5977722463
 30
0.0
 11
873.4052306456
 21
623.5977722463
 31
0.0
  0
ARC
  5
161
330
1F
100
AcDbEntity
  8
0
  6
Continuous
 62
     7
370
    25
100
AcDbCircle
 10
874.4052310331
 20
700.1692010519
 30
0.0
 40
5.000000000000114
100
AcDbArc
 50
0.0
 51
90.0
  0
LINE
  5
162
330
1F
100
AcDbEntity
  8
0
  6
Continuous
 62
     7
370
    25
100
AcDbLine
 10
879.4052306978
 20
597.1692012754
 30
0.0
 11
879.4052306978
 21
700.1692032573
 31
0.0
  0
ARC
  5
163
330
1F
100
AcDbEntity
  8
0
  6
Continuous
 62
     7
370
    25
100
AcDbCircle
 10
874.4052310331
 20
597.1692010519
 30
0.0
 40
5.0
100
AcDbArc
 50
270.0
 51
0.0
  0
LINE
  5
164
330
1F
100
AcDbEntity
  8
0
  6
Continuous
 62
     7
370
    25
100
AcDbLine
 10
874.4052308096
 20
592.1692013872
 30
0.0
 11
762.4052329404
 21
592.1692013872
 31
0.0
  0
ARC
  5
165
330
1F
100
AcDbEntity
  8
0
  6
Continuous
 62
     7
370
    25
100
AcDbCircle
 10
762.4052310331
 20
597.1692010519
 30
0.0
 40
5.0
100
AcDbArc
 50
180.0
 51
270.0
  0
LINE
  5
166
330
1F
100
AcDbEntity
  8
0
  6
Continuous
 62
     7
370
    25
100
AcDbLine
 10
757.4052302582
 20
597.1692012754
 30
0.0
 11
757.4052302582
 21
700.1692032573
 31
0.0
  0
ARC
  5
167
330
1F
100
AcDbEntity
  8
0
  6
Continuous
 62
     7
370
    25
100
AcDbCircle
 10
762.4052310331
 20
700.1692010519
 30
0.0
 40
5.000000000000114
100
AcDbArc
 50
90.0
 51
180.0
  0
LINE
  5
168
330
1F
100
AcDbEntity
  8
0
  6
Continuous
 62
     7
370
    25
100
AcDbLine
 10
874.4052308096
 20
705.1691984889
 30
0.0
 11
762.4052329404
 21
705.1691984889
 31
0.0
  0
LINE
  5
169
330
1F
100
AcDbEntity
  8
0
  6
Continuous
 62
     7
370
    25
100
AcDbLine
 10
774.8280851586
 20
696.1692026016
 30
0.0
 11
792.2566621048
 21
696.1692026016
 31
0.0
  0
LINE
  5
16A
330
1F
100
AcDbEntity
  8
0
  6
Continuous
 62
     7
370
    25
100
AcDbLine
 10
792.2566621048
 20
699.1692012307
 30
0.0
 11
792.2566621048
 21
696.1692026016
 31
0.0
  0
LINE
  5
16B
330
1F
100
AcDbEntity
  8
0
  6
Continuous
 62
     7
370
    25
100
AcDbLine
 10
774.8280851586
 20
699.1692012307
 30
0.0
 11
792.2566621048
 21
699.1692012307
 31
0.0
  0
LINE
  5
16C
330
1F
100
AcDbEntity
  8
0
  6
Continuous
 62
     7
370
    25
100
AcDbLine
 10
774.8280851586
 20
699.1692012307
 30
0.0
 11
774.8280851586
 21
696.1692026016
 31
0.0
  0
LINE
  5
16D
330
1F
100
AcDbEntity
  8
0
  6
Continuous
 62
     7
370
    25
100
AcDbLine
 10
809.6880888982
 20
696.1692026016
 30
0.0
 11
827.1166583938
 21
696.1692026016
 31
0.0
  0
LINE
  5
16E
330
1F
100
AcDbEntity
  8
0
  6
Continuous
 62
     7
370
    25
100
AcDbLine
 10
827.1166583938
 20
699.1692012307
 30
0.0
 11
827.1166583938
 21
696.1692026016
 31
0.0
  0
LINE
  5
16F
330
1F
100
AcDbEntity
  8
0
  6
Continuous
 62
     7
370
    25
100
AcDbLine
 10
809.6880888982
 20
699.1692012307
 30
0.0
 11
827.1166583938
 21
699.1692012307
 31
0.0
  0
LINE
  5
170
330
1F
100
AcDbEntity
  8
0
  6
Continuous
 62
     7
370
    25
100
AcDbLine
 10
809.6880888982
 20
699.1692012307
 30
0.0
 11
809.6880888982
 21
696.1692026016
 31
0.0
  0
LINE
  5
171
330
1F
100
AcDbEntity
  8
0
  6
Continuous
 62
     7
370
    25
100
AcDbLine
 10
844.5480889125
 20
696.1692026016
 30
0.0
 11
861.9766595723
 21
696.1692026016
 31
0.0
  0
LINE
  5
172
330
1F
100
AcDbEntity
  8
0
  6
Continuous
 62
     7
370
    25
100
AcDbLine
 10
861.9766595723
 20
699.1692012307
 30
0.0
 11
861.9766595723
 21
696.1692026016
 31
0.0
  0
LINE
  5
173
330
1F
100
AcDbEntity
  8
0
  6
Continuous
 62
     7
370
    25
100
AcDbLine
 10
844.5480889125
 20
699.1692012307
 30
0.0
 11
861.9766595723
 21
699.1692012307
 31
0.0
  0
LINE
  5
174
330
1F
100
AcDbEntity
  8
0
  6
Continuous
 62
     7
370
    25
100
AcDbLine
 10
844.5480889125
 20
699.1692012307
 30
0.0
 11
844.5480889125
 21
696.1692026016
 31
0.0
  0
SPLINE
  5
175
330
1F
100
AcDbEntity
  8
0
  6
Continuous
 62
     7
370
    25
100
AcDbSpline
210
0.0
220
0.0
230
1.0
 70
     8
 71
     3
 72
    15
 73
    11
 74
     0
 42
0.000000001
 43
0.00000001
 40
0.0
 40
0.0
 40
0.0
 40
0.0
 40
0.1305691070873098
 40
0.2565806086940829
 40
0.3805516168036839
 40
0.5036229172007087
 40
0.625739323169788
 40
0.7475485819596269
 40
0.8717661185648721
 40
1.0
 40
1.0
 40
1.0
 40
1.0
 10
863.4857716240076
 20
607.117012247638
 30
0.0
 10
863.5442106069969
 20
607.1153594054689
 30
0.0
 10
863.6590487196358
 20
607.112111414736
 30
0.0
 10
863.8270124324814
 20
607.0810527190781
 30
0.0
 10
863.9868982038037
 20
607.0324288513183
 30
0.0
 10
864.1381225246125
 20
606.9648387722252
 30
0.0
 10
864.2772685825828
 20
606.8769940874972
 30
0.0
 10
864.4054588538651
 20
606.7728868676105
 30
0.0
 10
864.5172658090837
 20
606.6472826543206
 30
0.0
 10
864.5797723403211
 20
606.5531768033865
 30
0.0
 10
864.6115228259308
 20
606.5053752951807
 30
0.0
  0
LINE
  5
176
330
1F
100
AcDbEntity
  8
0
  6
Continuous
 62
     7
370
    25
100
AcDbLine
 10
653.1786737163
 20
791.7297354476
 30
0.0
 11
643.0519153495
 21
791.7297354476
 31
0.0
  0
LINE
  5
177
330
1F
100
AcDbEntity
  8
0
  6
Continuous
 62
     7
370
    25
100
AcDbLine
 10
674.1989259739
 20
743.1615192952
 30
0.0
 11
653.1786737163
 21
791.7297354476
 31
0.0
  0
LINE
  5
178
330
1F
100
AcDbEntity
  8
0
  6
Continuous
 62
     7
370
    25
100
AcDbLine
 10
667.0188740958
 20
743.1615192952
 30
0.0
 11
674.1989259739
 21
743.1615192952
 31
0.0
  0
LINE
  5
179
330
1F
100
AcDbEntity
  8
0
  6
Continuous
 62
     7
370
    25
100
AcDbLine
 10
667.0188740958
 20
743.1615192952
 30
0.0
 11
663.5547732134
 21
745.161519623
 31
0.0
  0
LINE
  5
17A
330
1F
100
AcDbEntity
  8
0
  6
Continuous
 62
     7
370
    25
100
AcDbLine
 10
663.5547732134
 20
745.161519623
 30
0.0
 11
657.0595824291
 21
741.411519474
 31
0.0
  0
LINE
  5
17B
330
1F
100
AcDbEntity
  8
0
  6
Continuous
 62
     7
370
    25
100
AcDbLine
 10
657.0595824291
 20
741.411519474
 30
0.0
 11
657.0595824291
 21
733.9115194088
 31
0.0
  0
LINE
  5
17C
330
1F
100
AcDbEntity
  8
0
  6
Continuous
 62
     7
370
    25
100
AcDbLine
 10
657.0595824291
 20
733.9115194088
 30
0.0
 11
660.5547727217
 21
731.893570283
 31
0.0
  0
LINE
  5
17D
330
1F
100
AcDbEntity
  8
0
  6
Continuous
 62
     7
370
    25
100
AcDbLine
 10
660.5547727217
 20
712.4294678258
 30
0.0
 11
660.5547727217
 21
731.893570283
 31
0.0
  0
LINE
  5
17E
330
1F
100
AcDbEntity
  8
0
  6
Continuous
 62
     7
370
    25
100
AcDbLine
 10
660.5547727217
 20
712.4294678258
 30
0.0
 11
657.0595824291
 21
710.4115190493
 31
0.0
  0
LINE
  5
17F
330
1F
100
AcDbEntity
  8
0
  6
Continuous
 62
     7
370
    25
100
AcDbLine
 10
657.0595824291
 20
710.4115190493
 30
0.0
 11
657.0595824291
 21
702.9115187513
 31
0.0
  0
LINE
  5
180
330
1F
100
AcDbEntity
  8
0
  6
Continuous
 62
     7
370
    25
100
AcDbLine
 10
657.0595824291
 20
702.9115187513
 30
0.0
 11
663.5547732134
 21
699.1615186022
 31
0.0
  0
LINE
  5
181
330
1F
100
AcDbEntity
  8
0
  6
Continuous
 62
     7
370
    25
100
AcDbLine
 10
663.5547732134
 20
699.1615186022
 30
0.0
 11
670.0499621351
 21
702.9115187513
 31
0.0
  0
LINE
  5
182
330
1F
100
AcDbEntity
  8
0
  6
Continuous
 62
     7
370
    25
100
AcDbLine
 10
670.0499621351
 20
702.9115187513
 30
0.0
 11
670.0499621351
 21
704.6615204351
 31
0.0
  0
LINE
  5
183
330
1F
100
AcDbEntity
  8
0
  6
Continuous
 62
     7
370
    25
100
AcDbLine
 10
670.0499621351
 20
704.6615204351
 30
0.0
 11
690.8616689165
 21
704.6615204351
 31
0.0
  0
LINE
  5
184
330
1F
100
AcDbEntity
  8
0
  6
Continuous
 62
     7
370
    25
100
AcDbLine
 10
717.114434125
 20
678.6615198986
 30
0.0
 11
690.8616689165
 21
704.6615204351
 31
0.0
  0
LINE
  5
185
330
1F
100
AcDbEntity
  8
0
  6
Continuous
 62
     7
370
    25
100
AcDbLine
 10
643.0519153495
 20
678.6615198986
 30
0.0
 11
717.114434125
 21
678.6615198986
 31
0.0
  0
LINE
  5
186
330
1F
100
AcDbEntity
  8
0
  6
Continuous
 62
     7
370
    25
100
AcDbLine
 10
643.0519153495
 20
678.6615198986
 30
0.0
 11
643.0519153495
 21
791.7297354476
 31
0.0
  0
LINE
  5
187
330
1F
100
AcDbEntity
  8
0
  6
Continuous
 62
     7
370
    25
100
AcDbLine
 10
839.853848837
 20
735.2350304739
 30
0.0
 11
919.8538479802
 21
735.2350304739
 31
0.0
  0
LINE
  5
188
330
1F
100
AcDbEntity
  8
0
  6
Continuous
 62
     7
370
    25
100
AcDbLine
 10
919.8538479802
 20
735.2350304739
 30
0.0
 11
919.8538479802
 21
815.2350296171
 31
0.0
  0
LINE
  5
189
330
1F
100
AcDbEntity
  8
0
  6
Continuous
 62
     7
370
    25
100
AcDbLine
 10
919.8538479802
 20
815.2350296171
 30
0.0
 11
839.853848837
 21
815.2350296171
 31
0.0
  0
LINE
  5
18A
330
1F
100
AcDbEntity
  8
0
  6
Continuous
 62
     7
370
    25
100
AcDbLine
 10
839.853848837
 20
815.2350296171
 30
0.0
 11
839.853848837
 21
735.2350304739
 31
0.0
  0
LINE
  5
18B
330
1F
100
AcDbEntity
  8
0
  6
Continuous
 62
     7
370
    25
100
AcDbLine
 10
824.8538491723
 20
738.2350300343
 30
0.0
 11
821.8538491462
 21
738.2350300343
 31
0.0
  0
LINE
  5
18C
330
1F
100
AcDbEntity
  8
0
  6
Continuous
 62
     7
370
    25
100
AcDbLine
 10
821.8538491462
 20
738.2350300343
 30
0.0
 11
821.8538491462
 21
762.2350302429
 31
0.0
  0
LINE
  5
18D
330
1F
100
AcDbEntity
  8
0
  6
Continuous
 62
     7
370
    25
100
AcDbLine
 10
824.8538491723
 20
762.2350302429
 30
0.0
 11
821.8538491462
 21
762.2350302429
 31
0.0
  0
LINE
  5
18E
330
1F
100
AcDbEntity
  8
0
  6
Continuous
 62
     7
370
    25
100
AcDbLine
 10
824.8538491723
 20
786.2350304515
 30
0.0
 11
821.8538491462
 21
786.2350304515
 31
0.0
  0
LINE
  5
18F
330
1F
100
AcDbEntity
  8
0
  6
Continuous
 62
     7
370
    25
100
AcDbLine
 10
821.8538491462
 20
786.2350304515
 30
0.0
 11
821.8538491462
 21
810.2350343854
 31
0.0
  0
LINE
  5
190
330
1F
100
AcDbEntity
  8
0
  6
Continuous
 62
     7
370
    25
100
AcDbLine
 10
824.8538491723
 20
810.2350343854
 30
0.0
 11
821.8538491462
 21
810.2350343854
 31
0.0
  0
LINE
  5
191
330
1F
100
AcDbEntity
  8
0
  6
Continuous
 62
     7
370
    25
100
AcDbLine
 10
824.8538491723
 20
830.2350302131
 30
0.0
 11
824.8538491723
 21
810.2350343854
 31
0.0
  0
LINE
  5
192
330
1F
100
AcDbEntity
  8
0
  6
Continuous
 62
     7
370
    25
100
AcDbLine
 10
934.8538485763
 20
830.2350302131
 30
0.0
 11
824.8538491723
 21
830.2350302131
 31
0.0
  0
LINE
  5
193
330
1F
100
AcDbEntity
  8
0
  6
Continuous
 62
     7
370
    25
100
AcDbLine
 10
934.8538485763
 20
810.2350343854
 30
0.0
 11
937.8538472054
 21
810.2350343854
 31
0.0
  0
LINE
  5
194
330
1F
100
AcDbEntity
  8
0
  6
Continuous
 62
     7
370
    25
100
AcDbLine
 10
937.8538472054
 20
786.2350304515
 30
0.0
 11
937.8538472054
 21
810.2350343854
 31
0.0
  0
LINE
  5
195
330
1F
100
AcDbEntity
  8
0
  6
Continuous
 62
     7
370
    25
100
AcDbLine
 10
934.8538485763
 20
786.2350304515
 30
0.0
 11
937.8538472054
 21
786.2350304515
 31
0.0
  0
LINE
  5
196
330
1F
100
AcDbEntity
  8
0
  6
Continuous
 62
     7
370
    25
100
AcDbLine
 10
934.8538485763
 20
762.2350302429
 30
0.0
 11
937.8538472054
 21
762.2350302429
 31
0.0
  0
LINE
  5
197
330
1F
100
AcDbEntity
  8
0
  6
Continuous
 62
     7
370
    25
100
AcDbLine
 10
937.8538472054
 20
738.2350300343
 30
0.0
 11
937.8538472054
 21
762.2350302429
 31
0.0
  0
LINE
  5
198
330
1F
100
AcDbEntity
  8
0
  6
Continuous
 62
     7
370
    25
100
AcDbLine
 10
934.8538485763
 20
738.2350300343
 30
0.0
 11
937.8538472054
 21
738.2350300343
 31
0.0
  0
LINE
  5
199
330
1F
100
AcDbEntity
  8
0
  6
Continuous
 62
     7
370
    25
100
AcDbLine
 10
934.8538485763
 20
720.2350308092
 30
0.0
 11
934.8538485763
 21
738.2350300343
 31
0.0
  0
LINE
  5
19A
330
1F
100
AcDbEntity
  8
0
  6
Continuous
 62
     7
370
    25
100
AcDbLine
 10
919.8538479802
 20
720.2350308092
 30
0.0
 11
934.8538485763
 21
720.2350308092
 31
0.0
  0
LINE
  5
19B
330
1F
100
AcDbEntity
  8
0
  6
Continuous
 62
     7
370
    25
100
AcDbLine
 10
919.8538479802
 20
720.2350308092
 30
0.0
 11
919.8538479802
 21
725.2350306974
 31
0.0
  0
LINE
  5
19C
330
1F
100
AcDbEntity
  8
0
  6
Continuous
 62
     7
370
    25
100
AcDbLine
 10
919.8538479802
 20
725.2350306974
 30
0.0
 11
839.853848837
 21
725.2350306974
 31
0.0
  0
LINE
  5
19D
330
1F
100
AcDbEntity
  8
0
  6
Continuous
 62
     7
370
    25
100
AcDbLine
 10
839.853848837
 20
725.2350306974
 30
0.0
 11
839.853848837
 21
720.2350308092
 31
0.0
  0
LINE
  5
19E
330
1F
100
AcDbEntity
  8
0
  6
Continuous
 62
     7
370
    25
100
AcDbLine
 10
919.1424218413
 20
731.2350307496
 30
0.0
 11
903.4281340835
 21
731.2350307496
 31
0.0
  0
LINE
  5
19F
330
1F
100
AcDbEntity
  8
0
  6
Continuous
 62
     7
370
    25
100
AcDbLine
 10
903.4281340835
 20
731.2350307496
 30
0.0
 11
903.4281340835
 21
728.2350311891
 31
0.0
  0
LINE
  5
1A0
330
1F
100
AcDbEntity
  8
0
  6
Continuous
 62
     7
370
    25
100
AcDbLine
 10
903.4281340835
 20
728.2350311891
 30
0.0
 11
919.1424218413
 21
728.2350311891
 31
0.0
  0
LINE
  5
1A1
330
1F
100
AcDbEntity
  8
0
  6
Continuous
 62
     7
370
    25
100
AcDbLine
 10
919.1424218413
 20
728.2350311891
 30
0.0
 11
919.1424218413
 21
731.2350307496
 31
0.0
  0
LINE
  5
1A2
330
1F
100
AcDbEntity
  8
0
  6
Continuous
 62
     7
370
    25
100
AcDbLine
 10
887.7124232647
 20
731.2350307496
 30
0.0
 11
871.9981355068
 21
731.2350307496
 31
0.0
  0
LINE
  5
1A3
330
1F
100
AcDbEntity
  8
0
  6
Continuous
 62
     7
370
    25
100
AcDbLine
 10
871.9981355068
 20
731.2350307496
 30
0.0
 11
871.9981355068
 21
728.2350311891
 31
0.0
  0
LINE
  5
1A4
330
1F
100
AcDbEntity
  8
0
  6
Continuous
 62
     7
370
    25
100
AcDbLine
 10
871.9981355068
 20
728.2350311891
 30
0.0
 11
887.7124232647
 21
728.2350311891
 31
0.0
  0
LINE
  5
1A5
330
1F
100
AcDbEntity
  8
0
  6
Continuous
 62
     7
370
    25
100
AcDbLine
 10
887.7124232647
 20
728.2350311891
 30
0.0
 11
887.7124232647
 21
731.2350307496
 31
0.0
  0
LINE
  5
1A6
330
1F
100
AcDbEntity
  8
0
  6
Continuous
 62
     7
370
    25
100
AcDbLine
 10
856.2824209628
 20
731.2350307496
 30
0.0
 11
840.5681350675
 21
731.2350307496
 31
0.0
  0
LINE
  5
1A7
330
1F
100
AcDbEntity
  8
0
  6
Continuous
 62
     7
370
    25
100
AcDbLine
 10
840.5681350675
 20
731.2350307496
 30
0.0
 11
840.5681350675
 21
728.2350311891
 31
0.0
  0
LINE
  5
1A8
330
1F
100
AcDbEntity
  8
0
  6
Continuous
 62
     7
370
    25
100
AcDbLine
 10
840.5681350675
 20
728.2350311891
 30
0.0
 11
856.2824209628
 21
728.2350311891
 31
0.0
  0
LINE
  5
1A9
330
1F
100
AcDbEntity
  8
0
  6
Continuous
 62
     7
370
    25
100
AcDbLine
 10
856.2824209628
 20
728.2350311891
 30
0.0
 11
856.2824209628
 21
731.2350307496
 31
0.0
  0
LINE
  5
1AA
330
1F
100
AcDbEntity
  8
0
  6
Continuous
 62
     7
370
    25
100
AcDbLine
 10
824.8538491723
 20
738.2350300343
 30
0.0
 11
824.8538491723
 21
720.2350308092
 31
0.0
  0
LINE
  5
1AB
330
1F
100
AcDbEntity
  8
0
  6
Continuous
 62
     7
370
    25
100
AcDbLine
 10
824.8538491723
 20
786.2350304515
 30
0.0
 11
824.8538491723
 21
762.2350302429
 31
0.0
  0
LINE
  5
1AC
330
1F
100
AcDbEntity
  8
0
  6
Continuous
 62
     7
370
    25
100
AcDbLine
 10
934.8538485763
 20
810.2350343854
 30
0.0
 11
934.8538485763
 21
830.2350302131
 31
0.0
  0
LINE
  5
1AD
330
1F
100
AcDbEntity
  8
0
  6
Continuous
 62
     7
370
    25
100
AcDbLine
 10
934.8538485763
 20
762.2350302429
 30
0.0
 11
934.8538485763
 21
786.2350304515
 31
0.0
  0
LINE
  5
1AE
330
1F
100
AcDbEntity
  8
0
  6
Continuous
 62
     7
370
    25
100
AcDbLine
 10
824.8538491723
 20
720.2350308092
 30
0.0
 11
839.853848837
 21
720.2350308092
 31
0.0
  0
CIRCLE
  5
1AF
330
1F
100
AcDbEntity
  8
0
  6
Continuous
 62
     7
370
    25
100
AcDbCircle
 10
1040.4955288277
 20
746.4258286867
 30
0.0
 40
1.500000000000227
  0
LINE
  5
1B0
330
1F
100
AcDbEntity
  8
0
  6
Continuous
 62
     7
370
    25
100
AcDbLine
 10
1010.4955313348
 20
775.9258287276
 30
0.0
 11
1010.4955313348
 21
778.9258287537
 31
0.0
  0
LINE
  5
1B1
330
1F
100
AcDbEntity
  8
0
  6
Continuous
 62
     7
370
    25
100
AcDbLine
 10
969.4955283396
 20
778.9258287537
 30
0.0
 11
1010.4955313348
 21
778.9258287537
 31
0.0
  0
LINE
  5
1B2
330
1F
100
AcDbEntity
  8
0
  6
Continuous
 62
     7
370
    25
100
AcDbLine
 10
969.4955283396
 20
775.9258287276
 30
0.0
 11
969.4955283396
 21
778.9258287537
 31
0.0
  0
LINE
  5
1B3
330
1F
100
AcDbEntity
  8
0
  6
Continuous
 62
     7
370
    25
100
AcDbLine
 10
969.4955283396
 20
775.9258287276
 30
0.0
 11
1010.4955313348
 21
775.9258287276
 31
0.0
  0
LINE
  5
1B4
330
1F
100
AcDbEntity
  8
0
  6
Continuous
 62
     7
370
    25
100
AcDbLine
 10
966.4955297105
 20
774.4258284817
 30
0.0
 11
966.4955297105
 21
748.4258284109
 31
0.0
  0
LINE
  5
1B5
330
1F
100
AcDbEntity
  8
0
  6
Continuous
 62
     7
370
    25
100
AcDbLine
 10
966.4955297105
 20
748.4258284109
 30
0.0
 11
1039.4955305003
 21
748.4258284109
 31
0.0
  0
LINE
  5
1B6
330
1F
100
AcDbEntity
  8
0
  6
Continuous
 62
     7
370
    25
100
AcDbLine
 10
1039.4955305003
 20
751.9258280533
 30
0.0
 11
1039.4955305003
 21
748.4258284109
 31
0.0
  0
LINE
  5
1B7
330
1F
100
AcDbEntity
  8
0
  6
Continuous
 62
     7
370
    25
100
AcDbLine
 10
1043.4955311559
 20
753.9258283811
 30
0.0
 11
1039.4955305003
 21
751.9258280533
 31
0.0
  0
LINE
  5
1B8
330
1F
100
AcDbEntity
  8
0
  6
Continuous
 62
     7
370
    25
100
AcDbLine
 10
1043.4955311559
 20
753.9258283811
 30
0.0
 11
1043.4955311559
 21
768.9258286862
 31
0.0
  0
LINE
  5
1B9
330
1F
100
AcDbEntity
  8
0
  6
Continuous
 62
     7
370
    25
100
AcDbLine
 10
1043.4955311559
 20
768.9258286862
 30
0.0
 11
1039.4955305003
 21
770.3254129753
 31
0.0
  0
LINE
  5
1BA
330
1F
100
AcDbEntity
  8
0
  6
Continuous
 62
     7
370
    25
100
AcDbLine
 10
1039.4955305003
 20
774.4258284817
 30
0.0
 11
1039.4955305003
 21
770.3254129753
 31
0.0
  0
LINE
  5
1BB
330
1F
100
AcDbEntity
  8
0
  6
Continuous
 62
     7
370
    25
100
AcDbLine
 10
966.4955297105
 20
774.4258284817
 30
0.0
 11
1039.4955305003
 21
774.4258284817
 31
0.0
  0
CIRCLE
  5
1BC
330
1F
100
AcDbEntity
  8
0
  6
Continuous
 62
     7
370
    25
100
AcDbCircle
 10
965.4955288277
 20
746.4258286867
 30
0.0
 40
1.500000000000114
  0
LINE
  5
1BD
330
1F
100
AcDbEntity
  8
0
  6
Continuous
 62
     7
370
    25
100
AcDbLine
 10
1060.9926683449
 20
748.4258284109
 30
0.0
 11
1057.9926697158
 21
748.4258284109
 31
0.0
  0
LINE
  5
1BE
330
1F
100
AcDbEntity
  8
0
  6
Continuous
 62
     7
370
    25
100
AcDbLine
 10
1060.9926683449
 20
718.4258290815
 30
0.0
 11
1060.9926683449
 21
748.4258284109
 31
0.0
  0
LINE
  5
1BF
330
1F
100
AcDbEntity
  8
0
  6
Continuous
 62
     7
370
    25
100
AcDbLine
 10
1046.5698120736
 20
718.4258290815
 30
0.0
 11
1060.9926683449
 21
718.4258290815
 31
0.0
  0
LINE
  5
1C0
330
1F
100
AcDbEntity
  8
0
  6
Continuous
 62
     7
370
    25
100
AcDbLine
 10
1046.5698120736
 20
715.4258304524
 30
0.0
 11
1046.5698120736
 21
718.4258290815
 31
0.0
  0
LINE
  5
1C1
330
1F
100
AcDbEntity
  8
0
  6
Continuous
 62
     7
370
    25
100
AcDbLine
 10
1029.1412425779
 20
715.4258304524
 30
0.0
 11
1046.5698120736
 21
715.4258304524
 31
0.0
  0
LINE
  5
1C2
330
1F
100
AcDbEntity
  8
0
  6
Continuous
 62
     7
370
    25
100
AcDbLine
 10
1029.1412425779
 20
718.4258290815
 30
0.0
 11
1029.1412425779
 21
715.4258304524
 31
0.0
  0
LINE
  5
1C3
330
1F
100
AcDbEntity
  8
0
  6
Continuous
 62
     7
370
    25
100
AcDbLine
 10
1011.7098120593
 20
718.4258290815
 30
0.0
 11
1029.1412425779
 21
718.4258290815
 31
0.0
  0
LINE
  5
1C4
330
1F
100
AcDbEntity
  8
0
  6
Continuous
 62
     7
370
    25
100
AcDbLine
 10
1011.7098120593
 20
715.4258304524
 30
0.0
 11
1011.7098120593
 21
718.4258290815
 31
0.0
  0
LINE
  5
1C5
330
1F
100
AcDbEntity
  8
0
  6
Continuous
 62
     7
370
    25
100
AcDbLine
 10
994.2812425636
 20
715.4258304524
 30
0.0
 11
1011.7098120593
 21
715.4258304524
 31
0.0
  0
LINE
  5
1C6
330
1F
100
AcDbEntity
  8
0
  6
Continuous
 62
     7
370
    25
100
AcDbLine
 10
994.2812425636
 20
718.4258290815
 30
0.0
 11
994.2812425636
 21
715.4258304524
 31
0.0
  0
LINE
  5
1C7
330
1F
100
AcDbEntity
  8
0
  6
Continuous
 62
     7
370
    25
100
AcDbLine
 10
976.8498157703
 20
718.4258290815
 30
0.0
 11
994.2812425636
 21
718.4258290815
 31
0.0
  0
LINE
  5
1C8
330
1F
100
AcDbEntity
  8
0
  6
Continuous
 62
     7
370
    25
100
AcDbLine
 10
976.8498157703
 20
715.4258304524
 30
0.0
 11
976.8498157703
 21
718.4258290815
 31
0.0
  0
LINE
  5
1C9
330
1F
100
AcDbEntity
  8
0
  6
Continuous
 62
     7
370
    25
100
AcDbLine
 10
959.4212434806
 20
715.4258304524
 30
0.0
 11
976.8498157703
 21
715.4258304524
 31
0.0
  0
LINE
  5
1CA
330
1F
100
AcDbEntity
  8
0
  6
Continuous
 62
     7
370
    25
100
AcDbLine
 10
959.4212434806
 20
718.4258290815
 30
0.0
 11
959.4212434806
 21
715.4258304524
 31
0.0
  0
LINE
  5
1CB
330
1F
100
AcDbEntity
  8
0
  6
Continuous
 62
     7
370
    25
100
AcDbLine
 10
944.9926716827
 20
718.4258290815
 30
0.0
 11
959.4212434806
 21
718.4258290815
 31
0.0
  0
LINE
  5
1CC
330
1F
100
AcDbEntity
  8
0
  6
Continuous
 62
     7
370
    25
100
AcDbLine
 10
944.9926716827
 20
748.4258284109
 30
0.0
 11
944.9926716827
 21
718.4258290815
 31
0.0
  0
LINE
  5
1CD
330
1F
100
AcDbEntity
  8
0
  6
Continuous
 62
     7
370
    25
100
AcDbLine
 10
947.9926717088
 20
748.4258284109
 30
0.0
 11
944.9926716827
 21
748.4258284109
 31
0.0
  0
LINE
  5
1CE
330
1F
100
AcDbEntity
  8
0
  6
Continuous
 62
     7
370
    25
100
AcDbLine
 10
947.9926717088
 20
769.8486858296
 30
0.0
 11
947.9926717088
 21
748.4258284109
 31
0.0
  0
LINE
  5
1CF
330
1F
100
AcDbEntity
  8
0
  6
Continuous
 62
     7
370
    25
100
AcDbLine
 10
944.9926716827
 20
769.8486858296
 30
0.0
 11
947.9926717088
 21
769.8486858296
 31
0.0
  0
LINE
  5
1D0
330
1F
100
AcDbEntity
  8
0
  6
Continuous
 62
     7
370
    25
100
AcDbLine
 10
944.9926716827
 20
769.8486858296
 30
0.0
 11
944.9926716827
 21
791.2715432483
 31
0.0
  0
LINE
  5
1D1
330
1F
100
AcDbEntity
  8
0
  6
Continuous
 62
     7
370
    25
100
AcDbLine
 10
944.9926716827
 20
791.2715432483
 30
0.0
 11
947.9926717088
 21
791.2715432483
 31
0.0
  0
LINE
  5
1D2
330
1F
100
AcDbEntity
  8
0
  6
Continuous
 62
     7
370
    25
100
AcDbLine
 10
947.9926717088
 20
812.7001152622
 30
0.0
 11
947.9926717088
 21
791.2715432483
 31
0.0
  0
LINE
  5
1D3
330
1F
100
AcDbEntity
  8
0
  6
Continuous
 62
     7
370
    25
100
AcDbLine
 10
944.9926716827
 20
812.7001152622
 30
0.0
 11
947.9926717088
 21
812.7001152622
 31
0.0
  0
LINE
  5
1D4
330
1F
100
AcDbEntity
  8
0
  6
Continuous
 62
     7
370
    25
100
AcDbLine
 10
944.9926716827
 20
812.7001152622
 30
0.0
 11
944.9926716827
 21
832.2040439832
 31
0.0
  0
LINE
  5
1D5
330
1F
100
AcDbEntity
  8
0
  6
Continuous
 62
     7
370
    25
100
AcDbLine
 10
947.9926717088
 20
832.2040439832
 30
0.0
 11
944.9926716827
 21
832.2040439832
 31
0.0
  0
LINE
  5
1D6
330
1F
100
AcDbEntity
  8
0
  6
Continuous
 62
     7
370
    25
100
AcDbLine
 10
947.9926717088
 20
832.2040439832
 30
0.0
 11
947.9926717088
 21
832.494046657
 31
0.0
  0
LINE
  5
1D7
330
1F
100
AcDbEntity
  8
0
  6
Continuous
 62
     7
370
    25
100
AcDbLine
 10
947.9926717088
 20
832.494046657
 30
0.0
 11
1057.9926697158
 21
832.494046657
 31
0.0
  0
LINE
  5
1D8
330
1F
100
AcDbEntity
  8
0
  6
Continuous
 62
     7
370
    25
100
AcDbLine
 10
1057.9926697158
 20
832.2040439832
 30
0.0
 11
1057.9926697158
 21
832.494046657
 31
0.0
  0
LINE
  5
1D9
330
1F
100
AcDbEntity
  8
0
  6
Continuous
 62
     7
370
    25
100
AcDbLine
 10
1060.9926683449
 20
832.2040439832
 30
0.0
 11
1057.9926697158
 21
832.2040439832
 31
0.0
  0
LINE
  5
1DA
330
1F
100
AcDbEntity
  8
0
  6
Continuous
 62
     7
370
    25
100
AcDbLine
 10
1060.9926683449
 20
812.7001152622
 30
0.0
 11
1060.9926683449
 21
832.2040439832
 31
0.0
  0
LINE
  5
1DB
330
1F
100
AcDbEntity
  8
0
  6
Continuous
 62
     7
370
    25
100
AcDbLine
 10
1060.9926683449
 20
812.7001152622
 30
0.0
 11
1057.9926697158
 21
812.7001152622
 31
0.0
  0
LINE
  5
1DC
330
1F
100
AcDbEntity
  8
0
  6
Continuous
 62
     7
370
    25
100
AcDbLine
 10
1057.9926697158
 20
812.7001152622
 30
0.0
 11
1057.9926697158
 21
791.2715432483
 31
0.0
  0
LINE
  5
1DD
330
1F
100
AcDbEntity
  8
0
  6
Continuous
 62
     7
370
    25
100
AcDbLine
 10
1060.9926683449
 20
791.2715432483
 30
0.0
 11
1057.9926697158
 21
791.2715432483
 31
0.0
  0
LINE
  5
1DE
330
1F
100
AcDbEntity
  8
0
  6
Continuous
 62
     7
370
    25
100
AcDbLine
 10
1060.9926683449
 20
769.8486858296
 30
0.0
 11
1060.9926683449
 21
791.2715432483
 31
0.0
  0
LINE
  5
1DF
330
1F
100
AcDbEntity
  8
0
  6
Continuous
 62
     7
370
    25
100
AcDbLine
 10
1057.9926697158
 20
769.8486858296
 30
0.0
 11
1060.9926683449
 21
769.8486858296
 31
0.0
  0
LINE
  5
1E0
330
1F
100
AcDbEntity
  8
0
  6
Continuous
 62
     7
370
    25
100
AcDbLine
 10
1057.9926697158
 20
748.4258284109
 30
0.0
 11
1057.9926697158
 21
769.8486858296
 31
0.0
  0
CIRCLE
  5
1E1
330
1F
100
AcDbEntity
  8
0
  6
Continuous
 62
     7
370
    25
100
AcDbCircle
 10
1040.4955288277
 20
777.4258286867
 30
0.0
 40
1.5
  0
CIRCLE
  5
1E2
330
1F
100
AcDbEntity
  8
0
  6
Continuous
 62
     7
370
    25
100
AcDbCircle
 10
965.4955288277
 20
777.4258286867
 30
0.0
 40
1.5
  0
LINE
  5
1E3
330
1F
100
AcDbEntity
  8
0
  6
Continuous
 62
     7
370
    25
100
AcDbLine
 10
889.2804620494
 20
640.8041262127
 30
0.0
 11
939.7804620494
 21
640.8041262127
 31
0.0
  0
LINE
  5
1E4
330
1F
100
AcDbEntity
  8
0
  6
Continuous
 62
     7
370
    25
100
AcDbLine
 10
939.7804620494
 20
706.8041262127
 30
0.0
 11
939.7804620494
 21
640.8041262127
 31
0.0
  0
LINE
  5
1E5
330
1F
100
AcDbEntity
  8
0
  6
Continuous
 62
     7
370
    25
100
AcDbLine
 10
889.2804620494
 20
706.8041262127
 30
0.0
 11
939.7804620494
 21
706.8041262127
 31
0.0
  0
LINE
  5
1E6
330
1F
100
AcDbEntity
  8
0
  6
Continuous
 62
     7
370
    25
100
AcDbLine
 10
889.2804620494
 20
706.8041262127
 30
0.0
 11
889.2804620494
 21
640.8041262127
 31
0.0
  0
LINE
  5
1E7
330
1F
100
AcDbEntity
  8
0
  6
Continuous
 62
     7
370
    25
100
AcDbLine
 10
918.2804620494
 20
606.8041262127
 30
0.0
 11
939.7090334794
 21
606.8041262127
 31
0.0
  0
LINE
  5
1E8
330
1F
100
AcDbEntity
  8
0
  6
Continuous
 62
     7
370
    25
100
AcDbLine
 10
918.2804620494
 20
609.8041262127
 30
0.0
 11
918.2804620494
 21
606.8041262127
 31
0.0
  0
LINE
  5
1E9
330
1F
100
AcDbEntity
  8
0
  6
Continuous
 62
     7
370
    25
100
AcDbLine
 10
888.2804620494
 20
609.8041262127
 30
0.0
 11
918.2804620494
 21
609.8041262127
 31
0.0
  0
LINE
  5
1EA
330
1F
100
AcDbEntity
  8
0
  6
Continuous
 62
     7
370
    25
100
AcDbLine
 10
888.2804620494
 20
619.5155547927
 30
0.0
 11
888.2804620494
 21
609.8041262127
 31
0.0
  0
LINE
  5
1EB
330
1F
100
AcDbEntity
  8
0
  6
Continuous
 62
     7
370
    25
100
AcDbLine
 10
885.2804620494
 20
619.5155547927
 30
0.0
 11
888.2804620494
 21
619.5155547927
 31
0.0
  0
LINE
  5
1EC
330
1F
100
AcDbEntity
  8
0
  6
Continuous
 62
     7
370
    25
100
AcDbLine
 10
885.2804620494
 20
635.2298405027
 30
0.0
 11
885.2804620494
 21
619.5155547927
 31
0.0
  0
LINE
  5
1ED
330
1F
100
AcDbEntity
  8
0
  6
Continuous
 62
     7
370
    25
100
AcDbLine
 10
888.2804620494
 20
635.2298405027
 30
0.0
 11
885.2804620494
 21
635.2298405027
 31
0.0
  0
LINE
  5
1EE
330
1F
100
AcDbEntity
  8
0
  6
Continuous
 62
     7
370
    25
100
AcDbLine
 10
888.2804620494
 20
650.9455547927
 30
0.0
 11
888.2804620494
 21
635.2298405027
 31
0.0
  0
LINE
  5
1EF
330
1F
100
AcDbEntity
  8
0
  6
Continuous
 62
     7
370
    25
100
AcDbLine
 10
885.2804620494
 20
650.9455547927
 30
0.0
 11
888.2804620494
 21
650.9455547927
 31
0.0
  0
LINE
  5
1F0
330
1F
100
AcDbEntity
  8
0
  6
Continuous
 62
     7
370
    25
100
AcDbLine
 10
885.2804620494
 20
666.6598405027
 30
0.0
 11
885.2804620494
 21
650.9455547927
 31
0.0
  0
LINE
  5
1F1
330
1F
100
AcDbEntity
  8
0
  6
Continuous
 62
     7
370
    25
100
AcDbLine
 10
888.2804620494
 20
666.6598405027
 30
0.0
 11
885.2804620494
 21
666.6598405027
 31
0.0
  0
LINE
  5
1F2
330
1F
100
AcDbEntity
  8
0
  6
Continuous
 62
     7
370
    25
100
AcDbLine
 10
888.2804620494
 20
682.3755547927
 30
0.0
 11
888.2804620494
 21
666.6598405027
 31
0.0
  0
LINE
  5
1F3
330
1F
100
AcDbEntity
  8
0
  6
Continuous
 62
     7
370
    25
100
AcDbLine
 10
885.2804620494
 20
682.3755547927
 30
0.0
 11
888.2804620494
 21
682.3755547927
 31
0.0
  0
LINE
  5
1F4
330
1F
100
AcDbEntity
  8
0
  6
Continuous
 62
     7
370
    25
100
AcDbLine
 10
885.2804620494
 20
698.0898405027
 30
0.0
 11
885.2804620494
 21
682.3755547927
 31
0.0
  0
LINE
  5
1F5
330
1F
100
AcDbEntity
  8
0
  6
Continuous
 62
     7
370
    25
100
AcDbLine
 10
888.2804620494
 20
698.0898405027
 30
0.0
 11
885.2804620494
 21
698.0898405027
 31
0.0
  0
LINE
  5
1F6
330
1F
100
AcDbEntity
  8
0
  6
Continuous
 62
     7
370
    25
100
AcDbLine
 10
888.2804620494
 20
707.8041262127
 30
0.0
 11
888.2804620494
 21
698.0898405027
 31
0.0
  0
LINE
  5
1F7
330
1F
100
AcDbEntity
  8
0
  6
Continuous
 62
     7
370
    25
100
AcDbLine
 10
918.2804620494
 20
707.8041262127
 30
0.0
 11
888.2804620494
 21
707.8041262127
 31
0.0
  0
LINE
  5
1F8
330
1F
100
AcDbEntity
  8
0
  6
Continuous
 62
     7
370
    25
100
AcDbLine
 10
918.2804620494
 20
710.8041262127
 30
0.0
 11
918.2804620494
 21
707.8041262127
 31
0.0
  0
LINE
  5
1F9
330
1F
100
AcDbEntity
  8
0
  6
Continuous
 62
     7
370
    25
100
AcDbLine
 10
939.7090334794
 20
710.8041262127
 30
0.0
 11
918.2804620494
 21
710.8041262127
 31
0.0
  0
LINE
  5
1FA
330
1F
100
AcDbEntity
  8
0
  6
Continuous
 62
     7
370
    25
100
AcDbLine
 10
939.7090334794
 20
707.8041262127
 30
0.0
 11
939.7090334794
 21
710.8041262127
 31
0.0
  0
LINE
  5
1FB
330
1F
100
AcDbEntity
  8
0
  6
Continuous
 62
     7
370
    25
100
AcDbLine
 10
961.1318906223
 20
707.8041262127
 30
0.0
 11
939.7090334794
 21
707.8041262127
 31
0.0
  0
LINE
  5
1FC
330
1F
100
AcDbEntity
  8
0
  6
Continuous
 62
     7
370
    25
100
AcDbLine
 10
961.1318906223
 20
710.8041262127
 30
0.0
 11
961.1318906223
 21
707.8041262127
 31
0.0
  0
LINE
  5
1FD
330
1F
100
AcDbEntity
  8
0
  6
Continuous
 62
     7
370
    25
100
AcDbLine
 10
961.1318906223
 20
710.8041262127
 30
0.0
 11
982.5604620508
 21
710.8041262127
 31
0.0
  0
LINE
  5
1FE
330
1F
100
AcDbEntity
  8
0
  6
Continuous
 62
     7
370
    25
100
AcDbLine
 10
982.5604620508
 20
710.8041262127
 30
0.0
 11
982.5604620508
 21
707.8041262127
 31
0.0
  0
LINE
  5
1FF
330
1F
100
AcDbEntity
  8
0
  6
Continuous
 62
     7
370
    25
100
AcDbLine
 10
1003.9918906223
 20
707.8041262127
 30
0.0
 11
982.5604620508
 21
707.8041262127
 31
0.0
  0
LINE
  5
200
330
1F
100
AcDbEntity
  8
0
  6
Continuous
 62
     7
370
    25
100
AcDbLine
 10
1003.9918906223
 20
710.8041262127
 30
0.0
 11
1003.9918906223
 21
707.8041262127
 31
0.0
  0
LINE
  5
201
330
1F
100
AcDbEntity
  8
0
  6
Continuous
 62
     7
370
    25
100
AcDbLine
 10
1003.9918906223
 20
710.8041262127
 30
0.0
 11
1029.5404620508
 21
710.8041262127
 31
0.0
  0
LINE
  5
202
330
1F
100
AcDbEntity
  8
0
  6
Continuous
 62
     7
370
    25
100
AcDbLine
 10
1029.5404620508
 20
710.8041262127
 30
0.0
 11
1029.5404620508
 21
707.8041262127
 31
0.0
  0
LINE
  5
203
330
1F
100
AcDbEntity
  8
0
  6
Continuous
 62
     7
370
    25
100
AcDbLine
 10
1046.8518906223
 20
707.8041262127
 30
0.0
 11
1029.5404620508
 21
707.8041262127
 31
0.0
  0
LINE
  5
204
330
1F
100
AcDbEntity
  8
0
  6
Continuous
 62
     7
370
    25
100
AcDbLine
 10
1046.8518906223
 20
710.8041262127
 30
0.0
 11
1046.8518906223
 21
707.8041262127
 31
0.0
  0
LINE
  5
205
330
1F
100
AcDbEntity
  8
0
  6
Continuous
 62
     7
370
    25
100
AcDbLine
 10
1046.8518906223
 20
710.8041262127
 30
0.0
 11
1059.2062054911
 21
710.8041262127
 31
0.0
  0
LINE
  5
206
330
1F
100
AcDbEntity
  8
0
  6
Continuous
 62
     7
370
    25
100
AcDbLine
 10
1059.2062054911
 20
710.8041262127
 30
0.0
 11
1049.5322520117
 21
693.1081844314
 31
0.0
  0
LINE
  5
207
330
1F
100
AcDbEntity
  8
0
  6
Continuous
 62
     7
370
    25
100
AcDbLine
 10
1052.1645854935
 20
691.6691498798
 30
0.0
 11
1049.5322520117
 21
693.1081844314
 31
0.0
  0
LINE
  5
208
330
1F
100
AcDbEntity
  8
0
  6
Continuous
 62
     7
370
    25
100
AcDbLine
 10
1044.1306611687
 20
676.9732080985
 30
0.0
 11
1052.1645854935
 21
691.6691498798
 31
0.0
  0
LINE
  5
209
330
1F
100
AcDbEntity
  8
0
  6
Continuous
 62
     7
370
    25
100
AcDbLine
 10
1041.4983276869
 20
678.41224265
 30
0.0
 11
1044.1306611687
 21
676.9732080985
 31
0.0
  0
LINE
  5
20A
330
1F
100
AcDbEntity
  8
0
  6
Continuous
 62
     7
370
    25
100
AcDbLine
 10
1041.4983276869
 20
678.41224265
 30
0.0
 11
1033.4630328529
 21
663.7137938844
 31
0.0
  0
LINE
  5
20B
330
1F
100
AcDbEntity
  8
0
  6
Continuous
 62
     7
370
    25
100
AcDbLine
 10
1036.0953663347
 20
662.2747593329
 30
0.0
 11
1033.4630328529
 21
663.7137938844
 31
0.0
  0
LINE
  5
20C
330
1F
100
AcDbEntity
  8
0
  6
Continuous
 62
     7
370
    25
100
AcDbLine
 10
1028.0614420099
 20
647.5788175515
 30
0.0
 11
1036.0953663347
 21
662.2747593329
 31
0.0
  0
LINE
  5
20D
330
1F
100
AcDbEntity
  8
0
  6
Continuous
 62
     7
370
    25
100
AcDbLine
 10
1025.4291085281
 20
649.0178521031
 30
0.0
 11
1028.0614420099
 21
647.5788175515
 31
0.0
  0
LINE
  5
20E
330
1F
100
AcDbEntity
  8
0
  6
Continuous
 62
     7
370
    25
100
AcDbLine
 10
1025.4291085281
 20
649.0178521031
 30
0.0
 11
1017.3938136941
 21
634.3194033374
 31
0.0
  0
LINE
  5
20F
330
1F
100
AcDbEntity
  8
0
  6
Continuous
 62
     7
370
    25
100
AcDbLine
 10
1020.026147176
 20
632.8803687859
 30
0.0
 11
1017.3938136941
 21
634.3194033374
 31
0.0
  0
LINE
  5
210
330
1F
100
AcDbEntity
  8
0
  6
Continuous
 62
     7
370
    25
100
AcDbLine
 10
1011.9922228511
 20
618.1844270046
 30
0.0
 11
1020.026147176
 21
632.8803687859
 31
0.0
  0
LINE
  5
211
330
1F
100
AcDbEntity
  8
0
  6
Continuous
 62
     7
370
    25
100
AcDbLine
 10
1009.3598893693
 20
619.6234615561
 30
0.0
 11
1011.9922228511
 21
618.1844270046
 31
0.0
  0
LINE
  5
212
330
1F
100
AcDbEntity
  8
0
  6
Continuous
 62
     7
370
    25
100
AcDbLine
 10
1009.3598893693
 20
619.6234615561
 30
0.0
 11
1002.3518614677
 21
606.8041262127
 31
0.0
  0
LINE
  5
213
330
1F
100
AcDbEntity
  8
0
  6
Continuous
 62
     7
370
    25
100
AcDbLine
 10
1002.3518614677
 20
606.8041262127
 30
0.0
 11
1002.0618614677
 21
606.8041262127
 31
0.0
  0
LINE
  5
214
330
1F
100
AcDbEntity
  8
0
  6
Continuous
 62
     7
370
    25
100
AcDbLine
 10
1002.0618614677
 20
606.8041262127
 30
0.0
 11
1002.0618614677
 21
609.8041262127
 31
0.0
  0
LINE
  5
215
330
1F
100
AcDbEntity
  8
0
  6
Continuous
 62
     7
370
    25
100
AcDbLine
 10
1002.0618614677
 20
609.8041262127
 30
0.0
 11
982.5604620508
 21
609.8041262127
 31
0.0
  0
LINE
  5
216
330
1F
100
AcDbEntity
  8
0
  6
Continuous
 62
     7
370
    25
100
AcDbLine
 10
982.5604620508
 20
606.8041262127
 30
0.0
 11
982.5604620508
 21
609.8041262127
 31
0.0
  0
LINE
  5
217
330
1F
100
AcDbEntity
  8
0
  6
Continuous
 62
     7
370
    25
100
AcDbLine
 10
961.1318906223
 20
606.8041262127
 30
0.0
 11
982.5604620508
 21
606.8041262127
 31
0.0
  0
LINE
  5
218
330
1F
100
AcDbEntity
  8
0
  6
Continuous
 62
     7
370
    25
100
AcDbLine
 10
961.1318906223
 20
606.8041262127
 30
0.0
 11
961.1318906223
 21
609.8041262127
 31
0.0
  0
LINE
  5
219
330
1F
100
AcDbEntity
  8
0
  6
Continuous
 62
     7
370
    25
100
AcDbLine
 10
961.1318906223
 20
609.8041262127
 30
0.0
 11
939.7090334794
 21
609.8041262127
 31
0.0
  0
LINE
  5
21A
330
1F
100
AcDbEntity
  8
0
  6
Continuous
 62
     7
370
    25
100
AcDbLine
 10
939.7090334794
 20
606.8041262127
 30
0.0
 11
939.7090334794
 21
609.8041262127
 31
0.0
  0
LINE
  5
21B
330
1F
100
AcDbEntity
  8
0
  6
Continuous
 62
     7
370
    25
100
AcDbLine
 10
990.99230328
 20
669.1544973642
 30
0.0
 11
993.6246367618
 21
667.7154628127
 31
0.0
  0
LINE
  5
21C
330
1F
100
AcDbEntity
  8
0
  6
Continuous
 62
     7
370
    25
100
AcDbLine
 10
1005.1369131741
 20
688.7741306672
 30
0.0
 11
993.6246367618
 21
667.7154628127
 31
0.0
  0
LINE
  5
21D
330
1F
100
AcDbEntity
  8
0
  6
Continuous
 62
     7
370
    25
100
AcDbLine
 10
1005.1369131741
 20
688.7741306672
 30
0.0
 11
1002.5045796922
 21
690.2131652188
 31
0.0
  0
LINE
  5
21E
330
1F
100
AcDbEntity
  8
0
  6
Continuous
 62
     7
370
    25
100
AcDbLine
 10
1002.5045796922
 20
690.2131652188
 30
0.0
 11
990.99230328
 21
669.1544973642
 31
0.0
  0
LINE
  5
21F
330
1F
100
AcDbEntity
  8
0
  6
Continuous
 62
     7
370
    25
100
AcDbLine
 10
967.9677504555
 20
627.0371616551
 30
0.0
 11
970.6000839373
 21
625.5981271036
 31
0.0
  0
LINE
  5
220
330
1F
100
AcDbEntity
  8
0
  6
Continuous
 62
     7
370
    25
100
AcDbLine
 10
982.1123603495
 20
646.6567949582
 30
0.0
 11
970.6000839373
 21
625.5981271036
 31
0.0
  0
LINE
  5
221
330
1F
100
AcDbEntity
  8
0
  6
Continuous
 62
     7
370
    25
100
AcDbLine
 10
982.1123603495
 20
646.6567949582
 30
0.0
 11
979.4800268677
 21
648.0958295097
 31
0.0
  0
LINE
  5
222
330
1F
100
AcDbEntity
  8
0
  6
Continuous
 62
     7
370
    25
100
AcDbLine
 10
979.4800268677
 20
648.0958295097
 30
0.0
 11
967.9677504555
 21
627.0371616551
 31
0.0
  0
LINE
  5
223
330
1F
100
AcDbEntity
  8
0
  6
Continuous
 62
     7
370
    25
100
AcDbLine
 10
1041.9338557413
 20
691.7173123995
 30
0.0
 11
1046.0052237747
 21
692.9106113298
 31
0.0
  0
LINE
  5
224
330
1F
100
AcDbEntity
  8
0
  6
Continuous
 62
     7
370
    25
100
AcDbLine
 10
1041.9338557413
 20
691.7173123995
 30
0.0
 11
1004.9986355853
 21
624.1540863662
 31
0.0
  0
LINE
  5
225
330
1F
100
AcDbEntity
  8
0
  6
Continuous
 62
     7
370
    25
100
AcDbLine
 10
1009.0700036187
 20
625.3473852965
 30
0.0
 11
1004.9986355853
 21
624.1540863662
 31
0.0
  0
LINE
  5
226
330
1F
100
AcDbEntity
  8
0
  6
Continuous
 62
     7
370
    25
100
AcDbLine
 10
1009.0700036187
 20
625.3473852965
 30
0.0
 11
1046.0052237747
 21
692.9106113298
 31
0.0
  0
CIRCLE
  5
227
330
1F
100
AcDbEntity
  8
0
  6
Continuous
 62
     7
370
    25
100
AcDbCircle
 10
1138.2864202186
 20
655.8695200902
 30
0.0
 40
1.499999999999886
  0
CIRCLE
  5
228
330
1F
100
AcDbEntity
  8
0
  6
Continuous
 62
     7
370
    25
100
AcDbCircle
 10
1138.2876622947
 20
635.8720046282
 30
0.0
 40
1.500000000000114
  0
CIRCLE
  5
229
330
1F
100
AcDbEntity
  8
0
  6
Continuous
 62
     7
370
    25
100
AcDbCircle
 10
1158.2876622947
 20
645.8720046282
 30
0.0
 40
4.5
  0
LINE
  5
22A
330
1F
100
AcDbEntity
  8
0
  6
Continuous
 62
     7
370
    25
100
AcDbLine
 10
1148.2876628787
 20
697.872006774
 30
0.0
 11
1126.8590908647
 21
697.872006774
 31
0.0
  0
LINE
  5
22B
330
1F
100
AcDbEntity
  8
0
  6
Continuous
 62
     7
370
    25
100
AcDbLine
 10
1148.2876628787
 20
694.8720081449
 30
0.0
 11
1148.2876628787
 21
697.872006774
 31
0.0
  0
LINE
  5
22C
330
1F
100
AcDbEntity
  8
0
  6
Continuous
 62
     7
370
    25
100
AcDbLine
 10
1178.2876622082
 20
694.8720081449
 30
0.0
 11
1148.2876628787
 21
694.8720081449
 31
0.0
  0
LINE
  5
22D
330
1F
100
AcDbEntity
  8
0
  6
Continuous
 62
     7
370
    25
100
AcDbLine
 10
1178.2876622082
 20
685.1605786682
 30
0.0
 11
1178.2876622082
 21
694.8720081449
 31
0.0
  0
LINE
  5
22E
330
1F
100
AcDbEntity
  8
0
  6
Continuous
 62
     7
370
    25
100
AcDbLine
 10
1181.2876608372
 20
685.1605786682
 30
0.0
 11
1178.2876622082
 21
685.1605786682
 31
0.0
  0
LINE
  5
22F
330
1F
100
AcDbEntity
  8
0
  6
Continuous
 62
     7
370
    25
100
AcDbLine
 10
1181.2876608372
 20
669.4462909103
 30
0.0
 11
1181.2876608372
 21
685.1605786682
 31
0.0
  0
LINE
  5
230
330
1F
100
AcDbEntity
  8
0
  6
Continuous
 62
     7
370
    25
100
AcDbLine
 10
1178.2876622082
 20
669.4462909103
 30
0.0
 11
1181.2876608372
 21
669.4462909103
 31
0.0
  0
LINE
  5
231
330
1F
100
AcDbEntity
  8
0
  6
Continuous
 62
     7
370
    25
100
AcDbLine
 10
1178.2876622082
 20
653.7305763662
 30
0.0
 11
1178.2876622082
 21
669.4462909103
 31
0.0
  0
LINE
  5
232
330
1F
100
AcDbEntity
  8
0
  6
Continuous
 62
     7
370
    25
100
AcDbLine
 10
1181.2876608372
 20
653.7305763662
 30
0.0
 11
1178.2876622082
 21
653.7305763662
 31
0.0
  0
LINE
  5
233
330
1F
100
AcDbEntity
  8
0
  6
Continuous
 62
     7
370
    25
100
AcDbLine
 10
1181.2876608372
 20
638.0162886083
 30
0.0
 11
1181.2876608372
 21
653.7305763662
 31
0.0
  0
LINE
  5
234
330
1F
100
AcDbEntity
  8
0
  6
Continuous
 62
     7
370
    25
100
AcDbLine
 10
1178.2876622082
 20
638.0162886083
 30
0.0
 11
1181.2876608372
 21
638.0162886083
 31
0.0
  0
LINE
  5
235
330
1F
100
AcDbEntity
  8
0
  6
Continuous
 62
     7
370
    25
100
AcDbLine
 10
1178.2876622082
 20
622.3005759269
 30
0.0
 11
1178.2876622082
 21
638.0162886083
 31
0.0
  0
LINE
  5
236
330
1F
100
AcDbEntity
  8
0
  6
Continuous
 62
     7
370
    25
100
AcDbLine
 10
1181.2876608372
 20
622.3005759269
 30
0.0
 11
1178.2876622082
 21
622.3005759269
 31
0.0
  0
LINE
  5
237
330
1F
100
AcDbEntity
  8
0
  6
Continuous
 62
     7
370
    25
100
AcDbLine
 10
1181.2876608372
 20
606.5862900317
 30
0.0
 11
1181.2876608372
 21
622.3005759269
 31
0.0
  0
LINE
  5
238
330
1F
100
AcDbEntity
  8
0
  6
Continuous
 62
     7
370
    25
100
AcDbLine
 10
1178.2876622082
 20
606.5862900317
 30
0.0
 11
1181.2876608372
 21
606.5862900317
 31
0.0
  0
LINE
  5
239
330
1F
100
AcDbEntity
  8
0
  6
Continuous
 62
     7
370
    25
100
AcDbLine
 10
1178.2876622082
 20
596.8720046543
 30
0.0
 11
1178.2876622082
 21
606.5862900317
 31
0.0
  0
LINE
  5
23A
330
1F
100
AcDbEntity
  8
0
  6
Continuous
 62
     7
370
    25
100
AcDbLine
 10
1148.2876628787
 20
596.8720046543
 30
0.0
 11
1178.2876622082
 21
596.8720046543
 31
0.0
  0
LINE
  5
23B
330
1F
100
AcDbEntity
  8
0
  6
Continuous
 62
     7
370
    25
100
AcDbLine
 10
1148.2876628787
 20
593.8720046282
 30
0.0
 11
1148.2876628787
 21
596.8720046543
 31
0.0
  0
LINE
  5
23C
330
1F
100
AcDbEntity
  8
0
  6
Continuous
 62
     7
370
    25
100
AcDbLine
 10
1126.8590908647
 20
593.8720046282
 30
0.0
 11
1148.2876628787
 21
593.8720046282
 31
0.0
  0
LINE
  5
23D
330
1F
100
AcDbEntity
  8
0
  6
Continuous
 62
     7
370
    25
100
AcDbLine
 10
1126.8590908647
 20
596.8720046543
 30
0.0
 11
1126.8590908647
 21
593.8720046282
 31
0.0
  0
LINE
  5
23E
330
1F
100
AcDbEntity
  8
0
  6
Continuous
 62
     7
370
    25
100
AcDbLine
 10
1105.4362334461
 20
596.8720046543
 30
0.0
 11
1126.8590908647
 21
596.8720046543
 31
0.0
  0
LINE
  5
23F
330
1F
100
AcDbEntity
  8
0
  6
Continuous
 62
     7
370
    25
100
AcDbLine
 10
1105.4362334461
 20
593.8720046282
 30
0.0
 11
1105.4362334461
 21
596.8720046543
 31
0.0
  0
LINE
  5
240
330
1F
100
AcDbEntity
  8
0
  6
Continuous
 62
     7
370
    25
100
AcDbLine
 10
1105.4362334461
 20
593.8720046282
 30
0.0
 11
1084.0076614321
 21
593.8720046282
 31
0.0
  0
LINE
  5
241
330
1F
100
AcDbEntity
  8
0
  6
Continuous
 62
     7
370
    25
100
AcDbLine
 10
1084.0076614321
 20
593.8720046282
 30
0.0
 11
1084.0076614321
 21
596.8720046543
 31
0.0
  0
LINE
  5
242
330
1F
100
AcDbEntity
  8
0
  6
Continuous
 62
     7
370
    25
100
AcDbLine
 10
1062.5762339831
 20
596.8720046543
 30
0.0
 11
1084.0076614321
 21
596.8720046543
 31
0.0
  0
LINE
  5
243
330
1F
100
AcDbEntity
  8
0
  6
Continuous
 62
     7
370
    25
100
AcDbLine
 10
1062.5762339831
 20
593.8720046282
 30
0.0
 11
1062.5762339831
 21
596.8720046543
 31
0.0
  0
LINE
  5
244
330
1F
100
AcDbEntity
  8
0
  6
Continuous
 62
     7
370
    25
100
AcDbLine
 10
1062.5762339831
 20
593.8720046282
 30
0.0
 11
1037.027664125
 21
593.8720046282
 31
0.0
  0
LINE
  5
245
330
1F
100
AcDbEntity
  8
0
  6
Continuous
 62
     7
370
    25
100
AcDbLine
 10
1037.027664125
 20
593.8720046282
 30
0.0
 11
1037.027664125
 21
596.8720046543
 31
0.0
  0
LINE
  5
246
330
1F
100
AcDbEntity
  8
0
  6
Continuous
 62
     7
370
    25
100
AcDbLine
 10
1019.7162326575
 20
596.8720046543
 30
0.0
 11
1037.027664125
 21
596.8720046543
 31
0.0
  0
LINE
  5
247
330
1F
100
AcDbEntity
  8
0
  6
Continuous
 62
     7
370
    25
100
AcDbLine
 10
1019.7162326575
 20
593.8720046282
 30
0.0
 11
1019.7162326575
 21
596.8720046543
 31
0.0
  0
LINE
  5
248
330
1F
100
AcDbEntity
  8
0
  6
Continuous
 62
     7
370
    25
100
AcDbLine
 10
1019.7162326575
 20
593.8720046282
 30
0.0
 11
1007.3619183303
 21
593.8720046282
 31
0.0
  0
LINE
  5
249
330
1F
100
AcDbEntity
  8
0
  6
Continuous
 62
     7
370
    25
100
AcDbLine
 10
1007.3619183303
 20
593.8720046282
 30
0.0
 11
1017.0358713866
 21
611.5679456592
 31
0.0
  0
LINE
  5
24A
330
1F
100
AcDbEntity
  8
0
  6
Continuous
 62
     7
370
    25
100
AcDbLine
 10
1014.4035365582
 20
613.006980598
 30
0.0
 11
1017.0358713866
 21
611.5679456592
 31
0.0
  0
LINE
  5
24B
330
1F
100
AcDbEntity
  8
0
  6
Continuous
 62
     7
370
    25
100
AcDbLine
 10
1022.437460363
 20
627.7029229999
 30
0.0
 11
1014.4035365582
 21
613.006980598
 31
0.0
  0
LINE
  5
24C
330
1F
100
AcDbEntity
  8
0
  6
Continuous
 62
     7
370
    25
100
AcDbLine
 10
1025.0697951914
 20
626.2638880611
 30
0.0
 11
1022.437460363
 21
627.7029229999
 31
0.0
  0
LINE
  5
24D
330
1F
100
AcDbEntity
  8
0
  6
Continuous
 62
     7
370
    25
100
AcDbLine
 10
1025.0697951914
 20
626.2638880611
 30
0.0
 11
1033.1050899029
 21
640.9623375833
 31
0.0
  0
LINE
  5
24E
330
1F
100
AcDbEntity
  8
0
  6
Continuous
 62
     7
370
    25
100
AcDbLine
 10
1030.4727550746
 20
642.4013725222
 30
0.0
 11
1033.1050899029
 21
640.9623375833
 31
0.0
  0
LINE
  5
24F
330
1F
100
AcDbEntity
  8
0
  6
Continuous
 62
     7
370
    25
100
AcDbLine
 10
1038.5066788793
 20
657.0973111987
 30
0.0
 11
1030.4727550746
 21
642.4013725222
 31
0.0
  0
LINE
  5
250
330
1F
100
AcDbEntity
  8
0
  6
Continuous
 62
     7
370
    25
100
AcDbLine
 10
1041.1390137077
 20
655.6582799852
 30
0.0
 11
1038.5066788793
 21
657.0973111987
 31
0.0
  0
LINE
  5
251
330
1F
100
AcDbEntity
  8
0
  6
Continuous
 62
     7
370
    25
100
AcDbLine
 10
1041.1390137077
 20
655.6582799852
 30
0.0
 11
1049.1743084193
 21
670.3567295075
 31
0.0
  0
LINE
  5
252
330
1F
100
AcDbEntity
  8
0
  6
Continuous
 62
     7
370
    25
100
AcDbLine
 10
1046.5419735909
 20
671.7957644463
 30
0.0
 11
1049.1743084193
 21
670.3567295075
 31
0.0
  0
LINE
  5
253
330
1F
100
AcDbEntity
  8
0
  6
Continuous
 62
     7
370
    25
100
AcDbLine
 10
1054.5759048463
 20
686.4917068482
 30
0.0
 11
1046.5419735909
 21
671.7957644463
 31
0.0
  0
LINE
  5
254
330
1F
100
AcDbEntity
  8
0
  6
Continuous
 62
     7
370
    25
100
AcDbLine
 10
1057.2082322241
 20
685.0526719094
 30
0.0
 11
1054.5759048463
 21
686.4917068482
 31
0.0
  0
LINE
  5
255
330
1F
100
AcDbEntity
  8
0
  6
Continuous
 62
     7
370
    25
100
AcDbLine
 10
1057.2082322241
 20
685.0526719094
 30
0.0
 11
1064.2162632347
 21
697.872006774
 31
0.0
  0
LINE
  5
256
330
1F
100
AcDbEntity
  8
0
  6
Continuous
 62
     7
370
    25
100
AcDbLine
 10
1064.2162632347
 20
697.872006774
 30
0.0
 11
1064.5062621833
 21
697.872006774
 31
0.0
  0
LINE
  5
257
330
1F
100
AcDbEntity
  8
0
  6
Continuous
 62
     7
370
    25
100
AcDbLine
 10
1064.5062621833
 20
697.872006774
 30
0.0
 11
1064.5062621833
 21
694.8720081449
 31
0.0
  0
LINE
  5
258
330
1F
100
AcDbEntity
  8
0
  6
Continuous
 62
     7
370
    25
100
AcDbLine
 10
1064.5062621833
 20
694.8720081449
 30
0.0
 11
1084.0076614321
 21
694.8720081449
 31
0.0
  0
LINE
  5
259
330
1F
100
AcDbEntity
  8
0
  6
Continuous
 62
     7
370
    25
100
AcDbLine
 10
1084.0076614321
 20
697.872006774
 30
0.0
 11
1084.0076614321
 21
694.8720081449
 31
0.0
  0
LINE
  5
25A
330
1F
100
AcDbEntity
  8
0
  6
Continuous
 62
     7
370
    25
100
AcDbLine
 10
1105.4362334461
 20
697.872006774
 30
0.0
 11
1084.0076614321
 21
697.872006774
 31
0.0
  0
LINE
  5
25B
330
1F
100
AcDbEntity
  8
0
  6
Continuous
 62
     7
370
    25
100
AcDbLine
 10
1105.4362334461
 20
697.872006774
 30
0.0
 11
1105.4362334461
 21
694.8720081449
 31
0.0
  0
LINE
  5
25C
330
1F
100
AcDbEntity
  8
0
  6
Continuous
 62
     7
370
    25
100
AcDbLine
 10
1105.4362334461
 20
694.8720081449
 30
0.0
 11
1126.8590908647
 21
694.8720081449
 31
0.0
  0
LINE
  5
25D
330
1F
100
AcDbEntity
  8
0
  6
Continuous
 62
     7
370
    25
100
AcDbLine
 10
1126.8590908647
 20
697.872006774
 30
0.0
 11
1126.8590908647
 21
694.8720081449
 31
0.0
  0
LINE
  5
25E
330
1F
100
AcDbEntity
  8
0
  6
Continuous
 62
     7
370
    25
100
AcDbLine
 10
1075.5758207441
 20
635.5216330588
 30
0.0
 11
1072.9434859157
 21
636.9606679976
 31
0.0
  0
LINE
  5
25F
330
1F
100
AcDbEntity
  8
0
  6
Continuous
 62
     7
370
    25
100
AcDbLine
 10
1061.4312138558
 20
615.9020005465
 30
0.0
 11
1072.9434859157
 21
636.9606679976
 31
0.0
  0
LINE
  5
260
330
1F
100
AcDbEntity
  8
0
  6
Continuous
 62
     7
370
    25
100
AcDbLine
 10
1061.4312138558
 20
615.9020005465
 30
0.0
 11
1064.0635412336
 21
614.4629656077
 31
0.0
  0
LINE
  5
261
330
1F
100
AcDbEntity
  8
0
  6
Continuous
 62
     7
370
    25
100
AcDbLine
 10
1064.0635412336
 20
614.4629656077
 30
0.0
 11
1075.5758207441
 21
635.5216330588
 31
0.0
  0
LINE
  5
262
330
1F
100
AcDbEntity
  8
0
  6
Continuous
 62
     7
370
    25
100
AcDbLine
 10
1098.6003741772
 20
677.6389716864
 30
0.0
 11
1095.9680412114
 21
679.0780066252
 31
0.0
  0
LINE
  5
263
330
1F
100
AcDbEntity
  8
0
  6
Continuous
 62
     7
370
    25
100
AcDbLine
 10
1084.4557654262
 20
658.0193354488
 30
0.0
 11
1095.9680412114
 21
679.0780066252
 31
0.0
  0
LINE
  5
264
330
1F
100
AcDbEntity
  8
0
  6
Continuous
 62
     7
370
    25
100
AcDbLine
 10
1084.4557654262
 20
658.0193354488
 30
0.0
 11
1087.0880965293
 21
656.58030051
 31
0.0
  0
LINE
  5
265
330
1F
100
AcDbEntity
  8
0
  6
Continuous
 62
     7
370
    25
100
AcDbLine
 10
1087.0880965293
 20
656.58030051
 30
0.0
 11
1098.6003741772
 21
677.6389716864
 31
0.0
  0
LINE
  5
266
330
1F
100
AcDbEntity
  8
0
  6
Continuous
 62
     7
370
    25
100
AcDbLine
 10
1057.4981194139
 20
679.3287484646
 30
0.0
 11
1061.5694891811
 21
680.5220409036
 31
0.0
  0
LINE
  5
267
330
1F
100
AcDbEntity
  8
0
  6
Continuous
 62
     7
370
    25
100
AcDbLine
 10
1057.4981194139
 20
679.3287484646
 30
0.0
 11
1020.5629017354
 21
611.7655201555
 31
0.0
  0
LINE
  5
268
330
1F
100
AcDbEntity
  8
0
  6
Continuous
 62
     7
370
    25
100
AcDbLine
 10
1024.6342715026
 20
612.9588181824
 30
0.0
 11
1020.5629017354
 21
611.7655201555
 31
0.0
  0
LINE
  5
269
330
1F
100
AcDbEntity
  8
0
  6
Continuous
 62
     7
370
    25
100
AcDbLine
 10
1024.6342715026
 20
612.9588181824
 30
0.0
 11
1061.5694891811
 21
680.5220409036
 31
0.0
  0
CIRCLE
  5
26A
330
1F
100
AcDbEntity
  8
0
  6
Continuous
 62
     7
370
    25
100
AcDbCircle
 10
889.6155419695
 20
794.6676752776
 30
0.0
 40
1.500000000000114
  0
CIRCLE
  5
26B
330
1F
100
AcDbEntity
  8
0
  6
Continuous
 62
     7
370
    25
100
AcDbCircle
 10
869.6155419695
 20
794.6676752776
 30
0.0
 40
1.500000000000114
  0
LINE
  5
26C
330
1F
100
AcDbEntity
  8
0
  6
Continuous
 62
     7
370
    25
100
AcDbLine
 10
856.6155419695
 20
758.3676752776
 30
0.0
 11
902.6155420589
 21
758.3676752776
 31
0.0
  0
LINE
  5
26D
330
1F
100
AcDbEntity
  8
0
  6
Continuous
 62
     7
370
    25
100
AcDbLine
 10
902.6155420589
 20
758.3676752776
 30
0.0
 11
902.6155420589
 21
792.3676771254
 31
0.0
  0
LINE
  5
26E
330
1F
100
AcDbEntity
  8
0
  6
Continuous
 62
     7
370
    25
100
AcDbLine
 10
902.6155420589
 20
792.3676771254
 30
0.0
 11
856.6155419695
 21
792.3676771254
 31
0.0
  0
LINE
  5
26F
330
1F
100
AcDbEntity
  8
0
  6
Continuous
 62
     7
370
    25
100
AcDbLine
 10
856.6155419695
 20
792.3676771254
 30
0.0
 11
856.6155419695
 21
758.3676752776
 31
0.0
  0
LINE
  5
270
330
1F
100
AcDbEntity
  8
0
  6
Continuous
 62
     7
370
    25
100
AcDbLine
 10
905.615540688
 20
799.3676764101
 30
0.0
 11
853.6155419434
 21
799.3676764101
 31
0.0
  0
LINE
  5
271
330
1F
100
AcDbEntity
  8
0
  6
Continuous
 62
     7
370
    25
100
AcDbLine
 10
905.615540688
 20
755.3676752515
 30
0.0
 11
905.615540688
 21
799.3676764101
 31
0.0
  0
LINE
  5
272
330
1F
100
AcDbEntity
  8
0
  6
Continuous
 62
     7
370
    25
100
AcDbLine
 10
853.6155419434
 20
755.3676752515
 30
0.0
 11
905.615540688
 21
755.3676752515
 31
0.0
  0
LINE
  5
273
330
1F
100
AcDbEntity
  8
0
  6
Continuous
 62
     7
370
    25
100
AcDbLine
 10
853.6155419434
 20
799.3676764101
 30
0.0
 11
853.6155419434
 21
755.3676752515
 31
0.0
  0
CIRCLE
  5
274
330
1F
100
AcDbEntity
  8
0
  6
Continuous
 62
     7
370
    25
100
AcDbCircle
 10
700.5058839247
 20
665.2414311038
 30
0.0
 40
1.5
  0
CIRCLE
  5
275
330
1F
100
AcDbEntity
  8
0
  6
Continuous
 62
     7
370
    25
100
AcDbCircle
 10
680.5058839247
 20
665.2414311038
 30
0.0
 40
1.500000000000114
  0
LINE
  5
276
330
1F
100
AcDbEntity
  8
0
  6
Continuous
 62
     7
370
    25
100
AcDbLine
 10
716.5058826432
 20
669.9414322363
 30
0.0
 11
664.5058838986
 21
669.9414322363
 31
0.0
  0
LINE
  5
277
330
1F
100
AcDbEntity
  8
0
  6
Continuous
 62
     7
370
    25
100
AcDbLine
 10
716.5058826432
 20
625.9414310777
 30
0.0
 11
716.5058826432
 21
669.9414322363
 31
0.0
  0
LINE
  5
278
330
1F
100
AcDbEntity
  8
0
  6
Continuous
 62
     7
370
    25
100
AcDbLine
 10
664.5058838986
 20
625.9414310777
 30
0.0
 11
716.5058826432
 21
625.9414310777
 31
0.0
  0
LINE
  5
279
330
1F
100
AcDbEntity
  8
0
  6
Continuous
 62
     7
370
    25
100
AcDbLine
 10
664.5058838986
 20
669.9414322363
 30
0.0
 11
664.5058838986
 21
625.9414310777
 31
0.0
  0
LINE
  5
27A
330
1F
100
AcDbEntity
  8
0
  6
Continuous
 62
     7
370
    25
100
AcDbLine
 10
713.5058840141
 20
661.0414305912
 30
0.0
 11
667.5058839247
 21
661.0414305912
 31
0.0
  0
LINE
  5
27B
330
1F
100
AcDbEntity
  8
0
  6
Continuous
 62
     7
370
    25
100
AcDbLine
 10
713.5058840141
 20
630.8414311358
 30
0.0
 11
667.5058839247
 21
630.8414311358
 31
0.0
  0
LINE
  5
27C
330
1F
100
AcDbEntity
  8
0
  6
Continuous
 62
     7
370
    25
100
AcDbLine
 10
713.5058840141
 20
630.8414311358
 30
0.0
 11
713.5058840141
 21
661.0414305912
 31
0.0
  0
LINE
  5
27D
330
1F
100
AcDbEntity
  8
0
  6
Continuous
 62
     7
370
    25
100
AcDbLine
 10
667.5058839247
 20
661.0414305912
 30
0.0
 11
667.5058839247
 21
630.8414311358
 31
0.0
  0
LINE
  5
27E
330
1F
100
AcDbEntity
  8
0
  6
Continuous
 62
     7
370
    25
100
AcDbLine
 10
708.8991657174
 20
721.2239764988
 30
0.0
 11
708.3055493231
 21
721.2239764988
 31
0.0
  0
LINE
  5
27F
330
1F
100
AcDbEntity
  8
0
  6
Continuous
 62
     7
370
    25
100
AcDbLine
 10
708.8991657174
 20
727.1601409368
 30
0.0
 11
708.8991657174
 21
721.2239764988
 31
0.0
  0
LINE
  5
280
330
1F
100
AcDbEntity
  8
0
  6
Continuous
 62
     7
370
    25
100
AcDbLine
 10
710.3408057983
 20
727.1601409368
 30
0.0
 11
708.8991657174
 21
727.1601409368
 31
0.0
  0
LINE
  5
281
330
1F
100
AcDbEntity
  8
0
  6
Continuous
 62
     7
370
    25
100
AcDbLine
 10
710.3408057983
 20
727.8385596939
 30
0.0
 11
710.3408057983
 21
727.1601409368
 31
0.0
  0
LINE
  5
282
330
1F
100
AcDbEntity
  8
0
  6
Continuous
 62
     7
370
    25
100
AcDbLine
 10
706.863909475
 20
727.8385596939
 30
0.0
 11
710.3408057983
 21
727.8385596939
 31
0.0
  0
LINE
  5
283
330
1F
100
AcDbEntity
  8
0
  6
Continuous
 62
     7
370
    25
100
AcDbLine
 10
706.863909475
 20
727.1601409368
 30
0.0
 11
706.863909475
 21
727.8385596939
 31
0.0
  0
LINE
  5
284
330
1F
100
AcDbEntity
  8
0
  6
Continuous
 62
     7
370
    25
100
AcDbLine
 10
708.3055493231
 20
727.1601409368
 30
0.0
 11
706.863909475
 21
727.1601409368
 31
0.0
  0
LINE
  5
285
330
1F
100
AcDbEntity
  8
0
  6
Continuous
 62
     7
370
    25
100
AcDbLine
 10
708.3055493231
 20
721.2239764988
 30
0.0
 11
708.3055493231
 21
727.1601409368
 31
0.0
  0
CIRCLE
  5
286
330
1F
100
AcDbEntity
  8
0
  6
Continuous
 62
     7
370
    25
100
AcDbCircle
 10
790.8493020519
 20
808.3325649559
 30
0.0
 40
1.5
  0
CIRCLE
  5
287
330
1F
100
AcDbEntity
  8
0
  6
Continuous
 62
     7
370
    25
100
AcDbCircle
 10
790.8493020519
 20
737.3325649559
 30
0.0
 40
1.500000000000114
  0
LINE
  5
288
330
1F
100
AcDbEntity
  8
0
  6
Continuous
 62
     7
370
    25
100
AcDbLine
 10
746.9750148985
 20
827.8325684725
 30
0.0
 11
763.7235885295
 21
827.8325684725
 31
0.0
  0
LINE
  5
289
330
1F
100
AcDbEntity
  8
0
  6
Continuous
 62
     7
370
    25
100
AcDbLine
 10
763.7235885295
 20
830.8325671016
 30
0.0
 11
763.7235885295
 21
827.8325684725
 31
0.0
  0
LINE
  5
28A
330
1F
100
AcDbEntity
  8
0
  6
Continuous
 62
     7
370
    25
100
AcDbLine
 10
746.9750148985
 20
830.8325671016
 30
0.0
 11
763.7235885295
 21
830.8325671016
 31
0.0
  0
LINE
  5
28B
330
1F
100
AcDbEntity
  8
0
  6
Continuous
 62
     7
370
    25
100
AcDbLine
 10
746.9750148985
 20
830.8325671016
 30
0.0
 11
746.9750148985
 21
827.8325684725
 31
0.0
  0
LINE
  5
28C
330
1F
100
AcDbEntity
  8
0
  6
Continuous
 62
     7
370
    25
100
AcDbLine
 10
713.4778734571
 20
827.8325684725
 30
0.0
 11
730.2264449927
 21
827.8325684725
 31
0.0
  0
LINE
  5
28D
330
1F
100
AcDbEntity
  8
0
  6
Continuous
 62
     7
370
    25
100
AcDbLine
 10
730.2264449927
 20
830.8325671016
 30
0.0
 11
730.2264449927
 21
827.8325684725
 31
0.0
  0
LINE
  5
28E
330
1F
100
AcDbEntity
  8
0
  6
Continuous
 62
     7
370
    25
100
AcDbLine
 10
713.4778734571
 20
830.8325671016
 30
0.0
 11
730.2264449927
 21
830.8325671016
 31
0.0
  0
LINE
  5
28F
330
1F
100
AcDbEntity
  8
0
  6
Continuous
 62
     7
370
    25
100
AcDbLine
 10
713.4778734571
 20
830.8325671016
 30
0.0
 11
713.4778734571
 21
827.8325684725
 31
0.0
  0
LINE
  5
290
330
1F
100
AcDbEntity
  8
0
  6
Continuous
 62
     7
370
    25
100
AcDbLine
 10
780.4721584353
 20
827.8325684725
 30
0.0
 11
797.220728341
 21
827.8325684725
 31
0.0
  0
LINE
  5
291
330
1F
100
AcDbEntity
  8
0
  6
Continuous
 62
     7
370
    25
100
AcDbLine
 10
797.220728341
 20
830.8325671016
 30
0.0
 11
797.220728341
 21
827.8325684725
 31
0.0
  0
LINE
  5
292
330
1F
100
AcDbEntity
  8
0
  6
Continuous
 62
     7
370
    25
100
AcDbLine
 10
780.4721584353
 20
830.8325671016
 30
0.0
 11
797.220728341
 21
830.8325671016
 31
0.0
  0
LINE
  5
293
330
1F
100
AcDbEntity
  8
0
  6
Continuous
 62
     7
370
    25
100
AcDbLine
 10
780.4721584353
 20
830.8325671016
 30
0.0
 11
780.4721584353
 21
827.8325684725
 31
0.0
  0
ARC
  5
294
330
1F
100
AcDbEntity
  8
0
  6
Continuous
 62
     7
370
    25
100
AcDbCircle
 10
695.7293020519
 20
828.8325649559
 30
0.0
 40
5.0
100
AcDbArc
 50
90.0
 51
180.0
  0
LINE
  5
295
330
1F
100
AcDbEntity
  8
0
  6
Continuous
 62
     7
370
    25
100
AcDbLine
 10
695.729301292
 20
833.8325657307
 30
0.0
 11
808.9693030152
 21
833.8325657307
 31
0.0
  0
ARC
  5
296
330
1F
100
AcDbEntity
  8
0
  6
Continuous
 62
     7
370
    25
100
AcDbCircle
 10
808.9693020519
 20
828.8325649559
 30
0.0
 40
5.0
100
AcDbArc
 50
0.0
 51
90.0
  0
LINE
  5
297
330
1F
100
AcDbEntity
  8
0
  6
Continuous
 62
     7
370
    25
100
AcDbLine
 10
813.9693056974
 20
716.8325651794
 30
0.0
 11
813.9693056974
 21
828.8325630485
 31
0.0
  0
ARC
  5
298
330
1F
100
AcDbEntity
  8
0
  6
Continuous
 62
     7
370
    25
100
AcDbCircle
 10
808.9693020519
 20
716.8325649559
 30
0.0
 40
5.0
100
AcDbArc
 50
270.0
 51
0.0
  0
LINE
  5
299
330
1F
100
AcDbEntity
  8
0
  6
Continuous
 62
     7
370
    25
100
AcDbLine
 10
695.729301292
 20
711.8325652911
 30
0.0
 11
808.9693030152
 21
711.8325652911
 31
0.0
  0
ARC
  5
29A
330
1F
100
AcDbEntity
  8
0
  6
Continuous
 62
     7
370
    25
100
AcDbCircle
 10
695.7293020519
 20
716.8325649559
 30
0.0
 40
5.0
100
AcDbArc
 50
180.0
 51
270.0
  0
LINE
  5
29B
330
1F
100
AcDbEntity
  8
0
  6
Continuous
 62
     7
370
    25
100
AcDbLine
 10
690.7293023351
 20
716.8325651794
 30
0.0
 11
690.7293023351
 21
828.8325630485
 31
0.0
  0
LINE
  5
29C
330
1F
100
AcDbEntity
  8
0
  6
Continuous
 62
     7
370
    25
100
AcDbLine
 10
713.4778734571
 20
717.8325653433
 30
0.0
 11
730.2264449927
 21
717.8325653433
 31
0.0
  0
LINE
  5
29D
330
1F
100
AcDbEntity
  8
0
  6
Continuous
 62
     7
370
    25
100
AcDbLine
 10
713.4778734571
 20
714.8325648516
 30
0.0
 11
713.4778734571
 21
717.8325653433
 31
0.0
  0
LINE
  5
29E
330
1F
100
AcDbEntity
  8
0
  6
Continuous
 62
     7
370
    25
100
AcDbLine
 10
713.4778734571
 20
714.8325648516
 30
0.0
 11
730.2264449927
 21
714.8325648516
 31
0.0
  0
LINE
  5
29F
330
1F
100
AcDbEntity
  8
0
  6
Continuous
 62
     7
370
    25
100
AcDbLine
 10
730.2264449927
 20
714.8325648516
 30
0.0
 11
730.2264449927
 21
717.8325653433
 31
0.0
  0
LINE
  5
2A0
330
1F
100
AcDbEntity
  8
0
  6
Continuous
 62
     7
370
    25
100
AcDbLine
 10
746.9750148985
 20
717.8325653433
 30
0.0
 11
763.7235885295
 21
717.8325653433
 31
0.0
  0
LINE
  5
2A1
330
1F
100
AcDbEntity
  8
0
  6
Continuous
 62
     7
370
    25
100
AcDbLine
 10
746.9750148985
 20
714.8325648516
 30
0.0
 11
746.9750148985
 21
717.8325653433
 31
0.0
  0
LINE
  5
2A2
330
1F
100
AcDbEntity
  8
0
  6
Continuous
 62
     7
370
    25
100
AcDbLine
 10
746.9750148985
 20
714.8325648516
 30
0.0
 11
763.7235885295
 21
714.8325648516
 31
0.0
  0
LINE
  5
2A3
330
1F
100
AcDbEntity
  8
0
  6
Continuous
 62
     7
370
    25
100
AcDbLine
 10
763.7235885295
 20
714.8325648516
 30
0.0
 11
763.7235885295
 21
717.8325653433
 31
0.0
  0
LINE
  5
2A4
330
1F
100
AcDbEntity
  8
0
  6
Continuous
 62
     7
370
    25
100
AcDbLine
 10
780.4721584353
 20
717.8325653433
 30
0.0
 11
797.220728341
 21
717.8325653433
 31
0.0
  0
LINE
  5
2A5
330
1F
100
AcDbEntity
  8
0
  6
Continuous
 62
     7
370
    25
100
AcDbLine
 10
780.4721584353
 20
714.8325648516
 30
0.0
 11
780.4721584353
 21
717.8325653433
 31
0.0
  0
LINE
  5
2A6
330
1F
100
AcDbEntity
  8
0
  6
Continuous
 62
     7
370
    25
100
AcDbLine
 10
780.4721584353
 20
714.8325648516
 30
0.0
 11
797.220728341
 21
714.8325648516
 31
0.0
  0
LINE
  5
2A7
330
1F
100
AcDbEntity
  8
0
  6
Continuous
 62
     7
370
    25
100
AcDbLine
 10
797.220728341
 20
714.8325648516
 30
0.0
 11
797.220728341
 21
717.8325653433
 31
0.0
  0
LINE
  5
2A8
330
1F
100
AcDbEntity
  8
0
  6
Continuous
 62
     7
370
    25
100
AcDbLine
 10
745.74682394
 20
811.6628714263
 30
0.0
 11
759.7906580004
 21
792.3331894337
 31
0.0
  0
ARC
  5
2A9
330
1F
100
AcDbEntity
  8
0
  6
Continuous
 62
     7
370
    25
100
AcDbCircle
 10
755.3493020519
 20
772.8325649559
 30
0.0
 40
20.0
100
AcDbArc
 50
74.3307146116
 51
77.1694855038
  0
LINE
  5
2AA
330
1F
100
AcDbEntity
  8
0
  6
Continuous
 62
     7
370
    25
100
AcDbLine
 10
750.3420850071
 20
812.5179224073
 30
0.0
 11
760.7509894106
 21
792.0892946779
 31
0.0
  0
ARC
  5
2AB
330
1F
100
AcDbEntity
  8
0
  6
Continuous
 62
     7
370
    25
100
AcDbCircle
 10
755.3493020519
 20
772.8325649559
 30
0.0
 40
39.99999999999999
100
AcDbArc
 50
97.1911769909
 51
103.8901956838
  0
LINE
  5
2AC
330
1F
100
AcDbEntity
  8
0
  6
Continuous
 62
     7
370
    25
100
AcDbLine
 10
751.9394447836
 20
812.6869611799
 30
0.0
 11
762.7865476343
 21
791.3983203827
 31
0.0
  0
ARC
  5
2AD
330
1F
100
AcDbEntity
  8
0
  6
Continuous
 62
     7
370
    25
100
AcDbCircle
 10
755.3493020519
 20
772.8325649559
 30
0.0
 40
20.0
100
AcDbArc
 50
65.3307146116
 51
68.1694855038
  0
LINE
  5
2AE
330
1F
100
AcDbEntity
  8
0
  6
Continuous
 62
     7
370
    25
100
AcDbLine
 10
756.6118901405
 20
812.8126301228
 30
0.0
 11
763.6969005498
 21
791.0072096049
 31
0.0
  0
ARC
  5
2AF
330
1F
100
AcDbEntity
  8
0
  6
Continuous
 62
     7
370
    25
100
AcDbCircle
 10
755.3493020519
 20
772.8325649559
 30
0.0
 40
39.99999999999995
100
AcDbArc
 50
88.1911769909
 51
94.8901956838
  0
LINE
  5
2B0
330
1F
100
AcDbEntity
  8
0
  6
Continuous
 62
     7
370
    25
100
AcDbLine
 10
758.21602622
 20
812.7297051608
 30
0.0
 11
765.5993057224
 21
790.0063060581
 31
0.0
  0
ARC
  5
2B1
330
1F
100
AcDbEntity
  8
0
  6
Continuous
 62
     7
370
    25
100
AcDbCircle
 10
755.3493020519
 20
772.8325649559
 30
0.0
 40
20.00000000000001
100
AcDbArc
 50
56.3307146116
 51
59.1694855038
  0
LINE
  5
2B2
330
1F
100
AcDbEntity
  8
0
  6
Continuous
 62
     7
370
    25
100
AcDbLine
 10
762.850604001
 20
812.1229000746
 30
0.0
 11
766.4372687968
 21
789.4775905072
 31
0.0
  0
ARC
  5
2B3
330
1F
100
AcDbEntity
  8
0
  6
Continuous
 62
     7
370
    25
100
AcDbCircle
 10
755.3493020519
 20
772.8325649559
 30
0.0
 40
40.00000000000006
100
AcDbArc
 50
79.1911769909
 51
85.8901956838
  0
LINE
  5
2B4
330
1F
100
AcDbEntity
  8
0
  6
Continuous
 62
     7
370
    25
100
AcDbLine
 10
764.4220208558
 20
811.790052837
 30
0.0
 11
768.1596791181
 21
788.1914154052
 31
0.0
  0
ARC
  5
2B5
330
1F
100
AcDbEntity
  8
0
  6
Continuous
 62
     7
370
    25
100
AcDbCircle
 10
755.3493020519
 20
772.8325649559
 30
0.0
 40
20.00000000000002
100
AcDbArc
 50
47.3307146116
 51
50.1694855038
  0
LINE
  5
2B6
330
1F
100
AcDbEntity
  8
0
  6
Continuous
 62
     7
370
    25
100
AcDbLine
 10
768.9046142432
 20
810.4657121359
 30
0.0
 11
768.9046142432
 21
787.5381261467
 31
0.0
  0
ARC
  5
2B7
330
1F
100
AcDbEntity
  8
0
  6
Continuous
 62
     7
370
    25
100
AcDbCircle
 10
755.3493020519
 20
772.8325649559
 30
0.0
 40
40.0
100
AcDbArc
 50
70.1911769909
 51
76.8901956838
  0
LINE
  5
2B8
330
1F
100
AcDbEntity
  8
0
  6
Continuous
 62
     7
370
    25
100
AcDbLine
 10
770.4046135577
 20
809.8911308109
 30
0.0
 11
770.4046135577
 21
785.9983370065
 31
0.0
  0
ARC
  5
2B9
330
1F
100
AcDbEntity
  8
0
  6
Continuous
 62
     7
370
    25
100
AcDbCircle
 10
755.3493020519
 20
772.8325649559
 30
0.0
 40
19.99999999999999
100
AcDbArc
 50
38.3307146116
 51
41.1694855038
  0
LINE
  5
2BA
330
1F
100
AcDbEntity
  8
0
  6
Continuous
 62
     7
370
    25
100
AcDbLine
 10
774.6248459253
 20
807.8818656861
 30
0.0
 11
771.0381811294
 21
785.2365561186
 31
0.0
  0
ARC
  5
2BB
330
1F
100
AcDbEntity
  8
0
  6
Continuous
 62
     7
370
    25
100
AcDbCircle
 10
755.3493020519
 20
772.8325649559
 30
0.0
 40
40.00000000000001
100
AcDbArc
 50
61.1911769909
 51
67.8901956838
  0
LINE
  5
2BC
330
1F
100
AcDbEntity
  8
0
  6
Continuous
 62
     7
370
    25
100
AcDbLine
 10
776.0164951715
 20
807.0797138273
 30
0.0
 11
772.2788406345
 21
783.4810763954
 31
0.0
  0
ARC
  5
2BD
330
1F
100
AcDbEntity
  8
0
  6
Continuous
 62
     7
370
    25
100
AcDbCircle
 10
755.3493020519
 20
772.8325649559
 30
0.0
 40
20.00000000000007
100
AcDbArc
 50
29.3307146116
 51
32.1694855038
  0
LINE
  5
2BE
330
1F
100
AcDbEntity
  8
0
  6
Continuous
 62
     7
370
    25
100
AcDbLine
 10
779.8704495463
 20
804.4349886834
 30
0.0
 11
772.7854391369
 21
782.6295607149
 31
0.0
  0
ARC
  5
2BF
330
1F
100
AcDbEntity
  8
0
  6
Continuous
 62
     7
370
    25
100
AcDbCircle
 10
755.3493020519
 20
772.8325649559
 30
0.0
 40
39.99999999999999
100
AcDbArc
 50
52.1911769909
 51
58.8901956838
  0
LINE
  5
2C0
330
1F
100
AcDbEntity
  8
0
  6
Continuous
 62
     7
370
    25
100
AcDbLine
 10
781.1194797787
 20
803.4250103294
 30
0.0
 11
773.7362040016
 21
780.7016112267
 31
0.0
  0
ARC
  5
2C1
330
1F
100
AcDbEntity
  8
0
  6
Continuous
 62
     7
370
    25
100
AcDbCircle
 10
755.3493020519
 20
772.8325649559
 30
0.0
 40
19.99999999999995
100
AcDbArc
 50
20.3307146116
 51
23.1694855038
  0
LINE
  5
2C2
330
1F
100
AcDbEntity
  8
0
  6
Continuous
 62
     7
370
    25
100
AcDbLine
 10
784.5122655663
 20
800.209958142
 30
0.0
 11
774.1033574375
 21
779.7813341378
 31
0.0
  0
ARC
  5
2C3
330
1F
100
AcDbEntity
  8
0
  6
Continuous
 62
     7
370
    25
100
AcDbCircle
 10
755.3493020519
 20
772.8325649559
 30
0.0
 40
40.00000000000004
100
AcDbArc
 50
43.1911769909
 51
49.8901956838
  0
LINE
  5
2C4
330
1F
100
AcDbEntity
  8
0
  6
Continuous
 62
     7
370
    25
100
AcDbLine
 10
785.5879207882
 20
799.0170233308
 30
0.0
 11
774.7408216628
 21
777.728386259
 31
0.0
  0
ARC
  5
2C5
330
1F
100
AcDbEntity
  8
0
  6
Continuous
 62
     7
370
    25
100
AcDbCircle
 10
755.3493020519
 20
772.8325649559
 30
0.0
 40
19.99999999999998
100
AcDbArc
 50
11.3307146116
 51
14.1694855038
  0
LINE
  5
2C6
330
1F
100
AcDbEntity
  8
0
  6
Continuous
 62
     7
370
    25
100
AcDbLine
 10
788.4359871778
 20
795.3108065187
 30
0.0
 11
774.9594887528
 21
776.7620012521
 31
0.0
  0
ARC
  5
2C7
330
1F
100
AcDbEntity
  8
0
  6
Continuous
 62
     7
370
    25
100
AcDbCircle
 10
755.3493020519
 20
772.8325649559
 30
0.0
 40
39.99999999999998
100
AcDbArc
 50
34.1911769909
 51
40.8901956838
  0
LINE
  5
2C8
330
1F
100
AcDbEntity
  8
0
  6
Continuous
 62
     7
370
    25
100
AcDbLine
 10
789.3117880258
 20
793.9642854392
 30
0.0
 11
775.2679502401
 21
774.6346071719
 31
0.0
  0
ARC
  5
2C9
330
1F
100
AcDbEntity
  8
0
  6
Continuous
 62
     7
370
    25
100
AcDbCircle
 10
755.3493020519
 20
772.8325649559
 30
0.0
 40
20.00000000000004
100
AcDbArc
 50
2.3307146116
 51
5.1694855038
  0
LINE
  5
2CA
330
1F
100
AcDbEntity
  8
0
  6
Continuous
 62
     7
370
    25
100
AcDbLine
 10
791.5450027022
 20
789.8581661641
 30
0.0
 11
775.3327553901
 21
773.6459151267
 31
0.0
  0
ARC
  5
2CB
330
1F
100
AcDbEntity
  8
0
  6
Continuous
 62
     7
370
    25
100
AcDbCircle
 10
755.3493020519
 20
772.8325649559
 30
0.0
 40
40.00000000000002
100
AcDbArc
 50
25.1911769909
 51
31.8901956838
  0
LINE
  5
2CC
330
1F
100
AcDbEntity
  8
0
  6
Continuous
 62
     7
370
    25
100
AcDbLine
 10
792.1993797454
 20
788.391217625
 30
0.0
 11
775.3046219978
 21
771.4964598774
 31
0.0
  0
ARC
  5
2CD
330
1F
100
AcDbEntity
  8
0
  6
Continuous
 62
     7
370
    25
100
AcDbCircle
 10
755.3493020519
 20
772.8325649559
 30
0.0
 40
19.99999999999997
100
AcDbArc
 50
353.3307146116
 51
356.1694855038
  0
LINE
  5
2CE
330
1F
100
AcDbEntity
  8
0
  6
Continuous
 62
     7
370
    25
100
AcDbLine
 10
793.7627648744
 20
783.9862928151
 30
0.0
 11
775.2139633331
 21
770.5097981154
 31
0.0
  0
ARC
  5
2CF
330
1F
100
AcDbEntity
  8
0
  6
Continuous
 62
     7
370
    25
100
AcDbCircle
 10
755.3493020519
 20
772.8325649559
 30
0.0
 40
39.99999999999994
100
AcDbArc
 50
16.1911769909
 51
22.8901956838
  0
LINE
  5
2D0
330
1F
100
AcDbEntity
  8
0
  6
Continuous
 62
     7
370
    25
100
AcDbLine
 10
794.179602507
 20
782.4350409566
 30
0.0
 11
774.8499279651
 21
768.3912106215
 31
0.0
  0
ARC
  5
2D1
330
1F
100
AcDbEntity
  8
0
  6
Continuous
 62
     7
370
    25
100
AcDbCircle
 10
755.3493020519
 20
772.8325649559
 30
0.0
 40
20.0
100
AcDbArc
 50
344.3307146116
 51
347.1694855038
  0
LINE
  5
2D2
330
1F
100
AcDbEntity
  8
0
  6
Continuous
 62
     7
370
    25
100
AcDbLine
 10
795.0346609387
 20
777.8397836148
 30
0.0
 11
774.6060332092
 21
767.4308792113
 31
0.0
  0
ARC
  5
2D3
330
1F
100
AcDbEntity
  8
0
  6
Continuous
 62
     7
370
    25
100
AcDbCircle
 10
755.3493020519
 20
772.8325649559
 30
0.0
 40
39.99999999999999
100
AcDbArc
 50
7.1911769909
 51
13.8901956838
  0
LINE
  5
2D4
330
1F
100
AcDbEntity
  8
0
  6
Continuous
 62
     7
370
    25
100
AcDbLine
 10
795.2036997112
 20
776.2424238383
 30
0.0
 11
773.9150589141
 21
765.3953209876
 31
0.0
  0
ARC
  5
2D5
330
1F
100
AcDbEntity
  8
0
  6
Continuous
 62
     7
370
    25
100
AcDbCircle
 10
755.3493020519
 20
772.8325649559
 30
0.0
 40
20.00000000000005
100
AcDbArc
 50
335.3307146116
 51
338.1694855038
  0
LINE
  5
2D6
330
1F
100
AcDbEntity
  8
0
  6
Continuous
 62
     7
370
    25
100
AcDbLine
 10
795.3293686542
 20
771.5699784814
 30
0.0
 11
773.523944411
 21
764.4849643468
 31
0.0
  0
ARC
  5
2D7
330
1F
100
AcDbEntity
  8
0
  6
Continuous
 62
     7
370
    25
100
AcDbCircle
 10
755.3493020519
 20
772.8325649559
 30
0.0
 40
39.99999999999995
100
AcDbArc
 50
358.1911769909
 51
4.8901956838
  0
LINE
  5
2D8
330
1F
100
AcDbEntity
  8
0
  6
Continuous
 62
     7
370
    25
100
AcDbLine
 10
795.2464436921
 20
769.9658386766
 30
0.0
 11
772.5230445894
 21
762.5825591742
 31
0.0
  0
ARC
  5
2D9
330
1F
100
AcDbEntity
  8
0
  6
Continuous
 62
     7
370
    25
100
AcDbCircle
 10
755.3493020519
 20
772.8325649559
 30
0.0
 40
19.99999999999998
100
AcDbArc
 50
326.3307146116
 51
329.1694855038
  0
LINE
  5
2DA
330
1F
100
AcDbEntity
  8
0
  6
Continuous
 62
     7
370
    25
100
AcDbLine
 10
794.639638606
 20
765.3312608956
 30
0.0
 11
771.9943290385
 21
761.7445960998
 31
0.0
  0
ARC
  5
2DB
330
1F
100
AcDbEntity
  8
0
  6
Continuous
 62
     7
370
    25
100
AcDbCircle
 10
755.3493020519
 20
772.8325649559
 30
0.0
 40
39.99999999999999
100
AcDbArc
 50
349.1911769909
 51
355.8901956838
  0
LINE
  5
2DC
330
1F
100
AcDbEntity
  8
0
  6
Continuous
 62
     7
370
    25
100
AcDbLine
 10
794.3067913684
 20
763.7598477661
 30
0.0
 11
770.7081539365
 21
760.0221895038
 31
0.0
  0
ARC
  5
2DD
330
1F
100
AcDbEntity
  8
0
  6
Continuous
 62
     7
370
    25
100
AcDbCircle
 10
755.3493020519
 20
772.8325649559
 30
0.0
 40
20.00000000000002
100
AcDbArc
 50
317.3307146116
 51
320.1694855038
  0
LINE
  5
2DE
330
1F
100
AcDbEntity
  8
0
  6
Continuous
 62
     7
370
    25
100
AcDbLine
 10
792.9824432167
 20
759.2772543787
 30
0.0
 11
770.0548609528
 21
759.2772543787
 31
0.0
  0
ARC
  5
2DF
330
1F
100
AcDbEntity
  8
0
  6
Continuous
 62
     7
370
    25
100
AcDbCircle
 10
755.3493020519
 20
772.8325649559
 30
0.0
 40
39.99999999999994
100
AcDbArc
 50
340.1911769909
 51
346.8901956838
  0
LINE
  5
2E0
330
1F
100
AcDbEntity
  8
0
  6
Continuous
 62
     7
370
    25
100
AcDbLine
 10
792.4078693422
 20
757.7772532015
 30
0.0
 11
768.5150755378
 21
757.7772532015
 31
0.0
  0
ARC
  5
2E1
330
1F
100
AcDbEntity
  8
0
  6
Continuous
 62
     7
370
    25
100
AcDbCircle
 10
755.3493020519
 20
772.8325649559
 30
0.0
 40
20.00000000000008
100
AcDbArc
 50
308.3307146116
 51
311.1694855038
  0
LINE
  5
2E2
330
1F
100
AcDbEntity
  8
0
  6
Continuous
 62
     7
370
    25
100
AcDbLine
 10
790.3986042174
 20
753.557020834
 30
0.0
 11
767.75329465
 21
757.1436856299
 31
0.0
  0
ARC
  5
2E3
330
1F
100
AcDbEntity
  8
0
  6
Continuous
 62
     7
370
    25
100
AcDbCircle
 10
755.3493020519
 20
772.8325649559
 30
0.0
 40
40.00000000000007
100
AcDbArc
 50
331.1911769909
 51
337.8901956838
  0
LINE
  5
2E4
330
1F
100
AcDbEntity
  8
0
  6
Continuous
 62
     7
370
    25
100
AcDbLine
 10
789.5964523586
 20
752.1653715878
 30
0.0
 11
765.9978112015
 21
755.9030279874
 31
0.0
  0
ARC
  5
2E5
330
1F
100
AcDbEntity
  8
0
  6
Continuous
 62
     7
370
    25
100
AcDbCircle
 10
755.3493020519
 20
772.8325649559
 30
0.0
 40
19.99999999999997
100
AcDbArc
 50
299.3307146116
 51
302.1694855038
  0
LINE
  5
2E6
330
1F
100
AcDbEntity
  8
0
  6
Continuous
 62
     7
370
    25
100
AcDbLine
 10
786.9517272147
 20
748.3114153503
 30
0.0
 11
765.1462992462
 21
755.396429485
 31
0.0
  0
ARC
  5
2E7
330
1F
100
AcDbEntity
  8
0
  6
Continuous
 62
     7
370
    25
100
AcDbCircle
 10
755.3493020519
 20
772.8325649559
 30
0.0
 40
40.00000000000006
100
AcDbArc
 50
322.1911769909
 51
328.8901956838
  0
LINE
  5
2E8
330
1F
100
AcDbEntity
  8
0
  6
Continuous
 62
     7
370
    25
100
AcDbLine
 10
785.9417488608
 20
747.0623851179
 30
0.0
 11
763.2183497581
 21
754.4456646203
 31
0.0
  0
ARC
  5
2E9
330
1F
100
AcDbEntity
  8
0
  6
Continuous
 62
     7
370
    25
100
AcDbCircle
 10
755.3493020519
 20
772.8325649559
 30
0.0
 40
20.00000000000005
100
AcDbArc
 50
290.3307146116
 51
293.1694855038
  0
LINE
  5
2EA
330
1F
100
AcDbEntity
  8
0
  6
Continuous
 62
     7
370
    25
100
AcDbLine
 10
782.7266966733
 20
743.6696030556
 30
0.0
 11
762.2980689439
 21
754.0785093217
 31
0.0
  0
ARC
  5
2EB
330
1F
100
AcDbEntity
  8
0
  6
Continuous
 62
     7
370
    25
100
AcDbCircle
 10
755.3493020519
 20
772.8325649559
 30
0.0
 40
40.00000000000004
100
AcDbArc
 50
313.1911769909
 51
319.8901956838
  0
LINE
  5
2EC
330
1F
100
AcDbEntity
  8
0
  6
Continuous
 62
     7
370
    25
100
AcDbLine
 10
781.5337618622
 20
742.593945971
 30
0.0
 11
760.2451247904
 21
753.4410469591
 31
0.0
  0
ARC
  5
2ED
330
1F
100
AcDbEntity
  8
0
  6
Continuous
 62
     7
370
    25
100
AcDbCircle
 10
755.3493020519
 20
772.8325649559
 30
0.0
 40
19.99999999999999
100
AcDbArc
 50
281.3307146116
 51
284.1694855038
  0
LINE
  5
2EE
330
1F
100
AcDbEntity
  8
0
  6
Continuous
 62
     7
370
    25
100
AcDbLine
 10
777.8275450501
 20
739.7458805128
 30
0.0
 11
759.2787397834
 21
753.2223761438
 31
0.0
  0
ARC
  5
2EF
330
1F
100
AcDbEntity
  8
0
  6
Continuous
 62
     7
370
    25
100
AcDbCircle
 10
755.3493020519
 20
772.8325649559
 30
0.0
 40
40.00000000000007
100
AcDbArc
 50
304.1911769909
 51
310.8901956838
  0
LINE
  5
2F0
330
1F
100
AcDbEntity
  8
0
  6
Continuous
 62
     7
370
    25
100
AcDbLine
 10
776.4810239705
 20
738.8700805961
 30
0.0
 11
757.1513457033
 21
752.9139146565
 31
0.0
  0
ARC
  5
2F1
330
1F
100
AcDbEntity
  8
0
  6
Continuous
 62
     7
370
    25
100
AcDbCircle
 10
755.3493020519
 20
772.8325649559
 30
0.0
 40
20.00000000000004
100
AcDbArc
 50
272.3307146116
 51
275.1694855038
  0
LINE
  5
2F2
330
1F
100
AcDbEntity
  8
0
  6
Continuous
 62
     7
370
    25
100
AcDbLine
 10
772.3749009701
 20
736.6368603318
 30
0.0
 11
756.1626499328
 21
752.8491095065
 31
0.0
  0
ARC
  5
2F3
330
1F
100
AcDbEntity
  8
0
  6
Continuous
 62
     7
370
    25
100
AcDbCircle
 10
755.3493020519
 20
772.8325649559
 30
0.0
 40
40.00000000000002
100
AcDbArc
 50
295.1911769909
 51
301.8901956838
  0
LINE
  5
2F4
330
1F
100
AcDbEntity
  8
0
  6
Continuous
 62
     7
370
    25
100
AcDbLine
 10
770.9079561564
 20
735.9824860825
 30
0.0
 11
754.0131946835
 21
752.8772447615
 31
0.0
  0
ARC
  5
2F5
330
1F
100
AcDbEntity
  8
0
  6
Continuous
 62
     7
370
    25
100
AcDbCircle
 10
755.3493020519
 20
772.8325649559
 30
0.0
 40
20.00000000000005
100
AcDbArc
 50
263.3307146116
 51
266.1694855038
  0
LINE
  5
2F6
330
1F
100
AcDbEntity
  8
0
  6
Continuous
 62
     7
370
    25
100
AcDbLine
 10
766.5030313465
 20
734.4190995566
 30
0.0
 11
753.0265366468
 21
752.9679034262
 31
0.0
  0
ARC
  5
2F7
330
1F
100
AcDbEntity
  8
0
  6
Continuous
 62
     7
370
    25
100
AcDbCircle
 10
755.3493020519
 20
772.8325649559
 30
0.0
 40
40.00000000000009
100
AcDbArc
 50
286.1911769909
 51
292.8901956838
  0
LINE
  5
2F8
330
1F
100
AcDbEntity
  8
0
  6
Continuous
 62
     7
370
    25
100
AcDbLine
 10
764.951779488
 20
734.0022619239
 30
0.0
 11
750.9079454276
 21
753.3319406568
 31
0.0
  0
ARC
  5
2F9
330
1F
100
AcDbEntity
  8
0
  6
Continuous
 62
     7
370
    25
100
AcDbCircle
 10
755.3493020519
 20
772.8325649559
 30
0.0
 40
20.0
100
AcDbArc
 50
254.3307146116
 51
257.1694855038
  0
LINE
  5
2FA
330
1F
100
AcDbEntity
  8
0
  6
Continuous
 62
     7
370
    25
100
AcDbLine
 10
760.3565184209
 20
733.1472053549
 30
0.0
 11
749.9476140174
 21
753.5758316874
 31
0.0
  0
ARC
  5
2FB
330
1F
100
AcDbEntity
  8
0
  6
Continuous
 62
     7
370
    25
100
AcDbCircle
 10
755.3493020519
 20
772.8325649559
 30
0.0
 40
39.99999999999999
100
AcDbArc
 50
277.1911769909
 51
283.8901956838
  0
LINE
  5
2FC
330
1F
100
AcDbEntity
  8
0
  6
Continuous
 62
     7
370
    25
100
AcDbLine
 10
758.7591586444
 20
732.9781689107
 30
0.0
 11
747.9120557937
 21
754.2668059825
 31
0.0
  0
ARC
  5
2FD
330
1F
100
AcDbEntity
  8
0
  6
Continuous
 62
     7
370
    25
100
AcDbCircle
 10
755.3493020519
 20
772.8325649559
 30
0.0
 40
20.00000000000011
100
AcDbArc
 50
245.3307146116
 51
248.1694855038
  0
LINE
  5
2FE
330
1F
100
AcDbEntity
  8
0
  6
Continuous
 62
     7
370
    25
100
AcDbLine
 10
754.0867132875
 20
732.8524967081
 30
0.0
 11
747.0017028782
 21
754.6579242109
 31
0.0
  0
ARC
  5
2FF
330
1F
100
AcDbEntity
  8
0
  6
Continuous
 62
     7
370
    25
100
AcDbCircle
 10
755.3493020519
 20
772.8325649559
 30
0.0
 40
40.00000000000007
100
AcDbArc
 50
268.1911769909
 51
274.8901956838
  0
LINE
  5
300
330
1F
100
AcDbEntity
  8
0
  6
Continuous
 62
     7
370
    25
100
AcDbLine
 10
752.482577208
 20
732.9354235328
 30
0.0
 11
745.0992977056
 21
755.6588240325
 31
0.0
  0
ARC
  5
301
330
1F
100
AcDbEntity
  8
0
  6
Continuous
 62
     7
370
    25
100
AcDbCircle
 10
755.3493020519
 20
772.8325649559
 30
0.0
 40
20.00000000000001
100
AcDbArc
 50
236.3307146116
 51
239.1694855038
  0
LINE
  5
302
330
1F
100
AcDbEntity
  8
0
  6
Continuous
 62
     7
370
    25
100
AcDbLine
 10
747.847999427
 20
733.5422295502
 30
0.0
 11
744.2613346311
 21
756.1875358581
 31
0.0
  0
ARC
  5
303
330
1F
100
AcDbEntity
  8
0
  6
Continuous
 62
     7
370
    25
100
AcDbCircle
 10
755.3493020519
 20
772.8325649559
 30
0.0
 40
40.0000000000001
100
AcDbArc
 50
259.1911769909
 51
265.8901956838
  0
LINE
  5
304
330
1F
100
AcDbEntity
  8
0
  6
Continuous
 62
     7
370
    25
100
AcDbLine
 10
746.2765825721
 20
733.8750781848
 30
0.0
 11
742.5389261725
 21
757.4737146853
 31
0.0
  0
ARC
  5
305
330
1F
100
AcDbEntity
  8
0
  6
Continuous
 62
     7
370
    25
100
AcDbCircle
 10
755.3493020519
 20
772.8325649559
 30
0.0
 40
20.00000000000004
100
AcDbArc
 50
227.3307146116
 51
230.1694855038
  0
LINE
  5
306
330
1F
100
AcDbEntity
  8
0
  6
Continuous
 62
     7
370
    25
100
AcDbLine
 10
741.7939891848
 20
735.1994207486
 30
0.0
 11
741.7939891848
 21
758.1270039438
 31
0.0
  0
ARC
  5
307
330
1F
100
AcDbEntity
  8
0
  6
Continuous
 62
     7
370
    25
100
AcDbCircle
 10
755.3493020519
 20
772.8325649559
 30
0.0
 40
40.00000000000005
100
AcDbArc
 50
250.1911769909
 51
256.8901956838
  0
LINE
  5
308
330
1F
100
AcDbEntity
  8
0
  6
Continuous
 62
     7
370
    25
100
AcDbLine
 10
740.2939898702
 20
735.7739955544
 30
0.0
 11
740.2939898702
 21
759.6667930841
 31
0.0
  0
ARC
  5
309
330
1F
100
AcDbEntity
  8
0
  6
Continuous
 62
     7
370
    25
100
AcDbCircle
 10
755.3493020519
 20
772.8325649559
 30
0.0
 40
19.99999999999999
100
AcDbArc
 50
218.3307146116
 51
221.1694855038
  0
LINE
  5
30A
330
1F
100
AcDbEntity
  8
0
  6
Continuous
 62
     7
370
    25
100
AcDbLine
 10
736.0737575027
 20
737.7832653358
 30
0.0
 11
739.6604222986
 21
760.4285739719
 31
0.0
  0
ARC
  5
30B
330
1F
100
AcDbEntity
  8
0
  6
Continuous
 62
     7
370
    25
100
AcDbCircle
 10
755.3493020519
 20
772.8325649559
 30
0.0
 40
40.00000000000007
100
AcDbArc
 50
241.1911769909
 51
247.8901956838
  0
LINE
  5
30C
330
1F
100
AcDbEntity
  8
0
  6
Continuous
 62
     7
370
    25
100
AcDbLine
 10
734.6821082565
 20
738.5854171946
 30
0.0
 11
738.4197646561
 21
762.1840536951
 31
0.0
  0
ARC
  5
30D
330
1F
100
AcDbEntity
  8
0
  6
Continuous
 62
     7
370
    25
100
AcDbCircle
 10
755.3493020519
 20
772.8325649559
 30
0.0
 40
20.00000000000002
100
AcDbArc
 50
209.3307146116
 51
212.1694855038
  0
LINE
  5
30E
330
1F
100
AcDbEntity
  8
0
  6
Continuous
 62
     7
370
    25
100
AcDbLine
 10
730.8281538817
 20
741.2301404758
 30
0.0
 11
737.9131661537
 21
763.0355656504
 31
0.0
  0
ARC
  5
30F
330
1F
100
AcDbEntity
  8
0
  6
Continuous
 62
     7
370
    25
100
AcDbCircle
 10
755.3493020519
 20
772.8325649559
 30
0.0
 40
40.00000000000014
100
AcDbArc
 50
232.1911769909
 51
238.8901956838
  0
LINE
  5
310
330
1F
100
AcDbEntity
  8
0
  6
Continuous
 62
     7
370
    25
100
AcDbLine
 10
729.5791217866
 20
742.2401178985
 30
0.0
 11
736.962401289
 21
764.9635188638
 31
0.0
  0
ARC
  5
311
330
1F
100
AcDbEntity
  8
0
  6
Continuous
 62
     7
370
    25
100
AcDbCircle
 10
755.3493020519
 20
772.8325649559
 30
0.0
 40
20.00000000000005
100
AcDbArc
 50
200.3307146116
 51
203.1694855038
  0
LINE
  5
312
330
1F
100
AcDbEntity
  8
0
  6
Continuous
 62
     7
370
    25
100
AcDbLine
 10
726.1863406557
 20
745.4551719486
 30
0.0
 11
736.5952459904
 21
765.8837959527
 31
0.0
  0
ARC
  5
313
330
1F
100
AcDbEntity
  8
0
  6
Continuous
 62
     7
370
    25
100
AcDbCircle
 10
755.3493020519
 20
772.8325649559
 30
0.0
 40
40.00000000000011
100
AcDbArc
 50
223.1911769909
 51
229.8901956838
  0
LINE
  5
314
330
1F
100
AcDbEntity
  8
0
  6
Continuous
 62
     7
370
    25
100
AcDbLine
 10
725.1106826398
 20
746.6481067597
 30
0.0
 11
735.9577854904
 21
767.9367438315
 31
0.0
  0
ARC
  5
315
330
1F
100
AcDbEntity
  8
0
  6
Continuous
 62
     7
370
    25
100
AcDbCircle
 10
755.3493020519
 20
772.8325649559
 30
0.0
 40
19.99999999999999
100
AcDbArc
 50
191.3307146116
 51
194.1694855038
  0
LINE
  5
316
330
1F
100
AcDbEntity
  8
0
  6
Continuous
 62
     7
370
    25
100
AcDbLine
 10
722.2626171815
 20
750.3543254345
 30
0.0
 11
735.7391128126
 21
768.9031288384
 31
0.0
  0
ARC
  5
317
330
1F
100
AcDbEntity
  8
0
  6
Continuous
 62
     7
370
    25
100
AcDbCircle
 10
755.3493020519
 20
772.8325649559
 30
0.0
 40
40.00000000000007
100
AcDbArc
 50
214.1911769909
 51
220.8901956838
  0
LINE
  5
318
330
1F
100
AcDbEntity
  8
0
  6
Continuous
 62
     7
370
    25
100
AcDbLine
 10
721.3868181962
 20
751.7008427887
 30
0.0
 11
735.4306513253
 21
771.0305229186
 31
0.0
  0
ARC
  5
319
330
1F
100
AcDbEntity
  8
0
  6
Continuous
 62
     7
370
    25
100
AcDbCircle
 10
755.3493020519
 20
772.8325649559
 30
0.0
 40
20.00000000000004
100
AcDbArc
 50
182.3307146116
 51
185.1694855038
  0
LINE
  5
31A
330
1F
100
AcDbEntity
  8
0
  6
Continuous
 62
     7
370
    25
100
AcDbLine
 10
719.1535979318
 20
755.8069676518
 30
0.0
 11
735.3658480379
 21
772.0192149638
 31
0.0
  0
ARC
  5
31B
330
1F
100
AcDbEntity
  8
0
  6
Continuous
 62
     7
370
    25
100
AcDbCircle
 10
755.3493020519
 20
772.8325649559
 30
0.0
 40
40.00000000000002
100
AcDbArc
 50
205.1911769909
 51
211.8901956838
  0
LINE
  5
31C
330
1F
100
AcDbEntity
  8
0
  6
Continuous
 62
     7
370
    25
100
AcDbLine
 10
718.4992227512
 20
757.2739124655
 30
0.0
 11
735.3939814302
 21
774.1686702131
 31
0.0
  0
ARC
  5
31D
330
1F
100
AcDbEntity
  8
0
  6
Continuous
 62
     7
370
    25
100
AcDbCircle
 10
755.3493020519
 20
772.8325649559
 30
0.0
 40
20.00000000000005
100
AcDbArc
 50
173.3307146116
 51
176.1694855038
  0
LINE
  5
31E
330
1F
100
AcDbEntity
  8
0
  6
Continuous
 62
     7
370
    25
100
AcDbLine
 10
716.9358366909
 20
761.6788372754
 30
0.0
 11
735.4846419576
 21
775.1553319751
 31
0.0
  0
ARC
  5
31F
330
1F
100
AcDbEntity
  8
0
  6
Continuous
 62
     7
370
    25
100
AcDbCircle
 10
755.3493020519
 20
772.8325649559
 30
0.0
 40
40.00000000000001
100
AcDbArc
 50
196.1911769909
 51
202.8901956838
  0
LINE
  5
320
330
1F
100
AcDbEntity
  8
0
  6
Continuous
 62
     7
370
    25
100
AcDbLine
 10
716.5189990583
 20
763.2300891339
 30
0.0
 11
735.8486773255
 21
777.273919469
 31
0.0
  0
ARC
  5
321
330
1F
100
AcDbEntity
  8
0
  6
Continuous
 62
     7
370
    25
100
AcDbCircle
 10
755.3493020519
 20
772.8325649559
 30
0.0
 40
20.0
100
AcDbArc
 50
164.3307146116
 51
167.1694855038
  0
LINE
  5
322
330
1F
100
AcDbEntity
  8
0
  6
Continuous
 62
     7
370
    25
100
AcDbLine
 10
715.6639424893
 20
767.8253464757
 30
0.0
 11
736.0925683561
 21
778.2342508792
 31
0.0
  0
ARC
  5
323
330
1F
100
AcDbEntity
  8
0
  6
Continuous
 62
     7
370
    25
100
AcDbCircle
 10
755.3493020519
 20
772.8325649559
 30
0.0
 40
40.00000000000001
100
AcDbArc
 50
187.1911769909
 51
193.8901956838
  0
LINE
  5
324
330
1F
100
AcDbEntity
  8
0
  6
Continuous
 62
     7
370
    25
100
AcDbLine
 10
715.494906045
 20
769.4227062522
 30
0.0
 11
736.7835445139
 21
780.2698091029
 31
0.0
  0
ARC
  5
325
330
1F
100
AcDbEntity
  8
0
  6
Continuous
 62
     7
370
    25
100
AcDbCircle
 10
755.3493020519
 20
772.8325649559
 30
0.0
 40
20.00000000000007
100
AcDbArc
 50
155.3307146116
 51
158.1694855038
  0
LINE
  5
326
330
1F
100
AcDbEntity
  8
0
  6
Continuous
 62
     7
370
    25
100
AcDbLine
 10
715.3692336096
 20
774.0951516091
 30
0.0
 11
737.1746608797
 21
781.1801657437
 31
0.0
  0
ARC
  5
327
330
1F
100
AcDbEntity
  8
0
  6
Continuous
 62
     7
370
    25
100
AcDbCircle
 10
755.3493020519
 20
772.8325649559
 30
0.0
 40
40.00000000000006
100
AcDbArc
 50
178.1911769909
 51
184.8901956838
  0
LINE
  5
328
330
1F
100
AcDbEntity
  8
0
  6
Continuous
 62
     7
370
    25
100
AcDbLine
 10
715.4521606672
 20
775.6992914139
 30
0.0
 11
738.1755607012
 21
783.0825709163
 31
0.0
  0
ARC
  5
329
330
1F
100
AcDbEntity
  8
0
  6
Continuous
 62
     7
370
    25
100
AcDbCircle
 10
755.3493020519
 20
772.8325649559
 30
0.0
 40
20.00000000000001
100
AcDbArc
 50
146.3307146116
 51
149.1694855038
  0
LINE
  5
32A
330
1F
100
AcDbEntity
  8
0
  6
Continuous
 62
     7
370
    25
100
AcDbLine
 10
716.0589666846
 20
780.3338691949
 30
0.0
 11
738.7042725268
 21
783.9205339908
 31
0.0
  0
ARC
  5
32B
330
1F
100
AcDbEntity
  8
0
  6
Continuous
 62
     7
370
    25
100
AcDbCircle
 10
755.3493020519
 20
772.8325649559
 30
0.0
 40
40.0000000000001
100
AcDbArc
 50
169.1911769909
 51
175.8901956838
  0
LINE
  5
32C
330
1F
100
AcDbEntity
  8
0
  6
Continuous
 62
     7
370
    25
100
AcDbLine
 10
716.3918153192
 20
781.9052823245
 30
0.0
 11
739.9904513541
 21
785.6429405867
 31
0.0
  0
ARC
  5
32D
330
1F
100
AcDbEntity
  8
0
  6
Continuous
 62
     7
370
    25
100
AcDbCircle
 10
755.3493020519
 20
772.8325649559
 30
0.0
 40
20.00000000000002
100
AcDbArc
 50
137.3307146116
 51
140.1694855038
  0
LINE
  5
32E
330
1F
100
AcDbEntity
  8
0
  6
Continuous
 62
     7
370
    25
100
AcDbLine
 10
717.7161583486
 20
786.3878757118
 30
0.0
 11
740.6437406125
 21
786.3878757118
 31
0.0
  0
ARC
  5
32F
330
1F
100
AcDbEntity
  8
0
  6
Continuous
 62
     7
370
    25
100
AcDbCircle
 10
755.3493020519
 20
772.8325649559
 30
0.0
 40
40.00000000000005
100
AcDbArc
 50
160.1911769909
 51
166.8901956838
  0
LINE
  5
330
330
1F
100
AcDbEntity
  8
0
  6
Continuous
 62
     7
370
    25
100
AcDbLine
 10
718.2907326887
 20
787.8878787517
 30
0.0
 11
742.1835297528
 21
787.8878787517
 31
0.0
  0
ARC
  5
331
330
1F
100
AcDbEntity
  8
0
  6
Continuous
 62
     7
370
    25
100
AcDbCircle
 10
755.3493020519
 20
772.8325649559
 30
0.0
 40
20.00000000000007
100
AcDbArc
 50
128.3307146116
 51
131.1694855038
  0
LINE
  5
332
330
1F
100
AcDbEntity
  8
0
  6
Continuous
 62
     7
370
    25
100
AcDbLine
 10
720.3000029358
 20
792.1081073939
 30
0.0
 11
742.945308778
 21
788.5214463233
 31
0.0
  0
ARC
  5
333
330
1F
100
AcDbEntity
  8
0
  6
Continuous
 62
     7
370
    25
100
AcDbCircle
 10
755.3493020519
 20
772.8325649559
 30
0.0
 40
40.00000000000004
100
AcDbArc
 50
151.1911769909
 51
157.8901956838
  0
LINE
  5
334
330
1F
100
AcDbEntity
  8
0
  6
Continuous
 62
     7
370
    25
100
AcDbLine
 10
721.1021547946
 20
793.4997566401
 30
0.0
 11
744.7007922265
 21
789.7620983779
 31
0.0
  0
ARC
  5
335
330
1F
100
AcDbEntity
  8
0
  6
Continuous
 62
     7
370
    25
100
AcDbCircle
 10
755.3493020519
 20
772.8325649559
 30
0.0
 40
20.00000000000002
100
AcDbArc
 50
119.3307146116
 51
122.1694855038
  0
LINE
  5
336
330
1F
100
AcDbEntity
  8
0
  6
Continuous
 62
     7
370
    25
100
AcDbLine
 10
723.7468771446
 20
797.3537110149
 30
0.0
 11
745.5523041817
 21
790.2687006055
 31
0.0
  0
ARC
  5
337
330
1F
100
AcDbEntity
  8
0
  6
Continuous
 62
     7
370
    25
100
AcDbCircle
 10
755.3493020519
 20
772.8325649559
 30
0.0
 40
40.00000000000007
100
AcDbArc
 50
142.1911769909
 51
148.8901956838
  0
LINE
  5
338
330
1F
100
AcDbEntity
  8
0
  6
Continuous
 62
     7
370
    25
100
AcDbLine
 10
724.7568554985
 20
798.6027486979
 30
0.0
 11
747.4802536699
 21
791.2194617449
 31
0.0
  0
ARC
  5
339
330
1F
100
AcDbEntity
  8
0
  6
Continuous
 62
     7
370
    25
100
AcDbCircle
 10
755.3493020519
 20
772.8325649559
 30
0.0
 40
19.99999999999999
100
AcDbArc
 50
110.3307146116
 51
113.1694855038
  0
LINE
  5
33A
330
1F
100
AcDbEntity
  8
0
  6
Continuous
 62
     7
370
    25
100
AcDbLine
 10
727.9719086173
 20
801.9955270349
 30
0.0
 11
748.4005344841
 21
791.5866189062
 31
0.0
  0
ARC
  5
33B
330
1F
100
AcDbEntity
  8
0
  6
Continuous
 62
     7
370
    25
100
AcDbCircle
 10
755.3493020519
 20
772.8325649559
 30
0.0
 40
39.99999999999996
100
AcDbArc
 50
133.1911769909
 51
139.8901956838
  0
LINE
  5
33C
330
1F
100
AcDbEntity
  8
0
  6
Continuous
 62
     7
370
    25
100
AcDbLine
 10
729.1648434284
 20
803.0711822568
 30
0.0
 11
750.4534823629
 21
792.2240831315
 31
0.0
  0
ARC
  5
33D
330
1F
100
AcDbEntity
  8
0
  6
Continuous
 62
     7
370
    25
100
AcDbCircle
 10
755.3493020519
 20
772.8325649559
 30
0.0
 40
20.0
100
AcDbArc
 50
101.3307146116
 51
104.1694855038
  0
LINE
  5
33E
330
1F
100
AcDbEntity
  8
0
  6
Continuous
 62
     7
370
    25
100
AcDbLine
 10
732.8710621032
 20
805.9192486464
 30
0.0
 11
751.4198673698
 21
792.442757672
 31
0.0
  0
ARC
  5
33F
330
1F
100
AcDbEntity
  8
0
  6
Continuous
 62
     7
370
    25
100
AcDbCircle
 10
755.3493020519
 20
772.8325649559
 30
0.0
 40
40.00000000000004
100
AcDbArc
 50
124.1911769909
 51
130.8901956838
  0
ARC
  5
340
330
1F
100
AcDbEntity
  8
0
  6
Continuous
 62
     7
370
    25
100
AcDbCircle
 10
755.3493020519
 20
772.8325649559
 30
0.0
 40
20.00000000000005
100
AcDbArc
 50
83.3307146116
 51
86.1694855038
  0
LINE
  5
341
330
1F
100
AcDbEntity
  8
0
  6
Continuous
 62
     7
370
    25
100
AcDbLine
 10
744.1955720815
 20
811.2460337936
 30
0.0
 11
757.6720667812
 21
792.6972248017
 31
0.0
  0
ARC
  5
342
330
1F
100
AcDbEntity
  8
0
  6
Continuous
 62
     7
370
    25
100
AcDbCircle
 10
755.3493020519
 20
772.8325649559
 30
0.0
 40
40.00000000000006
100
AcDbArc
 50
106.1911769909
 51
112.8901956838
  0
LINE
  5
343
330
1F
100
AcDbEntity
  8
0
  6
Continuous
 62
     7
370
    25
100
AcDbLine
 10
739.7906491342
 20
809.682641214
 30
0.0
 11
756.6854087445
 21
792.7878834664
 31
0.0
  0
LINE
  5
344
330
1F
100
AcDbEntity
  8
0
  6
Continuous
 62
     7
370
    25
100
AcDbLine
 10
734.2175794574
 20
806.7950494944
 30
0.0
 11
753.5472577247
 21
792.7512191593
 31
0.0
  0
ARC
  5
345
330
1F
100
AcDbEntity
  8
0
  6
Continuous
 62
     7
370
    25
100
AcDbCircle
 10
755.3493020519
 20
772.8325649559
 30
0.0
 40
20.00000000000004
100
AcDbArc
 50
92.3307146116
 51
95.1694855038
  0
LINE
  5
346
330
1F
100
AcDbEntity
  8
0
  6
Continuous
 62
     7
370
    25
100
AcDbLine
 10
738.3237043205
 20
809.0282716214
 30
0.0
 11
754.5359534952
 21
792.8160168587
 31
0.0
  0
ARC
  5
347
330
1F
100
AcDbEntity
  8
0
  6
Continuous
 62
     7
370
    25
100
AcDbCircle
 10
755.3493020519
 20
772.8325649559
 30
0.0
 40
40.00000000000008
100
AcDbArc
 50
115.1911769909
 51
121.8901956838
  0
CIRCLE
  5
348
330
1F
100
AcDbEntity
  8
0
  6
Continuous
 62
     7
370
    25
100
AcDbCircle
 10
719.8493020519
 20
808.3325649559
 30
0.0
 40
1.5
  0
CIRCLE
  5
349
330
1F
100
AcDbEntity
  8
0
  6
Continuous
 62
     7
370
    25
100
AcDbCircle
 10
719.8493020519
 20
737.3325649559
 30
0.0
 40
1.5
  0
LINE
  5
34A
330
1F
100
AcDbEntity
  8
0
  6
Continuous
 62
     7
370
    25
100
AcDbLine
 10
897.4383026196
 20
598.3147786712
 30
0.0
 11
894.4383025935
 21
598.3147786712
 31
0.0
  0
LINE
  5
34B
330
1F
100
AcDbEntity
  8
0
  6
Continuous
 62
     7
370
    25
100
AcDbLine
 10
897.4383026196
 20
598.3147786712
 30
0.0
 11
897.4383026196
 21
601.3147786973
 31
0.0
  0
LINE
  5
34C
330
1F
100
AcDbEntity
  8
0
  6
Continuous
 62
     7
370
    25
100
AcDbLine
 10
897.4383026196
 20
601.3147786973
 30
0.0
 11
976.0097339584
 21
601.3147786973
 31
0.0
  0
LINE
  5
34D
330
1F
100
AcDbEntity
  8
0
  6
Continuous
 62
     7
370
    25
100
AcDbLine
 10
976.0097339584
 20
598.3147786712
 30
0.0
 11
976.0097339584
 21
601.3147786973
 31
0.0
  0
LINE
  5
34E
330
1F
100
AcDbEntity
  8
0
  6
Continuous
 62
     7
370
    25
100
AcDbLine
 10
976.0097339584
 20
598.3147786712
 30
0.0
 11
979.0097325875
 21
598.3147786712
 31
0.0
  0
LINE
  5
34F
330
1F
100
AcDbEntity
  8
0
  6
Continuous
 62
     7
370
    25
100
AcDbLine
 10
979.0097325875
 20
595.3147786451
 30
0.0
 11
979.0097325875
 21
598.3147786712
 31
0.0
  0
LINE
  5
350
330
1F
100
AcDbEntity
  8
0
  6
Continuous
 62
     7
370
    25
100
AcDbLine
 10
975.9925901725
 20
595.3147786451
 30
0.0
 11
979.0097325875
 21
595.3147786451
 31
0.0
  0
LINE
  5
351
330
1F
100
AcDbEntity
  8
0
  6
Continuous
 62
     7
370
    25
100
AcDbLine
 10
975.9925901725
 20
595.3147786451
 30
0.0
 11
975.9925901725
 21
592.3147786191
 31
0.0
  0
LINE
  5
352
330
1F
100
AcDbEntity
  8
0
  6
Continuous
 62
     7
370
    25
100
AcDbLine
 10
960.2783024146
 20
592.3147786191
 30
0.0
 11
975.9925901725
 21
592.3147786191
 31
0.0
  0
LINE
  5
353
330
1F
100
AcDbEntity
  8
0
  6
Continuous
 62
     7
370
    25
100
AcDbLine
 10
960.2783024146
 20
595.3147786451
 30
0.0
 11
960.2783024146
 21
592.3147786191
 31
0.0
  0
LINE
  5
354
330
1F
100
AcDbEntity
  8
0
  6
Continuous
 62
     7
370
    25
100
AcDbLine
 10
944.5725865497
 20
595.3147786451
 30
0.0
 11
960.2783024146
 21
595.3147786451
 31
0.0
  0
LINE
  5
355
330
1F
100
AcDbEntity
  8
0
  6
Continuous
 62
     7
370
    25
100
AcDbLine
 10
944.5725865497
 20
595.3147786451
 30
0.0
 11
944.5725865497
 21
592.3147786191
 31
0.0
  0
LINE
  5
356
330
1F
100
AcDbEntity
  8
0
  6
Continuous
 62
     7
370
    25
100
AcDbLine
 10
928.8583025171
 20
592.3147786191
 30
0.0
 11
944.5725865497
 21
592.3147786191
 31
0.0
  0
LINE
  5
357
330
1F
100
AcDbEntity
  8
0
  6
Continuous
 62
     7
370
    25
100
AcDbLine
 10
928.8583025171
 20
595.3147786451
 30
0.0
 11
928.8583025171
 21
592.3147786191
 31
0.0
  0
LINE
  5
358
330
1F
100
AcDbEntity
  8
0
  6
Continuous
 62
     7
370
    25
100
AcDbLine
 10
913.1525885149
 20
595.3147786451
 30
0.0
 11
928.8583025171
 21
595.3147786451
 31
0.0
  0
LINE
  5
359
330
1F
100
AcDbEntity
  8
0
  6
Continuous
 62
     7
370
    25
100
AcDbLine
 10
913.1525885149
 20
595.3147786451
 30
0.0
 11
913.1525885149
 21
592.3147786191
 31
0.0
  0
LINE
  5
35A
330
1F
100
AcDbEntity
  8
0
  6
Continuous
 62
     7
370
    25
100
AcDbLine
 10
897.4383026196
 20
592.3147786191
 30
0.0
 11
913.1525885149
 21
592.3147786191
 31
0.0
  0
LINE
  5
35B
330
1F
100
AcDbEntity
  8
0
  6
Continuous
 62
     7
370
    25
100
AcDbLine
 10
897.4383026196
 20
595.3147786451
 30
0.0
 11
897.4383026196
 21
592.3147786191
 31
0.0
  0
LINE
  5
35C
330
1F
100
AcDbEntity
  8
0
  6
Continuous
 62
     7
370
    25
100
AcDbLine
 10
897.4383026196
 20
595.3147786451
 30
0.0
 11
894.4383025935
 21
595.3147786451
 31
0.0
  0
LINE
  5
35D
330
1F
100
AcDbEntity
  8
0
  6
Continuous
 62
     7
370
    25
100
AcDbLine
 10
894.4383025935
 20
595.3147786451
 30
0.0
 11
894.4383025935
 21
598.3147786712
 31
0.0
  0
ENDSEC
  0
SECTION
  2
OBJECTS
  0
DICTIONARY
  5
C
330
0
100
AcDbDictionary
281
     1
  3
ACAD_GROUP
350
D
  3
ACAD_LAYOUT
350
1A
  3
ACAD_MLINESTYLE
350
17
  3
ACAD_PLOTSETTINGS
350
19
  3
ACAD_PLOTSTYLENAME
350
E
  3
ACAD_SCALELIST
350
47
  0
DICTIONARY
  5
D
102
{ACAD_REACTORS
330
C
102
}
330
C
100
AcDbDictionary
281
     1
  0
DICTIONARY
  5
1A
102
{ACAD_REACTORS
330
C
102
}
330
C
100
AcDbDictionary
281
     1
  3
Layout1
350
1E
  3
Layout2
350
26
  3
Model
350
22
  0
DICTIONARY
  5
17
102
{ACAD_REACTORS
330
C
102
}
330
C
100
AcDbDictionary
281
     1
  3
Standard
350
18
  0
DICTIONARY
  5
19
102
{ACAD_REACTORS
330
C
102
}
330
C
100
AcDbDictionary
281
     1
  0
ACDBDICTIONARYWDFLT
  5
E
102
{ACAD_REACTORS
330
C
102
}
330
C
100
AcDbDictionary
281
     1
  3
Normal
350
F
100
AcDbDictionaryWithDefault
340
F
  0
DICTIONARY
  5
47
102
{ACAD_REACTORS
330
C
102
}
330
C
100
AcDbDictionary
281
     1
  3
A0
350
48
  3
A1
350
49
  3
A2
350
4A
  3
A3
350
4B
  3
A4
350
4C
  3
A5
350
4D
  3
A6
350
4E
  3
A7
350
4F
  3
A8
350
50
  3
A9
350
51
  3
B0
350
52
  3
B1
350
53
  3
B2
350
54
  3
B3
350
55
  3
B4
350
56
  3
B5
350
57
  3
B6
350
58
  3
B7
350
59
  3
B8
350
5A
  3
B9
350
5B
  3
C0
350
5C
  3
C1
350
5D
  3
C2
350
5E
  3
C3
350
5F
  3
C4
350
60
  3
C5
350
61
  3
C6
350
62
  3
C7
350
63
  3
C8
350
64
  3
C9
350
65
  3
D0
350
66
  3
D1
350
67
  3
D2
350
68
  0
LAYOUT
  5
1E
102
{ACAD_REACTORS
330
1A
102
}
330
1A
100
AcDbPlotSettings
  1

  2
none_device
  4

  6

 40
0.0
 41
0.0
 42
0.0
 43
0.0
 44
0.0
 45
0.0
 46
0.0
 47
0.0
 48
0.0
 49
0.0
140
0.0
141
0.0
142
1.0
143
1.0
 70
   688
 72
     1
 73
     0
 74
     5
  7

 75
    16
147
1.0
148
0.0
149
0.0
100
AcDbLayout
  1
Layout1
 70
     1
 71
     1
 10
0.0
 20
0.0
 11
420.0
 21
297.0
 12
0.0
 22
0.0
 32
0.0
 14
1.0000000000E+20
 24
1.0000000000E+20
 34
1.0000000000E+20
 15
-1.0000000000E+20
 25
-1.0000000000E+20
 35
-1.0000000000E+20
146
0.0
 13
0.0
 23
0.0
 33
0.0
 16
1.0
 26
0.0
 36
0.0
 17
0.0
 27
1.0
 37
0.0
 76
     0
330
1B
  0
LAYOUT
  5
26
102
{ACAD_REACTORS
330
1A
102
}
330
1A
100
AcDbPlotSettings
  1

  2
none_device
  4

  6

 40
0.0
 41
0.0
 42
0.0
 43
0.0
 44
0.0
 45
0.0
 46
0.0
 47
0.0
 48
0.0
 49
0.0
140
0.0
141
0.0
142
1.0
143
1.0
 70
   688
 72
     1
 73
     0
 74
     5
  7

 75
    16
147
1.0
148
0.0
149
0.0
100
AcDbLayout
  1
Layout2
 70
     1
 71
     2
 10
0.0
 20
0.0
 11
0.0
 21
0.0
 12
0.0
 22
0.0
 32
0.0
 14
0.0
 24
0.0
 34
0.0
 15
0.0
 25
0.0
 35
0.0
146
0.0
 13
0.0
 23
0.0
 33
0.0
 16
1.0
 26
0.0
 36
0.0
 17
0.0
 27
1.0
 37
0.0
 76
     0
330
23
  0
LAYOUT
  5
22
102
{ACAD_REACTORS
330
1A
102
}
330
1A
100
AcDbPlotSettings
  1

  2
none_device
  4
Letter_(8.50_x_11.00_Inches)
  6

 40
6.35
 41
6.35
 42
6.35000508
 43
6.35000508
 44
215.9
 45
279.4
 46
0.0
 47
0.0
 48
0.0
 49
0.0
140
0.0
141
0.0
142
1.0
143
1.0
 70
  1712
 72
     1
 73
     0
 74
     0
  7

 75
     0
147
1.0
148
0.0
149
0.0
100
AcDbLayout
  1
Model
 70
     1
 71
     0
 10
0.0
 20
0.0
 11
1189.0
 21
841.0
 12
0.0
 22
0.0
 32
0.0
 14
0.0
 24
0.0
 34
0.0
 15
1189.0
 25
841.0
 35
0.0
146
0.0
 13
0.0
 23
0.0
 33
0.0
 16
1.0
 26
0.0
 36
0.0
 17
0.0
 27
1.0
 37
0.0
 76
     0
330
1F
331
29
  0
MLINESTYLE
  5
18
102
{ACAD_REACTORS
330
17
102
}
330
17
100
AcDbMlineStyle
  2
Standard
 70
     0
  3

 62
   256
 51
90.0
 52
90.0
 71
     2
 49
0.5
 62
   256
  6
BYLAYER
 49
-0.5
 62
   256
  6
BYLAYER
  0
ACDBPLACEHOLDER
  5
F
102
{ACAD_REACTORS
330
E
102
}
330
E
  0
SCALE
  5
48
102
{ACAD_REACTORS
330
47
102
}
330
47
100
AcDbScale
 70
     0
300
1:1
140
1.0
141
1.0
290
     1
  0
SCALE
  5
49
102
{ACAD_REACTORS
330
47
102
}
330
47
100
AcDbScale
 70
     0
300
1:2
140
1.0
141
2.0
290
     0
  0
SCALE
  5
4A
102
{ACAD_REACTORS
330
47
102
}
330
47
100
AcDbScale
 70
     0
300
1:4
140
1.0
141
4.0
290
     0
  0
SCALE
  5
4B
102
{ACAD_REACTORS
330
47
102
}
330
47
100
AcDbScale
 70
     0
300
1:5
140
1.0
141
5.0
290
     0
  0
SCALE
  5
4C
102
{ACAD_REACTORS
330
47
102
}
330
47
100
AcDbScale
 70
     0
300
1:8
140
1.0
141
8.0
290
     0
  0
SCALE
  5
4D
102
{ACAD_REACTORS
330
47
102
}
330
47
100
AcDbScale
 70
     0
300
1:10
140
1.0
141
10.0
290
     0
  0
SCALE
  5
4E
102
{ACAD_REACTORS
330
47
102
}
330
47
100
AcDbScale
 70
     0
300
1:16
140
1.0
141
16.0
290
     0
  0
SCALE
  5
4F
102
{ACAD_REACTORS
330
47
102
}
330
47
100
AcDbScale
 70
     0
300
1:20
140
1.0
141
20.0
290
     0
  0
SCALE
  5
50
102
{ACAD_REACTORS
330
47
102
}
330
47
100
AcDbScale
 70
     0
300
1:30
140
1.0
141
30.0
290
     0
  0
SCALE
  5
51
102
{ACAD_REACTORS
330
47
102
}
330
47
100
AcDbScale
 70
     0
300
1:40
140
1.0
141
40.0
290
     0
  0
SCALE
  5
52
102
{ACAD_REACTORS
330
47
102
}
330
47
100
AcDbScale
 70
     0
300
1:50
140
1.0
141
50.0
290
     0
  0
SCALE
  5
53
102
{ACAD_REACTORS
330
47
102
}
330
47
100
AcDbScale
 70
     0
300
1:100
140
1.0
141
100.0
290
     0
  0
SCALE
  5
54
102
{ACAD_REACTORS
330
47
102
}
330
47
100
AcDbScale
 70
     0
300
2:1
140
2.0
141
1.0
290
     0
  0
SCALE
  5
55
102
{ACAD_REACTORS
330
47
102
}
330
47
100
AcDbScale
 70
     0
300
4:1
140
4.0
141
1.0
290
     0
  0
SCALE
  5
56
102
{ACAD_REACTORS
330
47
102
}
330
47
100
AcDbScale
 70
     0
300
8:1
140
8.0
141
1.0
290
     0
  0
SCALE
  5
57
102
{ACAD_REACTORS
330
47
102
}
330
47
100
AcDbScale
 70
     0
300
10:1
140
10.0
141
1.0
290
     0
  0
SCALE
  5
58
102
{ACAD_REACTORS
330
47
102
}
330
47
100
AcDbScale
 70
     0
300
100:1
140
100.0
141
1.0
290
     0
  0
SCALE
  5
59
102
{ACAD_REACTORS
330
47
102
}
330
47
100
AcDbScale
 70
     0
300
1/128" = 1'-0"
140
0.0078125
141
12.0
290
     0
  0
SCALE
  5
5A
102
{ACAD_REACTORS
330
47
102
}
330
47
100
AcDbScale
 70
     0
300
1/64" = 1'-0"
140
0.015625
141
12.0
290
     0
  0
SCALE
  5
5B
102
{ACAD_REACTORS
330
47
102
}
330
47
100
AcDbScale
 70
     0
300
1/32" = 1'-0"
140
0.03125
141
12.0
290
     0
  0
SCALE
  5
5C
102
{ACAD_REACTORS
330
47
102
}
330
47
100
AcDbScale
 70
     0
300
1/16" = 1'-0"
140
0.0625
141
12.0
290
     0
  0
SCALE
  5
5D
102
{ACAD_REACTORS
330
47
102
}
330
47
100
AcDbScale
 70
     0
300
3/32" = 1'-0"
140
0.09375
141
12.0
290
     0
  0
SCALE
  5
5E
102
{ACAD_REACTORS
330
47
102
}
330
47
100
AcDbScale
 70
     0
300
1/8" = 1'-0"
140
0.125
141
12.0
290
     0
  0
SCALE
  5
5F
102
{ACAD_REACTORS
330
47
102
}
330
47
100
AcDbScale
 70
     0
300
3/16" = 1'-0"
140
0.1875
141
12.0
290
     0
  0
SCALE
  5
60
102
{ACAD_REACTORS
330
47
102
}
330
47
100
AcDbScale
 70
     0
300
1/4" = 1'-0"
140
0.25
141
12.0
290
     0
  0
SCALE
  5
61
102
{ACAD_REACTORS
330
47
102
}
330
47
100
AcDbScale
 70
     0
300
3/8" = 1'-0"
140
0.375
141
12.0
290
     0
  0
SCALE
  5
62
102
{ACAD_REACTORS
330
47
102
}
330
47
100
AcDbScale
 70
     0
300
1/2" = 1'-0"
140
0.5
141
12.0
290
     0
  0
SCALE
  5
63
102
{ACAD_REACTORS
330
47
102
}
330
47
100
AcDbScale
 70
     0
300
3/4" = 1'-0"
140
0.75
141
12.0
290
     0
  0
SCALE
  5
64
102
{ACAD_REACTORS
330
47
102
}
330
47
100
AcDbScale
 70
     0
300
1" = 1'-0"
140
1.0
141
12.0
290
     0
  0
SCALE
  5
65
102
{ACAD_REACTORS
330
47
102
}
330
47
100
AcDbScale
 70
     0
300
1-1/2" = 1'-0"
140
1.5
141
12.0
290
     0
  0
SCALE
  5
66
102
{ACAD_REACTORS
330
47
102
}
330
47
100
AcDbScale
 70
     0
300
3" = 1'-0"
140
3.0
141
12.0
290
     0
  0
SCALE
  5
67
102
{ACAD_REACTORS
330
47
102
}
330
47
100
AcDbScale
 70
     0
300
6" = 1'-0"
140
6.0
141
12.0
290
     0
  0
SCALE
  5
68
102
{ACAD_REACTORS
330
47
102
}
330
47
100
AcDbScale
 70
     0
300
1'-0" = 1'-0"
140
12.0
141
12.0
290
     0
  0
ENDSEC
  0
EOF
